<mxfile host="app.diagrams.net" modified="2024-03-12T16:59:20.482Z" agent="Mozilla/5.0 (Windows NT 10.0; Win64; x64) AppleWebKit/537.36 (KHTML, like Gecko) Chrome/122.0.0.0 Safari/537.36 Edg/122.0.0.0" etag="XY2l05XPLVuna9Ldym8d" version="24.0.2" type="device">
  <diagram name="Page-1" id="Y92I7dz6foHqkywPbhAE">
    <mxGraphModel dx="1973" dy="643" grid="0" gridSize="10" guides="1" tooltips="1" connect="1" arrows="1" fold="1" page="0" pageScale="1" pageWidth="1000" pageHeight="1390" math="0" shadow="0">
      <root>
        <mxCell id="0" />
        <mxCell id="1" parent="0" />
        <mxCell id="fCc0VGdKN-cLOxfo7Wwt-28" value="" style="rounded=0;whiteSpace=wrap;html=1;" parent="1" vertex="1">
          <mxGeometry x="-2" y="490" width="120" height="60" as="geometry" />
        </mxCell>
        <mxCell id="fCc0VGdKN-cLOxfo7Wwt-21" value="" style="rounded=0;whiteSpace=wrap;html=1;" parent="1" vertex="1">
          <mxGeometry x="-2" y="490" width="272" height="196" as="geometry" />
        </mxCell>
        <mxCell id="fCc0VGdKN-cLOxfo7Wwt-2" value="" style="shape=flexArrow;endArrow=classic;html=1;rounded=0;exitX=0.5;exitY=1;exitDx=0;exitDy=0;entryX=0.5;entryY=0;entryDx=0;entryDy=0;" parent="1" source="fCc0VGdKN-cLOxfo7Wwt-24" target="fCc0VGdKN-cLOxfo7Wwt-34" edge="1">
          <mxGeometry width="50" height="50" relative="1" as="geometry">
            <mxPoint x="74.44" y="312" as="sourcePoint" />
            <mxPoint x="69.99999999999994" y="421" as="targetPoint" />
          </mxGeometry>
        </mxCell>
        <mxCell id="fCc0VGdKN-cLOxfo7Wwt-3" value="" style="shape=flexArrow;endArrow=classic;html=1;rounded=0;exitX=0.25;exitY=1;exitDx=0;exitDy=0;entryX=0.815;entryY=-0.012;entryDx=0;entryDy=0;entryPerimeter=0;" parent="1" target="fCc0VGdKN-cLOxfo7Wwt-34" edge="1">
          <mxGeometry width="50" height="50" relative="1" as="geometry">
            <mxPoint x="154.76" y="365.5" as="sourcePoint" />
            <mxPoint x="165" y="484.5" as="targetPoint" />
            <Array as="points">
              <mxPoint x="155" y="380" />
              <mxPoint x="220" y="380" />
            </Array>
          </mxGeometry>
        </mxCell>
        <mxCell id="fCc0VGdKN-cLOxfo7Wwt-4" value="" style="shape=flexArrow;endArrow=classic;html=1;rounded=0;exitX=0.25;exitY=1;exitDx=0;exitDy=0;entryX=0.177;entryY=0.02;entryDx=0;entryDy=0;entryPerimeter=0;" parent="1" source="fCc0VGdKN-cLOxfo7Wwt-24" target="fCc0VGdKN-cLOxfo7Wwt-34" edge="1">
          <mxGeometry width="50" height="50" relative="1" as="geometry">
            <mxPoint x="-80" y="330" as="sourcePoint" />
            <mxPoint x="-77.26999999999998" y="439" as="targetPoint" />
            <Array as="points">
              <mxPoint x="115" y="380" />
              <mxPoint x="46" y="380" />
            </Array>
          </mxGeometry>
        </mxCell>
        <mxCell id="fCc0VGdKN-cLOxfo7Wwt-9" value="" style="sketch=0;pointerEvents=1;shadow=0;dashed=0;html=1;strokeColor=none;fillColor=#505050;labelPosition=center;verticalLabelPosition=bottom;verticalAlign=top;outlineConnect=0;align=center;shape=mxgraph.office.devices.cell_phone_generic;" parent="1" vertex="1">
          <mxGeometry x="109" y="543" width="50" height="90" as="geometry" />
        </mxCell>
        <mxCell id="fCc0VGdKN-cLOxfo7Wwt-10" value="" style="shape=image;verticalLabelPosition=bottom;labelBackgroundColor=default;verticalAlign=top;aspect=fixed;imageAspect=0;image=data:image/png,iVBORw0KGgoAAAANSUhEUgAAAcgAAAJhCAYAAADFWiBRAAAgAElEQVR4AezdB7htRXUHcAKiWBARCxjAEpUSBQXFUAQbIlhQAUUUQSI8gqKiWGgKIk0BsSBFQJpdEBAbqNEQFXsvGDAmxhITSe9l5/tN/D+3x3Pve/e9c+45994137fP3mfv2VPWnjX/WWvWrFmjq1AUKAoUBYoCRYGiwG9RYI3fulM3igJFgaJAUaAoUBToCiCrERQFigJFgaJAUWAIBQoghxClbhUFigJFgaJAUaAAstpAUaAoUBQoChQFhlCgAHIIUepWUaAoUBQoChQFCiCrDRQFigJFgaJAUWAIBQoghxClbhUFigJFgaJAUaAAstpAUaAoUBQoChQFhlCgAHIIUepWUaAoUBQoChQFCiCrDRQFigJFgaJAUWAIBQoghxClbhUFigJFgaJAUaAAstpAUaAoUBQoChQFhlCgAHIIUepWUaAoUBQoChQFCiCrDRQFigJFgaJAUWAIBQoghxClbhUFigJFgaJAUaAAstpAUaAoUBQoChQFhlCgAHIIUepWUaAoUBQoChQFCiCrDRQFigJFgaJAUWAIBQoghxClbhUFigJFgaJAUaAAstpAUaAoUBQoChQFhlCgAHIIUepWUaAoMHkK/O///m/3P//zP13OrmcK//3f/93iDT73zn/913+129IRL8H/hGHve7efZz++6/7/pFPnxUWBAsjF9T2rNkWBBU8BoBQgy3UfrABTgGsQqPz/z//8z+7f//3ffyMOkOyDoPfdcw7QJd2kHUL6P3gvz+q8uClQALm4v2/VriiwoCkA1AJiAbJ+hfLMPXEDrP579h//8R/LJVDvJw33gWiky6QTkJQOoBUG3/u3f/u3dr9+Fj8FCiAX/zeuGhYFFhQFAnQBsz7QBaxyVjFA5r94guuAm3sBP/cCjK4d//zP/9z9/d//fXfrrbcuP/7pn/6pA4KeK0veSTr9vENY9yosPgoUQC6+b1o1KgosOAoEdAJCkeACPAGzX/ziF91f/dVftcP1v/zLvzQwU2HSYFSrScfZvaT3wx/+sPvEJz7RvfWtb+1e8YpXdM95znO6ZzzjGd2ee+7Zjqc//endc5/73O5FL3pRd8wxx3QXX3xx9yd/8ifdj3/84w5wKod8cpZu8lpwRK8Cr5ACBZArJFFFKAoUBcZNAUAIaAI2/gMfIPixj32se+UrX9nttttu3VZbbdXd+9737jbddNN2veuuu3ZvfvObu2984xsNKIGXd50d0nD+6U9/2p188sndgx70oO72t799t8Yaa3Rrr712u77b3e7WPeABD+juf//7d/e5z326e9zjHt0d73jHbq211urWXHPN7na3u1238cYbd3vttVd3ySWXdDfffHPLKyralHncNKr0558CBZDzT/PKsSiw5CgApACJsxAw9L8vjQGdv/zLv+yuuOKK7o/+6I8aCN7pTndqQLb++us3YARkDkC5wQYbdOuuu273e7/3e91LX/rS7rvf/W5Lj1pUun/2Z3/WnXHGGd3DH/7w7ra3vW2L7/qFL3xhd8EFF3Q33HBD9/3vf79JpPL9i7/4iwaAX/7yl7vrr7++O/vss1u6gBiI3vOe92wgCizPP//87itf+Ur3r//6r61O8hwEegBdYeFSoABy4X67KnlRYMFQAFgJAUlAEjABIp7//Oc/byrNPfbYoyPVkfBIiiTH0047rfvoRz/aAS4SHFXpt771re6P//iPmwT5tKc9rcV/zGMe00AP8H784x/vHve4x3V3vvOduzvc4Q7d3nvv3X3gAx/ovvnNb3Zf//rXW3rvfOc7u8suu6x7z3ve033uc5/r/vqv/7qVJeUzF/l3f/d3TQIlpZ5zzjlNJbvhhhu2NDfffPPukEMO6T75yU82oASS6mhuUwh4tj89gx/pV5h+ChRATv83qhIWBRYFBQBhjoAjAGIgA5wOOOCABjokxh122KGpRD/72c82IxmgE9ACpoAoUmnA9dJLL+0e/OAHd494xCO65z//+d1973vfbr311msAe8opp7R5xz/8wz/sSIOkSMdjH/vY9n/nnXfudtppp+5Rj3pUt99++zWpk2qXVAnkUm5nRj033nhjd9RRR3XbbLNNk25JswceeGBTB6uPeFHBDn681GPwfv2fPgoUQE7fN6kSFQUWJQWAmgDYcpgbPPXUUzuSmLnBRz/60U1Ku+mmm5arSiN1egfwBGAAIxCSrmvxGN+QGNdZZ52mDpXe4x//+I5UumzZsu7000/vPvzhDzcp8kc/+lGTWkmNP/nJT5pkCviuvvrq7o1vfGP3qle9qjv00EMbEJIwgaU8gLpy/OM//mOTRM8666wG6IDdHKZ8Pv/5zy836kl5nSssLAoUQC6s71WlLQosWAoAOIH6EViwDDUXaA6RpHfiiSd2P/vZzxoIBfAAEgnOWQBMAUTXuUcNytp0++23bwY2DGvMTz7ykY/sLr/88gZu0kwIaPmftHMdIHNmuXrNNdc0a1fSpnnHX/7yl+0dz1MnAHvCCSe0eUqGPb/7u7/bvf71r2/vp7ziyivppyx1nl4KFEBO77epkhUFFjwFgEGOgAnA+MIXvtDtu+++DcyoNhnlsFgFIOIBP2dx3f/iF7/YgOpd73pXd+GFF3bUqeYTzSX+wz/8Q/fud7+722KLLbrtttuue/azn9297nWv66hngStgVIakGaIGqFK+3M8575BSAaUyMNohhZpzlK9n0ldOwM/ohxr3rne9a8eoyBIShjzej8pVHQPuyavO00mBAsjp/C5VqqLAgqdAgCdnAOGakQyDmdvc5jbtDHisZwzIABBqzK997WvNOOeggw7qXv3qV3fnnntuM6i56qqrGjhSe7I0JdWxaqUOZUjzt3/7tw2MpDN4yH8uwfvKBawd1KosXRkJufYsz4Ee6ZLaGGBbUsJy1lzntdde28qingHsuZZlLuWuuKOhQAHkaOhYqRQFigKzUAAoABAWqMCRSpV0ZRkGEAoAARvAaF6P+hXQkCBJZ5G6xAdOQPRDH/pQ9/u///vd8573vDafqAjyEifA3D/PUsRZH0lDmgmD4KZswE/IM/OQLHBZ0G699dbde9/73gbcyq38KWPSrPP0UaAAcvq+SZWoKLDoKADgMud4l7vcpSMVksSidgQajGasTbRu0RINxjMA0zMA5FpwDVxYmQIeRjjWMgIo4BQgHQUR+6AoPf8HD3kmX2dgL1DvGhCwqKVuZWFL6kULz8QbTH8UZa40RkeBAsjR0bJSKgoUBXoUABYBE7ff8IY3NIMcaxNjpQogARq1K6OWM888sxnquO8IKAZMAkaMYp74xCc2S9UvfelLy9WckR7zXq84q3wZQB6WgPoFEPtgpxwpM0A87LDDmveezTbbrM2/Rj3bf2dY+nVvshQogJws/Sv3osCipEAkKkABrFiYbrnlls2IhuqRVOgZQxeL/TkCYOAibkA15wCNZ6RE6wyPPfbYtpyDepUKFog5AkyuA6b986oQ2/vKknRcBzTdExJH/nkG4IEjMAToHAqQnlnWcnKQwUG/TEmvf6+uJ0eBAsjJ0b5yLgosOgqkg3cGaM5UqRb+b7TRRs1aFYhEHWoJBatQ6lXxASdADMAFjJIua9CPfOQjzdPOve51r7ZQ38J9zx3eo76cawBWCclL3v2Q+86eKW+kR/HkLaifOICR9x+qYs8sRWFhCyTNTabO/TzqerooUAA5Xd+jSlMUWNAUAA4C8AAKJMQ3velNzZqTlSnQAGCef+pTn+qOO+64Nn8IGANSngEgRwAI4JDGSI924OBMnNrSvB4ASvBO0sm9lTlLX3nlrQ6RWt33P+Anff+dPROc857/ngnqaYmHJSeMkYA71fIuu+zSVM0cEaiT+M5C0mx/6mfiFCiAnPgnqAIUBRYPBXTwARGAYDmEZQ6bbLJJW0cIvAAHFSOPM9ZDAhz3A0zAKaAEOPloJW0BF+sgpfWSl7ykqWX5RDV/CcDyfgBqLlT1Tg5lkW/qEdBKmdyXn/upr7wCoslXfMBHhfzyl7+80ULdGRdxrs6RwXnnndfqLk1pDaaRtOo8GQoUQE6G7pVrUWDRUgC4BDgY3XAhx3UbsCBpOS666KLu05/+dAMhUqUAPACFYC3jBz/4wbbU46EPfWjzTMPfqd007ne/+zVQtM0VkLHUQ34B2ZbAHH+Sr3Qc1LakP+Ac6S5lFxf45R1ZeUcIcLoW33/0sE3W7rvv3gyQDADQhWWrJSDoYB61wvRRoABy+r5JlagosGApABACEhbMW8DPu41Njt0HGsDFkg8A4x7AAG6u3eclx8bF9mU0z0glaSur448/vnmooWIFOu973/vaekpq2kh80hL64LUyxEyZAZ00SLisavfff//OTiGkXWszedD58z//86YuzTviJ7/ck6d6pr7mHwH6SSed1GhBLfzkJz+5lf8pT3lKA+LQY2XKW3HmhwIFkPND58qlKLAkKABgSILO5h45DmdxqvMHJADEtUMcaljX5ipZt1rTSCpk0GPOkvUroCXFec7HKYfk/nMzx4oVgPLhKu0ApLTnEsTPEUlRPTgoJ+HZDcROH7bfeshDHtK94AUvaKpT5QaEqVfyTFrOyuQQ16bNVKzesdaTdG0gQKKO5J006jx5ChRATv4bVAmKAouGAgCBhSrVJEtNQAfkhIAFMBEAI6BgeHPxxRe3eTn7QFonyVJVOlG7OgMpW1h95jOfWQ6q/J7e/e53b/EDbEm/ZTLHH2VUroBtQN2ZGpTVrY2cLVkBbDZOpuIF0PLP+7L1jv8BT/W85ZZb2nwkKZRq+UUvelHbx9IWXQx5gGTezSDCucJkKFAAORm6V65FgUVJgYABw5SNN9647bVIAgQUwFAAJMBDIKGx5gQ2toqihmSM47l4AIP6lYqSqpPVKsOfPAOWpDpAGeMa6Qac5DvXEJADTDkCftIivXKHZx7RDh8ckz/rWc9qEqE6Koc0UgZpuO+QDvDPnOxXv/rV5mSdJHnMMccsfzdlTv75X+f5pUAB5PzSu3IrCixqCpD0BABgyykOAIAmwAjwkKTcI5HxoSqenTiAHWffgCXAAFRcW0sJHG1nxYDHPfEA6NFHH90sW605dC/gmTyd5xpSVukJ/rt2KFPSVBYqX1apQN41Ax/xlDHv5tq7nqMPx+oCn7NU0dL4zne+095FH0H8CpOjQAHk5GhfORcFFh0FdOgkKBKVJRjUq5EqVRZ4AQ9AcPDBB7dF8+b2zC+aowOaV155ZVvGsd9++7XdOsS3lIOEyQsNAxcAJR9p88NqHpIxEMnOvKbnydd1AG0uBM97g2lJVz1Iks7qbGst6zKpgBkUkXK9p4zAMfmri4MRkH0qBXOSLHSt7TznnHNa3D6gzqXMFXe0FCiAHC09K7WiwJKnAJWqrZ7s8wjwgIMOP4AF4My9USsyyvnyl7/cJEGOvYEmScwcH9UroAEy1kuaz7Tk4wc/+EEDGUAjeE56ZPFqThBgBoiTZwBqrh/H+97N+7l29kwZAKQz6ddcKmn48MMPb3OK4ihL4suf1AvEWeuaq/2bv/mbpoomSVMjD3oGSt5zLXvFX30KFECuPg0rhaJAUeBXFAAI1g+SHu1iEWB0P4ACRIAZEPzc5z7XAIZEBdwY6XACYG4uBiuS/tM//dO2BpKkRVqL6hEwSZc0ZwNlakpLMr73ve8tl97EiUQ2+KHcXxEAeZ56BOjyjrwF/x3AWjmA/Cte8YqmDiYZ9+sPMKmiWbECdv9Z/FoTaRDAOld86Sl7hclRoABycrSvnIsCi5ICFsXf6U53ausGAUsAChAAT1LgAx/4wO7DH/5wA8Hvfve7DRxZctoMmYTpPSAS4OHIHHisu+663YUXXtieA0nPkwdApbakhn3MYx7TXX311Y2+QAvgJJ7yBGADXCImLffECUj1P1LK07+Xa8+8w6CIZav6mGuUf9JzLW+gSdK2wwmJkcr5AQ94QNtE2ryteELqmDzqPL8UKICcX3pXbkWBRU0BHTvVKMtOAAU0dPLuAwLSHUnphBNOaHSw3MG2VebuSIkCIPNegNU9c5SkUhstP/e5z23xAlZAqf+eeU9pkiaPOuqopua1pAIoSTMBAFtKIj9pzAaI8lqZ0Ae0yy67rDlKAJZJO3UzWEATcb797W83GjFYWmuttbqHPexhrcwpl3OFyVCgAHIydK9ciwKLkgKAiIcYSzwYzAQgAQcA5CaOb1ZLOfhXpYb1n9qUBJhdPhDHuwEWIELqZMhijo8FKLADNAE3QAJ0nFm9ks5IccCS8QspDUh77giYue4H+faf5797rmcLyiKeujiU4dGPfnQrr2dAWb6CtKiSr7/++laXd7zjHU3yZtFqQJB6rSjP2cpTz1aPAgWQq0e/ersoUBToUYBRjuUYPNyQDoFFpDa7WgA4SyEYpxxwwAENHC3vAAbmEQXXQoAJoIi/6667tuUQpE2ebCwXkXbieQdAAiZpMYSx+N56xR133LHlZZH/e9/73paefAI+/eukp+zDQt4Z9kzeeS5/UispVr7Av19e8QAmAyT3gWXUrFSzwD/xh+VV98ZPgQLI8dO4cigKLBkKsDo1V/gHf/AHbY4tYAMsABzgBFpve9vb2tpF/lSBEwtQcWPBGZBEOMACLEhj1KzS4XLuiiuuaEAIRPrxIuk5AyCgZcNiVqNAeeedd27HQQcd1Ixjrr322rbsAqDziAPkzSN6D+D2yyIf5ZzpkJ8QSVHZSbPPfOYzmzs5ErZyqU/K6Z705P2EJzyhW2ONNdr6UDRL3Vqi9TPvFBg5QPqgPryQ87DGNO81rQyLAkWBsVOAFGRDYB5mgF4C9aZtqo488si2TOOpT31q9/73v3+5VAUw0k/oN9J3OAMpgUp28803b0tDGOFY+0jVSsJ0ADL9T/og6SVIRxygA8TtRfn2t7+9+Ym15MRGxvvuu2+39957NzADnhbwkz4Z/nzxi19swKksytrPy7W8+mWWV8rhbG3ntttu2914443tPgk3ZU05DQ6spVxnnXWakVF/iUzqUef5pcDIAVIjyYgrjTJVCgPknPt1LgoUBRYHBTj2pkbdc889m3oxvP6e97ynOSF/97vf3Zx8W+ohABKAAywSN+e+9OYauJmnA7SWUJiTJBHyZiOdACmprR+kJ335kOwc/fz0V9IGUKQ46zJZ4tolhLTKaIbEam0nJwDXXXddi5s89HM5+mV2T1mkDxBJwEA4TgSUQRzlE5TvjDPOaEZMJG3ztJ5XmBwFRgqQ+Zg+tKDR5t7kqlg5FwWKAvNFARaba6+9dtsmCigAB/0AYxyqV8Y4AM0z/YT+AVCIF6Bwnf+eez9xLAHhTGCzzTbreNoBlkDSOkoqUWlKxzvOSVP9peVwL9c553n6rMQBcPzF8i1r7pSlKaMbEvKLX/zitmelhf7KlzKmvMk/adnKi6rVtll9kFaGBGsj0c96UFKutCpMjgIjB0iNJBPVGrn/aSiTq2blXBQoCswHBWxy/Du/8zvNeTgQwPvm2MxJksBYtgokrQDDYP/gvucBOf9d61eczenZQ5G6lXMBIGnuznpKAMkwxjuOgJY8hNxvf3rziQHrlCVn8TMXKS11IQGqJ4BUrx122KE799xz2zyn95Qx84r6QGm4531u5cSnao3E652Uixcga0h5GbIExP0Kk6PASAFSY9CYqCv4TsyCX/cdaXSTq27lXBQoCoyTAgxnGJmwMs1AmdrS/Jt9FIEboHAM6/wDJs6kN++SpM4+++y2rpLlKlWoNZYkUqpIEiTw5asVqNic2fv6m4TBvPzXJylHv28CZIAdeHnWBy/PAGn6M/Uz5/rKV76yqWH32WefjgqZhCyInz5PWvpFaZ966qltX0jXCeKJr89UJ1Jk1orKr8JkKDBSgMyokJWaCXRMwjLMh3eEKfoNdzLVrlyLAkWBcVDAEgoA+fKXv7yBCZ7XB1gXye8qwxPg5PDMEYByD+iwOCVpvfa1r+0YyxxxxBEdS1OeZ/hhtQSCM/STTjqpGdVwW8e4xpZX9pJ05qUHUKXP0f8E2OSToC9KOdwXJ++I4z9QzD1x8j99mv9f+tKX2ryodZeWdPArGynYc3GdvU8la50jgPQ//aFr9570pCc1KRzwp2wpb53nlwIjBUhF97GpOHjTYI3FEkwjM3oSXFcoChQFFicFGOMASHsbmmcU+EW95z3v2dSh+gH9Q0AmoAEIAClDlq222qqtWSRBkdDEMXfJMIeUaMsrrue8Q5Wpj+H7VB7WHFpvSQVLorO0I0tIgK/+J0f/C/SByn39mHv94D1lSZkDrgFK5TFXqXycH/Do45l43gWYzgHCpJM83Bfn1a9+dQNIYB9VbeLUeX4pMFKA1BjykakKsuXNeeed10aGRk4ay6CV2fxWuXIrChQFxkUBSzcAJLVjVIisMXmHOeSQQ35jnaP+AljysAP8gBo3cueff35b43jBBRd0L3vZy5o2ynwj4AEeWdoBYPQlgJiESeLaeuutmxN0IMulHdd0HBfw7mOHDVInS1HOwS3hOPHEE9tg3vIKebO+3W233dqcJklOmRjWWAoCvC3XsLCfJByg1acBNuVRJ+V7znOe08rNGbkypl/0HFCLD1C9myCONN/ylrc0n6yk0awLTZw6zy8FRgqQiu6j+9AahdEfiy+eL8xN5JlGoaFUKAoUBRYXBWKkQy0KBPA6gARUtEr43iJ8YEIFCnRsi2UHjze/+c1tGYVlFQxv+HNlBMMY5pprrmnWpFFLSls/Ix15ABZgYokGgJWeaR6eaSzRIGFusMEGzTqUpCl90uj973//BqjbbLNNKwdjH2C6xx57tCUeQEoarEo5SrfG044i3NedfvrpDQwN/JVL/spBSnZtSYi62LEkGjTlRoOU2TlBffxHQ0tl5EvQkGaFyVBgpADpAwf4qAYAohEUk2yunliZZTSlYVcoChQFFhcFLPPgcNs8HElJn8AmATiR3PA9iY/alQoUQFmuwbsNoxtAZlANXPQd5h31GfoVIARgBgFDmvoaAcA4xJO/JRokOipaLu2AlUX/dhVhSHjLLbc0aVB/BcTklXykS8JlWERqZABEkgS8PPrYv9FazGOPPXY5CCqbvKXDWIhUS1UqH2CnbMqVsraLX/0EIEnUBgd3v/vdl7vr68er6/mjwEgBUrE1gICkBqYxaFicFNs5XMPsA+n8VbVyKgoUBcZNgU9+8pNNtQkYAKH+gNENLZJ1hIAMQFFjWs5gxw3gCWyoYIEDMAEwgr4C6AQEXUtTcPa/f0jf/7znv/7I/wTv+e/wHKAlvdxPHkkr/4EnwFTPo48+uttuu+262972ts3y9PWvf33z9iNu5lnV5elPf3pTIcsDTaSZ9Pplcs9BkCD1Uktz0l5hchQYKUBqiBqyYEQmaHwaxWte85o2N8GTBNPtxGuR6qcoUBRYFBSwvg/gmbejShWABVUl126kyd13371JmdSVgJPbONIS1WIfyICXI6AVIHMPUAVk+u8An/47faKKL644+h9nwX2GPKRV1qdAidRp42JWs1So+rNIlvqz5CE+i12SrzlPdaNSln7yIn1S4TLaSb79MqcMqQ8AJlkDSCrjCpOjwEgBcqZqaEzUDYceemhTHTDdpvpwX6PXWEiartNIZkqr7hcFigLTSwGqU/ON5vEAi2DgzADm5JNPbh51LIIHJhbMs01gebrpppu2pRLUnPqDAIgzUJGGNZAG1w7301e4DmC51we+YZQioVH3MszhaIBmyxpNc37mJs1RAmxqVEtI3DeXSCVsM2M7i8hTmQLajJN41yFNSlMe6dOA6/HHH98Mf/iT9W6//Mqo3LnHAMi6TjSyHKTC5CgwLwCpgTu4WtJ4qFZMvGvoGkYadxrK5MhRORcFigKrQwHSD5ABOvhb0PEznAEyJC0gQsVKUjMvxzDmoQ996PK1g/oD4MPQhcTJvytwJZVuueWWDahIaQni6kcyt5f77g0G4AnMGN1YjL/mmmu2JRUsb3PNE5DDf3Fuc5vbNM82/pOEeQMKyAFI+evfTB/p3wwArMvU33mmPrzvAGH7UkYQCCAqo7LmIHmjh2VyVM7D6jFYr/o/HgrMC0BqIBqmhmFinCm2USaT7ejk0+CqMYznQ1eqRYH5oADLVOpEYEBaSqdPZcnwxOCYYYuF9foF6kdSGsB0zUEAa1YDaBIZi9H111+/gRSwImmariFpShsw5ax+AdeA0GCdE5fHG0s+GBMtW7asLcsgIdplBBAfeOCB7eDshPSnTIBVGeUJjPVZyTPlIEE/8pGPbHOqLHRj9ONs7aZdQ+Lppw+Q0lE2QVxLWgCkwUHyaQ/rZ14pMC8A6cMbSQkaNus065qM4kxs0/8D0MEGM6+UqMyKAkWB1aaAzt1aQnOLQBHv423qUdafpDDLI8RzmHc0Z2nAzGCHhGnuDRiS4khvzjzxPO1pT+s4Ish66oCSPACjM2AUAJj/g0FZMmA3OFcGZ9IqyY061JypPskz6YnvSLr6svRV0hPk5dC/cYNnSQigZKAkrvelx2crSTNlGAZ+6uVdAMnydlg9Wqb1M3YKzAtAakRpuBqQ/7atiaUW6zbPPatQFCgKLFwK6PDN7Rn8svT0H7/r5BnosWbnkFtwD+8DAiBoeQgApe50AEpWopwF8FADuAJC6U+kEwACXECIYQsAmglYvOsdQORMFWprKx54zPn13xNHuurgOv8z4Pe+68RJX8e7j0ECFak48hQHCANNeYjrWT8/9VF2gwlzkN6vMDkKzAtAql6sztJYgCFfi5jDJPg73/nONurTAIU0mjDX5EhUORcFigJzoQAJkQSFp/FvQAMA7b///i2pgAMLUHN2PNZwLsCRt3k6UhhJi2UpUAGqJFKSIYkvIekAH32GuUkqUuf0IYnrnHvpZ/RDANgyE4BExWreU7yArOthh74saSbdTBmZi6VmZoSU+ucsXYCpLslDOklPPHO41NGsggfDeawAACAASURBVCtMjgLzBpBpYD6+RqFBswaj4zdSNNqi49dIxBFce0/cCkWBosDCoMD111/feBogCvgZIH3nO99p0l142tnaR+rVj3zkI029mb7B2aDacdFFFzUDH7YLVKzAxbvSDKj4L5AA7YbBi9ewkL5Fn+JdyzQYD5FYgToPNu973/ta+sPen+1e+qtIi5wdcGUHND1jqMNVHanZDiUk4pRfuVI29eIswZxttgebLd96Nj4KzBtAqoJGrEGkMbjGAHweGsGRJD/xiU8sjyN+3hkfCSrlokBRYJQUsHbQEgmbCwfEnIEeng9fO5tXNO8YIAi/iwdoqEsNnnnZcQAO0lkGzYmv/PoSGw7z3AWMh4V+/q7N8SmrDZ0t/DcfCtiVd65B/QRqXoH0yAjIsg3+VS3dMBgwv8pX7FVXXdVoEUD1jjKRLHkWYrxkuUiFyVFg3gEyzKEhAEqNgUWbuQYgSffOUsx9DU38jKwmR6bKuShQFFgZCuBVBi/AgJqQ0QteFyK1BUjc59MUQFnykT5BGq4BB3Ur6c50DMkLWJISxUnfIJ409RmkTZIm1exMIeDnfZIrSY1kGjA2h7qqfY5y5F3ltNwDSDIyAnrZwitqZaDuHWURnJWPa07WvqTOCpOjwLwCZKqpETgwj2COga9EC3RN1Ntc1XwDhsqRd+tcFCgKTC8FdPY6eGsbGeRwtRbA6Et94gn8lDLWs9WVIK5nAJJq0hQMAx5GfZZJkCLt9SgPcfUjAVP/qTV5s5nN4E8878iHRT2PPpZxMCriwca8aNJshZrDj7QdgiUf0mNnceSRRzZjIPd56EEbS1gs+VCOvOM5OllvaQ4T0CtLhclQYCIAqaoatoahITsb/VmbpNFYSGzkZfQ02HgmQ6bKtShQFFgZCujMHeYWGZmwPs09HT8+74MalSnQozZ133PxAYYBtC3zWLZSgVoSRtqkmvRcfEF8aQNUwAzg+oDTL3fecXZwXm5gTsIDSCS7s88+e8b3+2kNXiuHIG/lsYaRmtQGzgYKgJ3FrCUkhACSaxwBBNCVCQ3Mi9rJRNwKk6PAxABSlTWGNCojQo3hlFNOaSMuFmUW69LfazACVcrgO5MjXeVcFCgKDFIAfwrm8UhO1v0Z5LrvjIcF/C6QIG07FVWi/iAHwOOiDkCapwRkDpIkAxcBEElbehwTMNAx0BZSlvan9yNunrFY5bVGHrRXDAb5TPV8JpDtJfUbl95R9pSJgc6uu+7apERqZ32bTaCBJBW0vNhceE9dBe8bGABrPmrT5/1GRvVn3igwUYDs1xLz0Mfz0XrwwQc3azIeNHjU4I6qP5cRhptrA+7nV9dFgaLA6CmAJ3X4l1xySbMKZfiSAW4AxFkABrzlUDcCt34Qhw2CjZcNluPujQFO3MyJ49AfyPfSSy9tAMlAJyDVT9N18s57gNbyEmpWNhAkUGrP1GPw/dn+B8yUW3/FAIllvvtA2Xwnf9R2MyE9Mghif4EO6iC45o0I0FtyohzuVZgMBaYCIDVWjUBjcDC9tkUMpjA/YTSqAYmTEWga1GTIVrkWBYoCwyiAL4EB1Sqpz1RJljMEdDzHywbEJMgApH4gAOaZONZDGiibdmH9yYAGAAFAzwN0JDSA9IxnPKPZNPSlxMFy5l3vu2ZBC4wYDFmG4b735xqSnjQvuOCCpgHj9cd/Rkhca5Ig3/a2tzUwBvbAMHl5H41ImLwKUVOrn3sVJkOBqQHIfvUxlEXC1AxGdeYlqU0Y82hMGlwBZJ9idV0UmB4KADBGdjp51ukkMgHv6uwBQcCExIa/GekMAqT/AAQomqdkfBOJCyAKSYvUCEipdKkr9Q/eHxaUw3ue96/1L94zCNfHrEqQLo2XOUbgrvy0YpaTnHfeec0Sl+ERy1zqV0FeypIyWyajvsccc8xv0GRVylPvrB4FpgIg+1XQSNJITWpbG2nkaBL9ve99bxt1RpXRf6+uiwJFgemgAP4FeJyWA0lWm4ARcJrfA5gZ6PKgw5AFKCQE2JyBh/iWTJgv9J/KVh4BOf0BYLQEJP5fpZ90kq5z7nk34ChNRjLuCcopnjzmEgJ0LGNJspEOpce+gkHONddc0wb+DJioj+XpyMBBvjZ04KrvrLPOauVIueZSloo7GgpMFUBqHBoDCVKDwQiXX355YyDWZRguVnGYohrOaBpBpVIUGBUF8K3AuM66P/sq8hoDjPAsQxWWo8DHYSpFHEsi+kFfgP+dBe87qF6lI8jLcx65OBuxxMMz93JuEQd+vCdv8Ryucw/ICfqWufYv0lLmyy67rKltUz7l9gxg8tLD0MgcJLCUtyCu/JTbekwAaWmL9zyrMBkKTBVAhgQalOBsZPeqV72qzUdyA2V9EPUrNYrnYYS8U40pVKxzUWD+KaBD19Eb5O6xxx5tqYdBrvvAwBIKXmUAkXgs1RnI8DkqjjATMOFxcQJikSQt8tcv8NfqXcek+gHGOZyRU9cqR+ihrA4GiKRHKtgYJgWsI7ly1QdA+bIVJlWXlvkS/5lKgAwDYAiNR4Pbb7/9mlVcvO1861vfaqNJcTUgjbE/Glvi37WqXxSYCAXwoQAgGb7g19NOO205IAKzF73oRU2NKd7hhx/e+NoifXwckBxWeM/6cfC+9YWAmAGM/+IYNE8iyFsfJH99V2iRslATUwObMjJIECdl9m4GANdee21zSUcSdd9RYTIUmEqARIo0jDS0WLwZWVmvZAExvX6eY5wA5GDDnAxpK9eiwNKjQHgPQNreyvpCrtbwJp5mrGJzZIYswrHHHtsW5w9uVDAT5fQDgrRIXDYltqCeNMZwx/2UYaY0xnU/dZS+MgA/Z/dpwiwnMWCgeqYWBqTqkwF+AJKthTWkrF29636FyVBg6gBSgxACkLl23yT3gx/84LYuilqGdw0T+FFfeCfvT4aclWtRYGlTIHxL1RiAJEkCCoc1jDvttFNb9oBXzzjjjAYGXL2tDLhlQIzKjH944iGVAiOAGTCR16RCaBBwdGa4Y9kLT0AGA8oZSRdYiuPw7oUXXtimlMypAk9HhclQYOoAUiNJ0FjSONwHhBbbWjdljaTR2Cte8YqmzjES648uk0adiwJFgfmlgI4fQD75yU9uEqT5QbwJEK0L5MT8Yx/7WAM1akRzctzDATmh3wcMlrzfJ7z97W9vSyXYIwBHIWmk3xh8fz7+K6OQshrEP/vZz25LO6xtpPlSXmU1fcQCN3OWym05iP5thx12aPfno8yVx3AKTB1AKqbR1WAD19jcB5I8/FsnhLFYhPHR6JlDGJQivZtGO5wMdbcoUBQYBQXwGTC89dZbm3TH0bhdKahUI+VZ+2jXDTxuwGv9IpdyfXdrs5UlkhbjPX5OY/XuLA/p6gPmm+flK0/lcyiLg8qUVSr3cix49VMpp7lXEra1koL3SZAG/6x77WuZvrA/cOhfz0arerZ6FJhKgBxWJQ1eo9BYMJ9FtBoRDxubbrppd/HFFzdGyQR5Gmu/wQ5Lt+4VBYoCo6NABqfWQW6//fbN36hBLG81+NcB1PCvawv/ecvics7OFfg1aQyWyjOHgL8tGdlyyy27D33oQ8sB2H3pAqGZ0hlMd1T/5e1I3vK3phEdrON+17ve1QYPoYO6cLxuTjLO2r3PetUUkiUwxx13XBs4iCvdvOu6wvgpsGAAMg1Do6Oe+NnPftYYzWQ2qzD6feutApBhJO8J3sv1+MlaORQFli4F8KCNftkLAD6GdXHKjQePP/74bv/992/8yEm5eICOZXpAYCbqeY638TNpjCaJr1YL8y2sN9fHWUC84syUzrjuq7vy6aOoUm0arX/iU1qgAfPcAQyVl7N0jhL8F0ic6mV5DJC0fIXEqc7ek0aF+aHAggFI5AhzUOFoKEZd5jk4EcCEXNNxBKwhaVBphN51XaEoUBQYPwXwp7XKbAVYqdqtg/QUvrQA3jyk/0DEIn8DXE5AAgLDSukZgAUkroGgTZR522LZrh8w7SK/WIAOS2dc95RNH6X+ykhVut566zVVMwB0X7mBp/5IfIaHHJNzlee/8IEPfKABJDpZDnL++ee3Z+n/0pdJq8J4KbBgALLPGEiSxmKB8RZbbNGYgzSJ8YDkYPw0qvGSs1IvCixtCuAz4PDxj3+8qU5NfZAOzzzzzDZoxbee8dHKkIc0dNRRR7W1kOIGJIZRMc+kIQAaaUiPRTtjIFatrD955plvAFF3ZVJOax4Bn+kfBklo4ki/pPzic5+Xgb3/6qb/Yu1qCQupmmGP+Vnv9+skfoXxUmDBAGQaBskw6gaNTSO54oormsNjqhZGAUakGMQzjUrwToWiQFFg/BTAdwzpSJA2DTYHBwSjfjTvuOOOO7a1i3jYMo111123O/LII5cvfZitlNEOSc81HiedWQdpvSGQGQST2dIb5TPloeJ9/OMf34xsTj311NYPoYlD2dJviavcaMHvtOf6OWs60Y4TBQOAl73sZc3GwrsO8aRRYfwUWDAAiRQaRj9oYJjEKJTJN6fH3NE56P6pYDGKxuQ8+L603K9QFCgKjI4COnmACBhJSBwD2MEic2fUiQxTbAGlw6eO3WSTTZpHnDgND4goVfjW2eGZI+Do7L/gjKfD93knaSSe/8qZd52VJe/pV2YLSa8fxz2AxniIVEjyA3b9dFPGlN9/A3rqVEEajBC5orPbBwClcrXkQ3/mvzjeT13ai/UzFgosKIAcRgENWqM0H8EyzjYy5iJYt77mNa9plnEYIY3KOYwxLL26VxQoCqweBQDhXnvt1R100EFNqrNjh2udu6Cjpwo1/6aTJ/lZ+sEwhUEKHh0M/XvewcNC/37+e+5+zq77/6lB9Rt513UCVaYj8XN/8Jx3+/fdA4Z2LGFZa95VXgHIxE3aScNgHqgKuQc07YTCsYK1o2wtLI1BW+WVZoXxU2DBA2TAzoiPaflznvOcBpCWgFDbUHEYHWbklQboHOAcP5krh6LA0qBAAI8ExLiERMijDteQeFDnbleL/ubE+NAcJZ7lzBy/4s/wKsoF7CLZ+e+QXo7E8Z5rwXX43yDaekwg/IUvfKHtMcvy1bZT/MPycCP9AOhsX6xftuQTIARo5kFJxurmUMYE7/YPSzmAZOojnjWeDA+pn73P2vWZz3xm8xzm3QLIUHO85wUPkBp/GpZrIy7MZz7SRqwW6LIm08iMvjCpayGNdLwkrtSLAkuHAnjKmkdLNyzDII2RHgGkTh2PWtDvf9SK7jNMwa+PfOQjm4oxvBlgCSjQFt1www1t/SD1rYOFqGUlXM8x2rOkxPpCRj8AENgAoKc97WktfcY8LF+BuM2YWbzqJ1jcRkLTRwRkV/T10v8oo/pRiT784Q9vW355lqOfTu6Jf8EFFzSVM7qkbyJ9WgsJuEnYaMQQ6ZJLLmnJoIv8KoyXAgseINNQNDgNRgNjGMCCbIMNNmgLdJmQZ5GuON7RMCsUBYoCo6UAPnzta1/bPeYxj2kOuUljwOnQQw9tPIc/SZUvfOELG3iFb0l31LKcmwPWdP6eJ+BZrul45tlqq62aJax8OCtnFesATJ5tttlmDQTF5cFGnMc97nFNw0RalQ4vPoz5rDu0ywZrU/mlbwg4J/9hZ+X0jnq5vvnmm5tzdusX+VhN/+RZ6iSd/Ad8vOkYUBhY5D4HAwx1zGXSjAmA1/pR6crPuxXGS4EFD5AaigaqIbp2JiXamJQO35GGZp81I1ohTNBnwPGSulIvCix+CpB2LLVieUldaZ0jP6R9K1agaXsqNgIAAd86Lr300qb5cR+ICn3+BAhADfiQOM31nX766S0tFrAMgZYtW9b2mCSh7r333m3uzvymg2bJPZIYdSVQJEGaI33JS17SJDX9gjz7+c721cRL38O45uSTT24aK2XhZzUqYWkE/JKe/95ntGRADwDd03+RJjk/MMi/8sorW39FNW1nFHRKOZNWncdDgQUPkMPIkobHspU/QyoV6putt966MVbAMeqUpDHYgHO/zkWBosBvUiDA0JeQgONnP/vZNvcPyPBZOvo3vvGN7b97AMDuHRyUB0ACprvsskvjV+ASPpYzAAWsfJZaQkFLZF7OGksqVFtJkVIBCE89NiYG0lSUJ554YltTePXVV3df/vKXW0VscmCNIqmStx9pyyNhRX2B5/oPh6BO+huDAc7JgfHgUjPxMhhwLQ3BnCX1L287VMiC9Cxf47Rc3QwYxGcVe/TRRzf1LdpXGC8FFiVAIhkGNuIysuRAgJk0U3IjSQ6ANThx+mqKNNjxkrxSLwosHgropIEePnJ+3ete11ynAQkhBjmMTfAbgPAOuwDg5T++c9DuMJQBXB/84AcbuHonh/fEsUWW+UMOAqhlAYZr4EyqtOEwtSWJDMgwFnrTm97UpE3qVflSaVoWRh17zTXXNEDqA+RsX0g5lEmZndWbRa5N3alGASOtFWcBqdtgenk3g3T0YMxkkAGs3edOU39lEPDjH/+4DSYAp0FC6D2Ybv0fLQUWJUBqtBqYUSlGZdnKYTLTaU6DDzjggNb4MESYT4Pth8H//Wd1XRQoCvxaAgIYOmxzY9Y3shx3D3Do2K3n4xwAT7kvUBuS8gKQ+FAaDnOJljWQPsXPe8ABeHBqbsBL4pIOzdBJJ53U3M5Ze0i9ueeee3akUYvtqVBJdoCRJMv3KQMYtgmkTfOf+oqUbWW/bb/MHLAzoJGGuUSaK0AtTvoS5xz9vsc7rGtJuplfdM+7bCfsdsKAKGlRW+f9lS1rxVs1CixKgESKNEQNjbrGSMzI1NwDxqDe+cUvftGYeLCx5d1VI2m9VRRYOhTQaQMu58985jPNKwx+A2RAx/waRwEAQBz8KNhY4MADD2xx8Jv7zuJYdsHZBwkQyLqPR4Vcs1TliICEyFKV0Q2pk5GOOUbzlLbQetjDHtYkTADN0hV4Wv5FwjMfSSKNNCbvlQniKY96U4kySjIIB27Ka36UapSVroG6e4L3kod6pG6eqT9Vq/KI47/nBgPUwKRIVrruSxN9K4yfAosSIDU+h4YkYAAMaS6SdZsJfCNIqpnsU6fhJeT9/K9zUaAo8JsUwCPhGdfAkPrSwFMAHO5TdQIPnb34ec9cIKkr4OG+AHSoY/EnyZMEmgA4AmYAijEPKfG6665rUykAkYGQg+oVUIpjA2JASo3JQYF+ALgCsmiaUrbktaIzKU7Z7bjBObr+xX/lly71LQMi9/rgLl3/qVKd84wUiwb+K1No633LQLjQtO+tqSFxPA/Yrqis9XzVKbAoARI5YgWHoQSNytooqg9rrah3SJKYZlC9oqFW41v1RlVvLh0KkHjSsZP4smVVeMrehgaiQngKL5IsGdTgT4dnwEAANviUBaclGH2QidpVfODJjykgZRRE1brTTjs1gGJRmvS4tAOW+J3UaJrl3e9+d5PWlEVaKZv8A9atMEN+Ak7qCmxZrpLoHN61FptHL+CMDkkzoEdSpIZN35T8lCH3lD3pmcclRZovzbZYGfwPKV7dGiEFFiVAanBpdGiVhqdRUcfYoHWfffZp8xxMvblwwuhGvRjGkTT66YyQ7pVUUWBRUiBAE+CxHRWQDD+pND60to/VJ9DwzHsBEMY2lmdtvvnmzRqUlkd6ASbxAQ8wsXQLMFpryVDHfCPrVcZCjHmstwQsJE0q3QAa0JFejpk+hnL1D8DlnexHa8pmsHz2uGQ1b/5Tv5JyB7BJmYCf+lTIc4DPDZ+6Jh95u+YAYZtttmkWremnqm+a6auN7v6iBEjk6TeeNDIjMqoNk/XmOCy6NTIzH2FCXcPMqM37OUZH7kqpKLC4KYBndPgCICRFmf/DgwlAw4EX3Q+v5pqjAFMh9kIEkgxwgIIQ4JAHXpUHv6esUoEjoxYSHb7mHMA9qk7LOsxPSgsQeR9QCSlv+zPw45k8Ui//qUPVCwjaw1LQdwjiUb8CbeApLiBPHcWRhvlS1vR5T71Y4Jq3BN7ui4cmyuk5lbT9JS1X8TzvtozrZywUWDIAmYauoRm5abycI59wwgltXsJkvgbruUODzjEWyleiRYFFSAE8EzUhALPekUoRT+nsHXhRnNwLeHgmAB0AiR9Jgqw4bQcVoAkw+O8gTVoewn0cUOT42zpJSy5IlSRKy0KkpUzy9Z50gF/yHfY5Uh/nqI1Zq1oyJi9gC+gTUh7ATGpVd/dS7/QtVMzmKpO3skjL4J10agDhGXAEshyfAPfTTjutudITX1oVxkuBRQuQfbJp3GFCDUvjo+KxmJf0yLzapD0m4mBYwxOv/14/vbouChQFhlMA+OEbZ+pC85L4LaAIZICUtXx4LMDhHdcOYIgvWZ1SVzKswauuPZeeIE3/penAu9Y9m4ckwQEo85NAx7wmuwTxkk/ylM5MIXURxwG8SaIcqysTABTEE9J3mHdVhmx35b58AbJ0zKUCwsF3zaVSF7MERh9zqXzFWuZhYA9svR/ptyVQP2OjwKIHyDRcFMQcGpfGqqFayKsRM6GmljF5b+SnUYvn3f77Y/sKlXBRYJFQAL8EDHTuOnWdOVD0TKdvYT7Xc9SmQENw9lxcqlXSIFWl++bfSJRAhzSFdwX5eAdf5570gRbDHJay1JUBpryT/LwvAJ2ZQgBVf2Bu1BpN6lsGRIAs84EBe+nIzxyjMgNtQbnT/6QPSv7iC6GTHU3OPffcNhAwh2v9tiVpymlwoK7e6UuuLYH6GTkFFjVAYh5HP2jIGqjGqMFSzTDUMRrUMDk25rIKY3s3jdh7FYoCRYEVUyA85syikys4c2skSvxkPpATcVJS+CsgRbLiAAAQAR88Kljgj0/5IXUfDwMJeTj7L43wrHu5lkeu857ngvv9c/vTA1/xvQ9sDZ7tNUuis7TDNA3gF5J3ymI7rfvf//7NulYadh1huQrclFm9vBNaKYdn4pIsWdmShoGxNZ/uiyu4Fj9lbzfrZywUWNQAOYxiGnCYQ0PDkBq8OQWuosxfaNjUMhb+psFrzLkelm7dKwoUBX5t8BLgAi5UpazHzfebv2PdSf3JKAUoADzx8BietI7RUiz/HYDA/BwPWLQ9jFTEj0TmWpw+X7u3KsHA2bvKkTwAm11DaJgsFWF9yxLeNl4B8ICV9xxUyByQk4Y9szyDVCl95UwerqXhvvdce2bah9WqHUaSx6rUp95ZPQosKYDUUNOQnTGxESBVDkBca621mhcPIzcLfS18xrziaMh5d/VIXm8XBRY3BcJnwM8AVIfvMO+vw2cxziIT0OGvgCkwjAUoz1cBKXOHrkmgnHpzZ3fLLbc0dWOABkVdJ+9V4dU+wCo70KIi3WOPPbo73elOTWJkMMTwiOtKmiZl7gfllLcy77777m2Zif/UoeYvY7mrzimr9+UtT+phDgHMo5Iiq9/pU3f+r5ccQIbEGqiRmUbpMO9obaRRovVTxxxzTDMxNweACfoNO2nUuShQFPhtCujUAYWAzxwGme7hNWeu4fhbNa/YN4zjW5V1KF+qkR69H/CzZITrOkZ1roFYpC/59vP+7ZLNfAdYyUf59AsO6QNHEq2+gYZpww03bL5mASSvQQHIAKOzMigvVbGpG32H+9ZLpv5KIg/viytv86X82FIv2+w5dfO8wmQosGQBErkxRUKYwsiNFw9zHVRBt73tbZslXhjPuUJRoCgwOwV06qQoZ+AgAAMSJcAQzEGSwlisUsEyQOGWjvQIPP0fBAc8+41vfKM5HAeS/JMKAAYPC3h0VfjU+9JXTu7ulIvEasMDhkXKRIK0l6WBtGUj8hUCkO3Pr8rD0IYRYHY2CZim3+n3KWjCcbrlZgYJAloJoV/7Uz/zSoElBZChrIapkebwX+M1YmMOTvdvFGfRsS1oeP+nHjH6S+NOWnUuChQFfk0BnTnQCEDhF9fuOQKYeMkBRAECidEGwaxXWYdanpGlINIMz5JE8SqpUxzSHUcBVLXSC6Am/1+XbPYreQBIYGatITUu8I4q1zzkcccd1xwSmI4xBUPaS5+QOquva0GfwSOQwbb0lTv9R/4rJ9UxwyUqWbTQDyU9z8WtMBkKLEmATCNF8jAwxtIYNXhzI9k70lIQzEvtY+Gy+Ji0/24YYjKfsHItCkwXBfDIII8pIf4Kv+UMNPAPYCJB2YWDtAag7LEYXgMSDlKVJRzS4gtVfJKe/R7FxcfJX3zx+vfklbxzP2WzcJ/EuMUWWzSJFngrH+B0JvECZX5dxaHq/f73v9/Sk6789B+pE3AlETpIvelf+uVTb8Y+NoHW16QvEafC5CmwJAFykOwarsYtOGMMc4+2x2I5Z4RKiqRiwRAYQAPGYEIadftTP0WBosBKUwC/BVzwlXk6/EeKtKzC2kMSFfDDp842GABWVLBA6LDDDmtesUh2JEvxSZSC9B0BpfC6vLwP/PA0qdESL8sqaJFinOddIfz+hje8oWmWWLXe4Q53aIAa7VLAPHGBuXlL0uayZctamaVFnQpIre+0xpHLS/VQ7grTRYECyF99D406zAr4TJibZLftzhFHHNF2AqF6ZX1n1BdQFDfX0/VpqzRFgemnAL4T8BCwwk/Aw7II4PKQhzykGcNQcQIQVq4Gr8AHyAEl/GjpBf7k5YYTAuAD5AKIzuJHGvQ+iY2HGnYHpDxSKEtbcQKsytLnb0u/AJx5yHXWWae7853v3AbPgNx76iOv1AOYmys10DavKT3rHKldDQCobYF9pNXp/2JLq4QFkL9iTg0bAwkaN8bDRNQo1j7Z942JutEg6zUNGkNgnowyl1bTqdoWBVafAngHv/UDgMGPwNBSK15rrDu0Rtk0B4vzAJ94kch4m2F9zqE3K1NzeiS+j370o93NN9/c5vo4Qud0AF8b/DK24XgcmKYs+Fr6KYezkP5B32Cpyt3udre2fZatrdgqmDMFgIkvPQ4CuMrjhER5rP00yLZGkgMAwTv99Nuf+pkKChRA/goQfY0wRa418O9973vNqo4XDwt9NXSAianixioM6fbEiQAAIABJREFUMRVftApRFFhAFMBjQn+gCYiARsCP2tRyEAY5pD0Aw+EA3uTCDcDG4tXA1ebIgM+6ZmdghH/NG9odhJTJC471jOYzgSNQFJQHP8s7Z9eC/8omP6ArTfYK9rVk+W4O1SDaJtHOnrFkBYykVX0HdSrPQpFUk6585ZO8Wob1M3EKFED+an4ho8M0UGdMa7SocbOus68cxjAC9f+cc85pjDnxr1gFKAosUArgs4Cka3zoDIyAnmfAC4iR0EiAPF+95CUvaSBHYuTgmyUoSdJ8IOmQ0Ys1i4ccckh3ww03tCkSO3t4vw+s+LsvMQYU+2ekzX95eMe0yw477NDy5SnI/KUt9IDwXnvt1VSn5jVZwttVRPmpiM2x0kwZAKirdBPUu8J0UaAAcpbvocFiBg2ZVwv+Fx/72Mc21c8rX/nK5pIu8woBUw0+o9CoTmbJoh4VBYoCc6BAQASfmcuzmN/eiqQzkiVVLEtUEhxLdM/wpvgBwtmyk37yEC/v5n3/r7vuumbAx+MNEBde+9rXtjlJXriyw0ekQufBQ3oVpp8CBZCzfCONuD8faRIfA1KTcF7M0o76xnwEMMQ8DiHnWZKvR0WBosAcKYAnAy6ADJ/hUapWRj3rrrtuW594/vnnt0X65h49zzsrk11A0jnAZpAsLypZc4qkVJannguWpPDhfPDBBzf7BHHnkufKlKvizD8FCiBnoDnmyLyEM0Yw50i1Y1KeBMmB8t57792s2MwpkDYFzCTkf/tTP0WBosBqUaAPOAEvQGTe0VINRjNrrrlmU3+yEXj2s5/dwBFAiu/9fhr9wnjeD/24Br/6AJa05kCpU6+//voGmNSm+J1BEcnV/CYjIvGVbTDdfh51Pf0UKICc5RthEo0/DOaaVRp3WNZIXnTRRW0BsPkOE/HUPeI4Aq6zJF+PigJFgTlQAD8GcJxz4DW7ZpgDBIqWVOy4447d+973vsa7nos7EzgqQtJKcQyIARze9765Sy7wOCVg0e6e586ZhqFhYuXO4cCwNJN2nRcOBQogZ/hWfYZyjWHCaN/5znfagmKWa9dcc00z3TY5z1UWY4FY1GGuCkWBosBoKQDo8CO+FMz5WVNoiyxanac+9amNP12Liw+d8e9MwfOkJw7wM9AlnbIz4FPVOksWqvibVJly5MyAb6ONNmqGQtJIvzFTnnV/+ilQADnLN9LwMUkCpsEw7vO2Yf4RMFokzHpu22237V7wghc044G812e6pDPsXp7VuShQFBhOAXyHd/r849q8oH0i7YCBP601tCTEpsVUoN4TZhuwJm3xpCmuKRWWqJZzcGlnYJzBb+IDaoGVqnWNfK9++tOfbnn2y9ki1c+Co0AB5Bw/WVQvRpDx+E+9ag6SSbflHxwJ3HrrrctHoeIKABbThGHnmHVFLwosaQqEbyI9+g/I3vGOdzSAtHzDPSBpraG1jnyg4j/38F8ADR/2ASzPojrlkIAxHk8+1jeaV/Su5/J0eN97gvsA2oDZXKVyJK8l/dEWeOULIOf4AcOk5h0wiBGmzVSpeKyRMhdC9WorHKE/4gwTzjHLil4UKAr8igL4LzyI/1xb3mHfRtc0N87czzGgYyvAoAZYkSbxoHPAC3+65x0g6j5tEJUqsPvABz7QANY74grydSQNZ+9aG/mIRzyi5Z08nCssXAoUQK7Ct6NOMSoFktQwJEb7Rtqyhq9G4Gi7LEY8GMdoExNiKtcVigJFgVWjACAT8JMDD3Iczm9y7ofnfvjDH3YvfOEL2048PNrgTZJewM37gv+uSX7WMZpr9B7LWOAnT3zr7BDXO64DyLz9PPCBD2xrL3nQETwTL0e7WT8LigIFkKvwuQJyRocaP0akzuG5gyNlxgFUPEavLOkwCkYzAhW/QlGgKLBqFAhQGaQCKFMZdtrhKABweY7XHK6tj7zsssuagw/WrVSueY4vHXy4UtOyfKUJuuqqq9rANvyKZw2Igavgv7SBs7PA6TjH5Xb4YCT005/+tD2ThvyUtcLCo0AB5Cp8MwySUaSzw6Jhyz1YsbF0sxuB5SAkSa6uMGIYDsNUKAoUBeZGAXwHpICNwalrxnL3vve92/wfEAtfiuNaPLxnfpKGh7ENV3X+41Eed/hS5SHLjiCkTO/2j6SZ/PGv64Am69XNNtusu93tbtfKwg7hpS99aQNeeXtfet6psLAoUAC5Ct9rsLEbRVLrsGY1qe8AiuZBSJY2W+Z5R7yMOKXRD8U8fWrU9WKkwKAkFR7Q9tP+c+1ZnqOFd01nMIYjBQIlzsb5PbUrB5+s4UOgJH7sBNyXFqmTX2U7fFgSYosrjj+ArHTDn94NKObaf9cOaQFH19KTljWYNjE4/fTTmwQJtDlYJ8GKL27qlroOfuM8H7xf/ydHgQLIEdIe01gXaasd0qR93ux6bhNWkiS3V5gcI2QkjHkwX4WiwGKmANBKAFy0KYKBpYAn+nyALzzDPyQ7bh0NNC3Up6XBT7zlMKg54YQTmnEMI7mvf/3ry+capYfPnKO9kQ+3cJZorb322g1YPXc/HnBagX41z0kCBW7KIp51zsoG+FwzBKJWvf3tb9/ZsJmzEH6bSal2ErFFlzL0B8bSSZ3lW2F6KVAAOaJvEwbHDOYhMfFBBx3UmMi6LAzN2g5jBRzDHBmVjqgolUxRYCopoJ0HKFwDCmcDS4v97YrxoQ99qOMEnE9Ty6dIZ+b0WIiaZyQ58mZl7hHQSsNAlBWrzY9Jl+YTSYv9vOThHq3Ok570pO7AAw9s4LbLLrs0GwIASiKVVp8vlc/uGzfddFOTDqUvHepZ0itw5HqSBx/3rIV0tgbTZsmsWgGntZrANkCt3PJJXlP5wapQXQHkiBoBBjSyxARAkK9Wlq3ULEafH/7wh5vq1X1SpLgZ3Y6oCJVMUWCqKaDNAxwBMAAwEiK15J577tnWMjK4edazntWdfPLJbRMAYAg8YxDj/YAqngvI2quVmtP8P6C74IIL2jOSq3jWLN94443dlVde2TZgtsuHw5Ks97///a08DOuAW+YtlVMZGe1wTm5JF94Gfixn73rXu7Y9JwGleuBrAOxMkgWkpFVxuakz7YIGkZ7zsdDC/QLLUGR6zgWQI/wWAE9wxigY3ZY7JEpM+s53vrPtdk41ZASMKTCgM0avUBRYrBTQvrV1fMCgzRIoalOOv0lZ5gJtdMwiXLwEYBgQ7ANIrvMciO6zzz5tzp/Hm8MOO6zNDwJWz/AiTQ6H4nb8IEUyojN/yUhHOpZn2TPSNWAFhqRWXnmsh7SXo+cckptvpCV67nOf2/apVEZ87IiUqB+QlqkV8Xj74a9VOqGHeqqLeKlT6l7nyVOgAHJE36A/mtXYjUJt8IoRuarC/PavM5+CUTCedwKS/TmaERWpkikKTA0FgAXvNJZDUGtaTvHqV7+6SXz4JHN8QAJAOgdwVKIPIHkWQAnwAkbzlJdcckmT+pYtW9bA0XrGJz7xiZ0tsOzpyh0czY7tsdZZZ53Gj4x0SJ2nnnpqe4d1K1A1LaLcJEvrnW1pBTAZ+FgzaR4S7yprypjyRXp1Hyhai2kpCXWsuVMSpveEnKfmg1VBGgUKIEfcEMIcGSFS6zABd8TLv81VqXaoe8QTMNEgk+hUBu+NuLiVXFFgJBTQ7gNYAYqoEgGBgaHlDyy8SY80KOJp/4PHXNu8fANG1LX2bDXnx3kAKdXCfXOZhxxySJMYAag8qEI9J1Gec845zYeqxf6M6lihnnjiia2csSHgQIDxDcv0N77xjQ3Iw6Op8zBipmye6QOe/OQntzWT5kzNbypLpGbpJYQOeSad5Jc4dR4vBQogx0BfDRvDaNgkSc4CdA6kSSNV6ldOzbfaaqs2zyJ+GCPMks4mADqGYlaSRYGRU0A71na1fW3XMgiSGOAxtUDdqI2HR8QddsylYPJJGtInoZkX5DTcDjukvX333bepRGlzrHWkesWbvOcoG4Mg8500O9ZLMrZhkUpKtEGys/+MeMwrUr8K6pGzMgwLAbgYFVEjA/Ltt9++qZflqV9QHv0GGjoygJCHOgaEQ7+kOyzPujcaChRAjoaOy0fPksMoGrODGtVx3nnnNdWOeRJqGSoX7qzMv1ABpbF7R8AQ6URGVMRKpigwdgqk3ZMaGbcwumHgwhUbNSqpkiQUYBlFgQJMARjrkS2zetnLXtasT1m+Wrhv+RWwZInKUQC+5EWHFMmfMlWq8pEszUfaHJkUChDdB1oxFpJXeDZ8mnIM1slzcT1Xd3SQN3Bm4Uptqx+gArbUJOmhIXp6zz3n/vVgPvV/9BQogBwRTTXcfkhDjlqEKsViZt42zL0YgWIGcyM777xzY1hMIH6YImDZT7euiwLTQoFhbV7ZdP7cu1mzaEBo+QZQEF/7FgwARxWkG14BYP4DNSBpjaT5Q/OGBqQMc6hHTzrppKbuVB4Ws2uttVYzpDnjjDNaHBoe0yNAUbDGEig61A+vChnItj8z/IROAUn/Aa7/ys1RAUmXdKsv4MgAgIvjuTy8I88cskoZZsi2bo+AAgWQIyCiJDTgMEKS9F8D15A1cqoVayMxgtGiEaKRtVE2KzdMIWRk6t3BNJN2nYsCk6aAtqltpxPXbg38LJtgnUo6YrEKUARx055z7f+wYy51834ANwNMZQJw5h1JsMrzmc98poEkS9YzzzyzLeIHfCxLGe6wfAWcAAtvAsOkm/Iql/z87wfxBu/leT8NgNsvo2fooxwsZBkWmae1mwhAZ6dgSiZlEd91BhrJo87joUAB5IjoGiYflpzGrPPQuFmyMgKwZss8h/vmHx784Ad3hx9+eLOgS4ci/kxMNyyfulcUmE8KBCi0Ux2/dmu9r/W/rD8Z4mj7ngviC5HyRtXJSx8fOQJk8pI+4FEmhjl4j2GM+UZARBWL957//Oc3SVdc7ztSZtfAth/yzD3P5bui4J3UX1zvpP7uown6Sc8UjDlKfYJ+AriTKknF6Cx+6rqifOv56lGgAHL16LfCtzVmzIHJHEZ/n/vc59qWOuZDMCnGuPbaa5vRjnkT8yKYJ8zZZ6wVZlgRigLzRAHtUhtN588oxjIL6kKSo7au4+8DyjwVbbmUB1Dkj8cs3ichciSwwQYbNKC0gJ8RDhUsy1fA4/COujnGGdBQv4DfU9b0GewU7GWpzIyMOBxw5mnIfYAf2ksj77t23zlH9SGr9hULIFeNbiv9VjqRvOA/ZiA9MiXHoFSvOhKuqUzYmweJUUA17FCuztNEgX671nZZgJrz04lb1whkSJC2feJlZlIhAAc8LNHgtENZrYe09Io2B3Da6NxcpLlSwA5Y+nUcd/mTV/g9Z+VHy1/+8pfN4Ig0bJkYS107kxx//PHNUjgD6gwGDAi8py7SCOCPux6LLf0CyHn+ohgPszouvfTSZlm3//77t05FR4OJOVLmuUMcjTwB04Rxcq/ORYFJUUBb1DEzQOONhlEOV2865Kxz5J6NunASIeAIHJTRMivli+UqP6p8sgJF9/ChXXfwHT71ftKYr/InX/nJG/+nPAE59wEm+wXO0PmqNdfKGYkBCVD0nnjS66c5X/VYLPkUQM7jl9ShaKwaugasEzEnwsT8qKOOav8xKitXnQ3/kjog8b1X4DiPH6uyWiEFtEttksWqJRSkM4M8gKN9M3ShEmQEM9+hz2vKSStz6KGHNn+ovPjwzUqKNB/JylYZDVh517H8Qsic4LjKDsCUs3/080pfkXO/TuK5j97WZtJI8fPM+tbyGveVP5Klc4W5U6AAcu40G9kbGrgJeUzJtyMPIxqyDkZDZ8l23XXXDVW3YpYKRYFJUSCdNfWpBe9UfqYF3Gfs4syilVs5u2vMd0j5SI7f/OY3m/qXFStXcuZJzfkDzHvd617NaTmDGNa3LEc5NqB2FYDYOINy9g/873BvMPTvKRfJMnHRXuCAndrYPCWANDjwLKrWwTTr/+wUKICcnT4jfRpGkKhrQKiBm2znfoqPVoxr5K1zsWbLnA5VisYOUMOwGX2OtICVWFFgCAUG26225wA+nIybEmBspsMWN23U8gRLFkg04wx9XkjeeAXP4CVzdnbqICny5mO/xo985CMd362kSJ5z+GHlQs78KZC05IM2J1JynwbjqkvyCA1Tl+SX5/1+wDP3U059imUq1ldTe5tvJU32aSR+Qv869+r8awoUQP6aFvN2pbGmQQNIgUsu6yGNblkDisOqTkM3Co/nDw2apw/nfqOXRjX2efuESyqjtFWdr85Zh+ts70bLECzGd88BJAXvkMI233zz1p7HSTB8oDyCMlDv4gVlAHw2NQaOrFetKzRPZ4cPUhUp0uJ8YGg+ktcdnq0s/bCOU7ykJ59Bnht1vYbx9YryyDvKps6+E6k566vRJN8w5XdGs+ozZqduAeTs9BnbUw1WyFmD5bNVh2LS3ehbA2Y0wA0VRwIkTfeMioeFauzDqFL3RkWBqE51uACF0Yv2ygpb+zXYiyoPCHFQ7rmB3jhDAIxEiweAtDJSN3ISwOBNHOCHh0iW/uO9d73rXW2dofqQKrmkw1922+A/mR0AbY50Heo57jBXPu7HVyf1Vz/rJk3TWHbDqEffke+jHul7xl2fhZx+AeSEvp7GqpE6NHCNFeNefPHFzdMOjztc0Wns5k622267Nto1IZ/3BoveZ5TBZ/W/KLCqFEj79L4OVudrb1OGZM7aqEO79Nycl7lzPk5t70QKG2dQHvkLeIgExQjHXKKdPFIm8YC48lGl/vjHP27Srf0d8ZoBAMfhyi4d/lht5GwA0KfBOOsyU9rpJ2Z6nvv6FXUD9urD8GjDDTds23sxCsz3E1/cAslQbvi5AHI4XcZ6V8PEcA7XCZgXY1JZrbHGGm2NE2Z239zkne9857YnnXveDdO4rlAUGCcFdKQOQKTjtX0UC1D3tEPg4+w5dSbpEfCYz9N+xx10/CQ/i+sB2w477NAsO+WLp/CIMjo7LIlgYGQrKxoaxnI33XRTA1fgIj1anG233bZJnt6ZTzBJOdG0f7g/WxCX9M6TkcEBqfrggw9uO5boQwRxcp7POrVMF9hPAeQEPlgauYbqOgyQRktK1KiN0G2ySl2EYVkD8r5jLkXD1/Gkg0qaE6hOZbnIKaBtOYCfw1rdjTbaqLv88stb+/Ms0og2SW1p6QdHGCS5/iBwHKQCgA5GN9w1klwZtoWvlC9AkGuGO0ARGAJ73q0YGim/AYB6Krd5SUY8/nsXH44zyMOh7PIPXXPt/mDIO+67Fte+kwcccECrlzqRhHkL4lovaYgnfoWZKVAAOTNtxv6k3zjTyDVeI11zJfa023TTTdtol9rI/bPOOqvNjRih9+dGklbSGXvhK4NFR4G0oX7F3NMmHSQ0oGLjYPOPBnKAJ5KZOO6xEjWIM8AjTQac+umuzrWOvR+kb+0ir1THHXdcc3NHigqoia9sqQt1qnhUvzYN2GOPPZoDAc7CAa30vKNedv6QrrpLwz3ncQb5yyPlAHDy7ddjtvzV0zvmXK2N9B4PPDaSPvroo5eDfL7bbGkt9WcFkFPUAsLEYQQjWmoq1mhGhCbaMbVRMvN5KhTv6AiEqF6HdXRTVM0qypRSYFi76d9zzem33WgYvvgPUARtUIfOAptxCOmF1EL7obMeRUhZctb28Qq+sG5YnoCA6tTGyQBAEMdBMlSWLPXwnKWq5RDmHvGbeAEjdWI4Zx6VulX9xh1SN3RFu3POOadZsCtTgDNxZipL6osuXNGpm8E0P89bbLHFctXzfNRnpjIulPsFkFP2pTRuDGBCHYN+7GMfa+vMWLYa+QJIk/CY2jzLDTfc0BiH6sd73k/wP0fu1bkoMBMFtJXB4F6ASBsDejQbOtw+mLjWNm0MTtW51VZbNe80eXcw3VX9nzJKF9jJF49wtsFgiDcfy6AATADS2X8HALeEg4Rp0GntMT+slntE/Sh+6s2a1bQGQ535AhR0lpd5Usu+0FM9Hak/+vWvB+kpDTQiwXPGDvytiWTVau0qWqDfbGkMprkU/xdATtlX13AxgoBRNWIqq/XXX78ZPGAW8yZRwfIAggm8hyE0+GHHlFWzijOFFBjWWbqnXTmoIO2bSHOhXQYw0vbM+7Ga5JHG1ID9GHXUowzhDYNHZXI252i944tf/OK2PIPkpUwByLzzhS98oc3tG2CKw72jZSikNI4EpCWoW4JlVrQ4AU/3h9Ep8Vf3HFobgPBOZMNp9ga5309/pnKI65k6+kYGAECRhskUjQ0RvvrVr7Y0Z0qjn89Svi6AnKKvnxEixtbIc6YaMmdii55jjjmmzbFQJVFlWeRMuqRSyqhROmGSYoAp+sBTXpRhbcU97Yl0aMG9HTtYiup4PQtQaaukLHOBpMxdd921vePdAOkoqi89AQAKtCry4q3HRsgkQwCnXPJ1pmoE3NSplnDgEwZGdvMwx0g9y1FHgnfkIx2gz4jHkpBR1iN5DZ7RNOBNlc39pHuOfhh2L8/xfr4POgFb6meStjli9WFdnCmZvFfn36ZAAeRv02SidzTuPrilA8L4Gvkmm2zSLFtJksy2v/GNbzTfixwJWOyMqXVWYZCJVqYyX1AUGOyEFd49gEI1yam++Sz/3ddOAYmzzlbbI3GJx+G+eILnowryk3f4guqQO0Zefcy3KYN85QloAB+VsGUPvMsoJwnY0g77LAJWkiR+wTdCeAe4sG61nIWRjrzzbFT1GUxH3WiIOH+n/jXokO9gEM8xU1AXNFJe9KCFImlTP9t8ed11122DmWFpz5TmUrxfALkAvrrGjuGNlo3OqYUwEUMJJvWkSUY7VExG+hjDOxgogLkAqllFnAIKpN0AF0H7cU36InFxeajTdT+hD1oksnXWWacZgoijDYo/qoAP5JdyUvvyWUw6ApbaPomRoQ61ojIzyjF4/PnPf96WSlH/msMXzy4f5vqUM/VI+vLyDLi6F9AdVV3kKU1B+g62BwD/dre7XZsXTblWJc/+d2J9zNesjZa50gPAlrqgV/JwdvS/7arku5jeKYBcAF8TE2nIAsMCKhKedRgQWG/GOIEKiTGB0SGQxBwYLo1/AVSzijgFFNBmBG0uHSZthXm4M888s0lUOnHP07k761S1O9KaZSDASMjgrv0ZwY8yyS8AyUiNutCcPCnPdASe2GmnnZrqlASovCRJxjm8yrDkjG9jEi+pKvyiiHjNoU6kUjtjpK7hwxFUpSURYFQvEisA23jjjZtTEPVIvnPJT1pCvp9rddFPHHHEEW2wYMrGrh/mY+Ux+E7awVzyXYxxCyAX0FelKtEJGCnzE6mBa9gWblvzRF1k3oJ0iZE9w/iOCkWBFVEgHWU65UgS1gpS9wFKVqraoTaVeLkGNg984APbIE1nn/aXzndF+a/oedJxDkBSm9pTFV8wZrEsg9R4zTXXNK84VKqMVB70oAe1DZFJjoxflFk6yqmefSD3X90AK3d1XD0CDPfEG2WQv5CyWIqx9tprNz5mdZp6rk6eKXs0AQx0fEsWraZp0CLAH2DMt1+dfBfDuwWQC+ArarRhTOf4mjQStiEtZ9BGudStdm/nwYRqSOeAqdPoF0BVq4gTpIB2oqPWZtJuGOQwBKO+p6rUoYqnU01IJ27TYQM3BmM64wCZtEYRpJcgT+VgPEPKA9rKSh3KSTkAMF/KsIhfY5a1pMwvfelLzZiH1AgEABRwCGBKP3U36PS++X95O0YNHOikHg7zjaRvAGnwSy2csqTeK3tW1tBd2urovzqx+HVtTpJdgzIEqMXtv7uy+S3WeAWQC+DLarBCOh1MarRsDsF2Qzoucwwnn3xyA0abwlLDUj8BU42+QlFgRRTQztI56lCBkM7UnB3wM9fHIjLShvQAi86WSpVHGvNc2qfDfceogrTCCwFIfKBs5hMdljFwDWd5xGmnndZZ2hGrWwNGkiYQJUV5VzqOlDc08I7Bp4Gn+ibfPF/dOkkn9MGfrrmSXG+99brb3OY2bUCifKMK0ldHoMvLEVpxA0jip5Hql2VUdRxV2SeZTgHkJKm/knlrvBmx52zEx7uH+RdzFszW/WeRRyVkrsFk/y233LJ8dBgmT7bSrVAU6FNAm9BhAxIgwYLTnqSsUmkoPEuHrj0FWDj9BqQA1b1ILKPsbJOWcwAcHzBWs+TJVlWAEUiaYzQ4FDcgrm7AkJtGoGrACSjUVTqpl7M5S67ySKLJL/zi/+qGlEs6kSKpc+9whzt0a665ZgOxAHN4fmXz7JdPXfJf+aVlCoYmgHN2Dh1OPPHE5ZK0OOLnnZXNc7HGK4BcoF9WQ9YRUTEZtdvVnWqJ9d4hhxyy3PqO0cQPfvCD5SPEMICOYq6Mt0BJVcWeAwV0jGlb1HH3uc99mtoeQALMtJt+J0q9aWBGGrHsKEAzh2xXKqo85a98mQdl2U1ipEa98MILm3oX4ImXsvbLIw1SFO0LEP3EJz7RLGDdxw/iMvRRHxa5GQAoYOrsvLpBGuoRWquHuVMSJJBEe3HUYVRBeupI1WyAQOqnOueRi1pcSJlGUcdRlXuS6RRATpL6q5F3GEwS2bmdIYIOitSo4TNg4FTaPAPG16lgAO/6X6Eo0KeAtiEABeGwww5rnaf5bJKhkEFV2p//mTuzFpfUljbWXhjTj/xJXqRHXnBoT4CJNi44BxjFHQyf/OQnO1MRBo8MY6hc1YXUZk4f4JIqpRm6SGdYWoNpz+W/MsrXxsyWXtz97ndvDkFIroJvMao85SMtdaJl0lewhJevpWIGFoL6Vv/QSNEVQP4/HRbkr8aOgTC1Bm6ZB4nRaFDDx/jUKe7pRBgmeMeBCbxXoSgQCmgXgjOQYDBivspcnuUSOtg+WOho3bMG0fZXOnn/xxUC3MonH/nzDKNdA0tlc89zHbyzox/E8S4wsDk5a1dzcCRG6lagaC7Q/Jx4faAYll4/7VW5lr4yW7NJRX2Pe9yjaYP6vm5XJd1h76T8zuhmYE0rwBOR/ENXdeiYAAAgAElEQVS7QZoNS2up3CuAXKBfGqOHeY2WdR7mIVkR7r///s3yjlstbrRY8O22227N/D4j6wLHBfrhx1hsgJB2xaWhARcAocIEHlSPnqcDTfszEOMTmOouz8ZRzKTt7GB0oz271v5Jr9p1ns9UBkDg8L7dSUhSwILqlc9VgwLXwFJaCeo+6oDmAJ6BE2thPpef8YxnNN4OYI0yT2n6bujkm6KbtdMGQ5a1eKZM/XqPMv+FllYB5EL7YkPKG0bSwM2t3Ote92o+W40OrQsjAQBLviqppDB+OsMhydWtJUqBAA3AMJ9ocKXzBJLAISo4nai47gGS7bffvjvyyCOXD9jGRT6dujy19wTlSFt27Qhw9+PkWZ4H7Dg3AJKxcGVsZD4wPJU0nPNO/97qXsuHmteuHTZnvv3tb99Uv9JVr1GHfLsAoTPnI5aMcUwgT/fGUddR12U+0iuAnA8qjzEPDC+E8XVYBx98cPPYz2jBKNFCbyBJBcaxOcMEjIkZ0nGEGamqKiw9CqQdGTxZ2mD5EFWjDXbjmSnApK3oQHWkrCHtDsHlW6S3cVFPfkLK6jodedpx8u7Hyb3+u94TR30BBGcbJGSeZdxPXsPe7d9bnWv5KAcLXJ5/li1b1tz0xfVdypg6rk5e/XeTr3TVkwTLWpkbS6rd9AX9d5bqdQHkIvryGr5OitoJENqaiOsqIKmjA5S87TDc4fUkHV06hDBizouINFWVAQr45o5+8N0tiqfuMy9F28DJNWDUrrQX1zpV16QunTo3dN4DNtPedlK+1N8ZMJqjt2Yy/JPnffqM+jr052jdFAhXeBy9sx/wTFkd4wQs6avzCSec0N3lLndpNAiNRl3fhZheAeRC/GozlBlT6bx0XKzyqL6obqzpYtLNbJ3xgU7PvJFOTYcXySDnYaPnGbKs2wuQAoOdf/7rGA2grP+jkrf5sDm5dNaqqm3QMgAV+5DybcqRuUGZjnbaO9fUNXXR5t0zFXHKKacsn37o13mcn1g+JHXu7wDkXe9617bFVvLPeVxl8L0cQJl6l/bAQKfC/1OgAHIRtQTM5GCsYPKd5aH1kVQn1CjmVl7+8pe3OSWGCEb/VLI6NkzhXWHaO7lF9MkmXpX+YEgb4C3nCU94QgM/A6oYdSkoSUYboaLXljjIX2ONNborr7xy+aa+E6/QShRAPdRbXbR919TI5557buMdSfTpshJJrnIU+Zj+MIcLINkPmJMU8KEyhi9XOZNZXpQHelgmw/sWpxA0TsK4856lWFPzqAByaj7F6hdEg44U6Iz5WbbyzcqMmzs6EgGrRKbtfFhiTuDp3XSABZCr/y2mOYV0uL5z2otrawMtNSA5Ms4xN9ZvUzpz7s/s6qEdHXrooU2C1KGTKsVdCG1HPfoAqNwOfBC+mY/vF3pR76J39ns1DyqkXOMsi+9lMI0eXFXaSo+RVsrmueulGgogF9GX15A19Jw1fKowahOqG4BIumTS7jrGCdaDkRRIEDqIfuexiMhTVRmgQNqJ24wzAJ7lGry4UJtqK/1Bk85S58kLi06c+p7EGevWxB3IZmr/qn8OhdT21THHOAvez5dTD/YB++23XxugkOY8F5RlnCF1lR/HIqxZaQ781w94nrKMsxzTmnYB5LR+mdUsl0aN4c1HGvXr/HjpMAcJCL/yla801SuQZMBjXlIHN2jFKp2lzCCr+Rmm8vV8T21DIDlpD9bQ8mfKVymXhdpNOkltQ7vhzpBRiTnuTTbZpLWnAMtUVnYBFIrVOUcfPBHxamM9aQap8wVQyY8vWz6cM6eMfL59ni8Aco60iAWQIyXndCWGuTRukqRRqdE+y9ZPfepTTTqw5oujYqo022SxeBUyL9NninSq01XDKs3qUCDtw5nbNQBpftHGuuam3dcGMkhybT/IG2+8sRm1WCtJ6hBPEC/Xq1OupfQu/gSQvBHZZWSDDTbo7AMZ3psPeuY7o7t+wLIdruiies33zzdeSt+nAHKJfG0jQuqxRz/60d12223XLFsxIUagbgWa5iNJDhgCc5AY0uk5V1g8FPA9ff+o4XfccccmPZqb5p7Q83z7dNLaAw871Ku0Dpxcu+d5P/7iodL4a4J+NnHGf4cffnhbamHPSvQUQvtxlkReaQuWutAMcDiibQDwfhlSrnGWZ5rSLoCcpq8xprJo4AE8EoJ5Ju6s7ARi/oinFHtK6hgZDHCUTIrEDN7FJBUWHwUy38walWaBkQ5LTs7uffcc2oGDYY7t1ahkbSRse6Z0mDrYXC8+So2vRviMWpvFucGH3TwssUmYD7r6zr4dlbvlYNbA2rCZJy5hPsqQ+k7buQBy2r7IiMuj4WMAAQP4z6OOrXXMS1oLCQB1jqwTP/3pT3fnnHNOc1Y92EFWBzjijzOh5PIdnaneH/WoRzXAMzAySNIeYpUqjkNbiFNvAGlJAAffnkXKALgVVp4CoautxBjOMabjKMC+mwGt+aBpBsAG0TRNb3nLW9oes6RaId935Wu2eGIWQC6eb9lqgulmCp5R6ej8zDVYw8a0O9aKVDtGstyHcVOXHQWkt5RHkTPRc6Hf900Zh6y11lptOyvtQmdIqhF0ljHAEdc82RlnnNF2gnjoQx/aBlTiJb44FVaOAgFHsfGgwQlgWmeddZrbO7QEkvMBkPLJd5cfDYKlYayVlRNwirMUQwHkEvnqGriGjvF0hFQp1kYy6+bJQycHKAEo60XWrtRtpAXvei8doP+OPpMvETIu+Gr6Zjl8b5trAzt7OuoctZFIDOIJOZuvBqhUrdtuu21zFJDnSTNxFzyh5qkCeAqfmfvncIEEycuVb4GWznhtnEE+vrmA/w2M7Ahkc4N+/uH/cZZl2tIugJy2LzKm8mCyMEFGhCTEfffdt7vvfe/bjAQwhzgYJCAJPMNAmCWdZwBScT0fdoypKpXsalDAd9LROX/ve9/rttpqq7ZIPd/Vs/63zfd1j4cV81KWIWy99dZtuYfniS9N1xXmRgFWw9z2GYBYigWYMh3iu4wbmOTh2wl4XLDDCStlAyf5J85S+74FkK05LI2fdI5qG8Zj2coa0TwU830M4BmQBKBnnXVWm7MkdfY7Qmnk/9Kg3uKopTagE9Tp8d5iz0cqNf/TSQ7WtP+daRo4n3jsYx/b5iTFzbveF7fCylEg9LauFEDiRZ6MuIfk+i7fatw07X8/bUO+N910Uxs8kW4NqB0p78rVbnHEKoBcHN9xhbXICNBZ0NgxHuBjoEMiIE2ybNUJiocpqNOskaNaS8cahpXGUmSaFRJ7iiPkuzPO4czeco3+4GdY0fONtQmdqXagrXAWoC04EifnYenUvd+mAFpyFP7tb3+7rX/Eh7xeke7RFQ/OR8g3zPdj3U7NauBMc+C5QfNSCwWQS+SLhwFUV0fXB0pMwTDH6NViZZKje5iX2tVo8rjjjmuMbN5KkJ4gjuthR4tQP1NFgXxX7gUt7eAkQiec9uG5Y1jQZnxvAyjLgb72ta+1diR+2sOw9+rezBQAOozj0JL6mrPwtddeuxlEoXOku5lTWP0nvp18+sF3vuiii9oOHwz3EmemttF/dzFdF0Aupq+5grro4AYbuIbvMOfBmm6jjTZqlorUaOYhMSkn53Z4cDAgYG1n93Fm4N///vcbY4snnYBvAFiR3O/n2//fv7+C4tfjVaAA+vZp7JqXHBLgU57ylGas5Xs4dJL5NuL1r2Wt07SO9oYbbmjqWR2ne761uP2QPHPuP6vrX8/bG5zwRkQax3N29ACQF1xwQeM9dEXjcQbfKACZ7yhPS0/WX3/9xu+ZE11q37MAcpwtbwGkrcHr4DBILFtJFjbLdR+j8K6xzTbbNDdjNlo24rWWEqCSOLmwo6qzfss8CmANY0tDHskn186CM3CtMB4K+A6huW8hkBpZL7NUdk8n7cg3oTXwTfz3vkM8Z/sW8rrziEc8oqneE8f7VLX53tpT8h13Bz8eys1PqmhkAMo7EZq/7nWv69Zcc80moee75Bv2SxTa9u+N6jrfFGDvtdde3dOf/vQG3rk/qnwWQjoFkAvhK42xjBq9kE4QUzzzmc9s3nZICzo9jGq3AS7q+I3kw9V96qFbb721rZ3kZIB3lZ133rl73vOe10bAVLNGnhhfXJ2mtHSi6ZiT/xiruKSTjmSQzha9DWy4HDTP5Ls7fJ+Am/9CvpOze4BTh+lbaw/SoKrVZtJ55l355npJf4CVqDz+CO1t3Awg8ZLv48izQV4Z/L8SWa1UlP63VB6WzuZE05ZWKpFFEqkAcpF8yFWthkbvwBQY0WjfomWdH0tFuzxgYPOSrFxtzfPwhz+8SY6cm5uT9E7AkrqI2bo9J7mz42eSEVCAVh5heB2od8fF6KtKk8X0Hhqjb76xeS6uxFgnuw84hf638H1885tvvrkNcDzz/Ry+PycTvjvry913372tpbSOL5Kn+MlPHv5X+E0K5Ju4iwfQHJ1oaBjp4DFSpcEHgyr09Nx7Cf3r3BvFOd9MG+Bpa6eddmraobSVUeSxUNIogFwoX2pM5QzT6dyEmJebf+DV35osDAMAgSRmBpS2xNl4442bH0kqIgwsUK+KI5jr4gjdLhH2FzQK1RF4rrMdF4O3zOunUaDfsfrWtjWztMMmx/7P1On95Cc/6Q466KD2/a+66qr27WkDgCNH1jrPH/3oR02CpIKzNIE1pjSFtCvfOO2hPsmvKRAQcgdP4D80YzHKVzJbAFvRobH9OcXJoCOpjIt/UrbwNI0Qt5RLMRRALsWvPlBnjKATcw6z+s+1mM6UWhXYea5jxMxGtZZ/mK/kl5PazlouQOpdHa/4DoDKsTUjH8YHOl9BHMwozwrjoYBON9/VN9xzzz3brhEkwHTK6XydxXffc27lzC1Tm/vGNtK1Ls78tG9M/cdI65RTTmlGP1TwwNNSId9VW3F2VPhtCoQuaO7w3zc48MADu3XXXbfN+XPKgO7one+T9347xdHckX7K48zt5IMe9KDGt/4vpVAAuZS+9gx1HWQ4TKDzI+XZ6cEmrrbCou7R2WJWB6MeDpZ1pFRvu+yyS9tf0sJznaO4ztIhfZ599tnNrdmTnvSk5jXEs8x9KZqOWVlSnqXGjDN8ntW6rVNFT9IfR/Qbbrhh9/GPf7x9v9A736n/nyRz2GGHtUGP72kwxCWdrZBoAyxLCMiScqjVdexAcr/99muWmdI1CEoZ/BcWKnAqf9pn2qhz2mnq1z/n2bCPmGdJC13Qy6bUANIGylw9MtwxEEne4o07JC987lvTJvGuk/vK3r8ed3kmlX4B5KQoP8X5YkBMrlPFIBiUFau5RCNaZv42Wrbkg2qNlEnNxjXVHe94x9ZJWidnGQhpguQCCHXAlgZY62WOhScX6QFjna0gjpBOtf2pn1WmgI7M90RX2ymRBs1Doq9vAgh9Ax1xBis6Pt/9bW97W7N09W3Et5EvCfEhD3lIWzN77LHHNhWggZN0qATNbdIUmJvkOk3eaU/alHSFhfJ90WK24Dkaq0/qpL59ABn2fsAFzQX/TU8445ktt9yyHVy90boYoCZ98fvXw9IfxT11EEy77Lbbbk3Nqk/Ifc9Sj1HkN41pFEBO41eZcJnC8Do04KUDtCUP6YBEaf2cztP8pA6X9MCq8aSTTmrSBTUeQxBeOHSU5jCo4ahsdbI6ZNZx++yzTzt0pPLC9DpQo2hBR1Nh9SjgW6KpTpfR1eWXX97+k/7f//73t2+j8/MtjzjiiLbVmaU6rJMt52GII0jDoUP//Oc/3wZNJEpgSYNAipQX8OUVhmqWcQcrV9oDWgTv61Cdk2a7WCA/6pcjYK8+gvo5DETUT1vWfvN8WBU9Cyg6G2CgLxA64IADmhR59dVXN0fmvpFpDe8og/zHHdRBXuqDfw2EGW7hz5RhPoB63PWcLf0CyNmos0SfYUJMESZABvOGgNHIltn3CSec0DpT5wSM3e8gjDyNgHWyNmTWCe+xxx4dyQNQkjrMaXF5ZicD72aEivEqrD4FfEuHdaskdx0xlRlHAXe7292alfF5553XVKjWOPq27lOXv/Wtb21r9DJ4iSSpVL6Pb7hs2bJugw02aBIGjUHajLikSXPU9hcVdKy+b95vFwvgJ3VyFsIfeAQIRgp0Fsc99FnRAC8gJx0DDBsDhD5vf/vbmzbGBtUGKzQ0VK+C+MowH0FeymmwdL/73a+p5+XrXtpF6jEf5ZnvPAog55viCyA/TJ6OFZPnYK2qk2VlZx5RZ8pfI2nQ8g5qujCOd6STDkPnqNNkyCM+9azJf6bsrPRInKTSfieczmIBkGxqi4j+BiKMpAxMzAOT7Ax2jjzyyCbhWdZDS2CA4ntcccUVTQK01MeACJgayPjGOmvxAIDO0/e67rrrmgMBAx3qeNKpOL45YKZJsOzHkoGAiecLIeADbTqA5Px/7N13uHVFdT9wu4K9oCIKCNi7xoD4wwelKVFBY0OJJYIFGw9RsMRuhNg1AsGuRLGLFJXYUAHFEhXBgC0WEHuP+t/+PZ/R783mcN/73nLuPfucs+Z59tn7zJ6yZs3e6ztrzZrZeKrtBoC8vbXxda97XUfbAyQO/NHG5FusrQFQaVlRot0bjAJIX9mxKYP9kG37pv9oqQEk/F2vkHYr37WBFdN5BsRpF9rxY1ZDAeSs9uwa2+XBD9jl7IW2LpJpzcjWRgLc/glbQtAoF+jZIEAeL07KIVD891KLM2K2v6uv0hMIzHr7779/EzbSRQivsRlzkx3PFjvwm/A1V8zEyvkDiOE/YYv3nHCYQeUn+PQPgcicxmPVxhG3vOUtu+2337454nzkIx9pgKpPla+v5ZeWhUA96lS+NOasgScTrnQBT/eGHvIco9O1KQfPNwDzDjAlG/BlUwwOUJyUaOn4uBSI4bX7+K48A0VxdqQChgahtHn8NrjgBGWQapCh7IDUevMw/cXvwDtu4IoX6p+GPlwLfwog18K9OcvrRSH0zENe61rXanNPBKk4C8W95HYA4dBjziLrHgGrF8kLlVEzweBF43zACcFLb8N0O7XwtlSXPA4vozrk35zAyYsbsEgXyetIyP+ck76fJmmn5Yx2fMRj7cEzGt5TnvKU7spXvnJzrGH2pPm4Fx6HZ31eEMB4j9/KtHsSoe1rE9tss0239957N69G2mIEtnJooDRTWqqt7KKZ0lI9GzxgzVMq16FO9DqHjpzTJ/jv/rhC2jlarvoE5zyzznhoQGGqwOACKHoHMh+nHfiFbjw17+q59nzjjTj3+zxFg3qc8QjPzN2qz0esDTTVseWWWzbtG13PeMYzupNOOqnVo6z1DH361IVWlgIfysYL/0OD61kNBZCz2rPr0C4CgDBgZrOsg8u/eZGAH0FgJG3DZUB32GGHNQceICoQFgG8CBVmWSY9c5WEA1OSuTBmKmkdEVb5v6mmeVEd6PTyOgv9l330v3uOWQgRWgYYhJl+YtK27yqtn2aiD2hB+gpf0w94FT6EX+EjXoqTx6CHuZWD1S1ucYtul112aQMl85HK0kcEPkFO2zjiiCMaaCoDSNKCLB/R3+LQkLrRL79y0k/SCOLdH0dQX8rSrhyJd0YXIGc2tcTFOl9OTfhJCw6doR+d8nnW8YhWCShpz/pBfe5rm/rkF/LOAEiAyhxu/pelJp8ko33jKYCmtUbbTxvGwZPFykBn2qUufWzgY07ZvYT1piP1TOJcADkJrk9pnV7wCCwmNEs1TNx7mY2yvfxeeF6qRsEEMrA0P5P5SWloLwJhHWHYB09fCiEIvIQEkECg5KXMud3o/aQ8NCYNmh1e4sTJ0r/uFTG1l/ij3Xhv3souR4Surf7MIxKu7hO0af/meOC+I/2lbyPYxTGxA0HaqTo4mTABCvqVdmkHFvPU+l8epsLszKK/gIK+yfOjPn0uXl36TrpxhdE2q1s9Bg19uoGh+XbOZUBRkA6dzg50oU+cNNYJ2n2I57Z227OW5zYvb/OI2o8v8qBD3dpqB6LXvva17b+t5vAH0FpWxay51VZbtQEH3irbxwPyHjbC1vEHjQ70aifv2vvd736tf7RllJ/rSMpEii6AnAjbp7dSgsHLyTnBSw0IzT8CSYEQ9eLYPceck5fcEpC4+7sn9F885aVcwoNwoKUwZVmeECHkZVT+UiEvc9Ioux8XwdSvP2mn/Yy32mt96TWucY12MIVzsiHcCGN8xs/wBD9ybKr90ipXfvx3uHbQeMyRMZ9aB8uRg9MKIAQIzLnmqWmc9u4VxzQZkKQlAcM8N87ASn3oyvOS/5uicaXxysYL5Tur1/Z75lFNDzBxWpwvXsjgS1rren2eCvAxufqijQEdr1/ae9okj/QGDkzLnmvl4Vt47ux+PIANOgxmgKFtGn15hVnbvsY0UaZb71XoWmm7V5IebULOnhufuuM8ZECgT/r3258Z+ymAnLEOXe/m5MUEkAQxQchJh2MCweDlJ/C8zAQiBw9mplNPPbX995IRGg7BSxaBLS7C0tkWW0bQ6nBvVFj2hYzrUdAjkJSP5v7LnLTqzcvvHDrWm4frVX4EMqcbDh42bbjCFa7Q5gwNOJjmaJDamqNPS+Jyzj19GpAkGAGHusQBPGU6OJnQLiz7AIiEvbzueQZ40jLJizOPxSmLudWzon+U5WBxMKiSRr+P0hO6Vnvul6fPOSqxWljPSeOj+aJDyHPnWWL2Z24FVgYEAIwJFj/c98z2n0E80lZ8N9iznCbgH9o9mzRNGqb0BhfS0yo9+waI+HbNa16zaY7MnJZLef+0Y72CsrVFwKOcrYHlOETDdl+63G+JZuynAHLGOnQ9mxOQiVCxVIPp7Mwzz2x7NZqXNG9DqEjjbE7x0EMPbSNiggfIyUMoEYA0kAgjwkSQj8Dh8MHxR7nqkNYL6X5fEInLi0rIEDb5/BaTFPC2n6ylBuaSgAXzL49Dzic8Ds2dEkboU9a0BX0TkEE/cx/T541udKPu+te/fvvwLS3H3F8GIfiNl9osrz6TN4LPdXjhvnTAjPZkA3NOJTRT8fpQWe5brmMDAZqGzSP0ozqz/hL4GUzRLgGNNJkXVRZnLaY8fUdjMtDSP9IDW32srtAbGiPQ9V3iXPfjtUO71eMZsziftqhOz5cylS+d5xQQ0Zo8Q0zXtEVaJvrVERqcc6388DD8zdy8AUbakDoAJ1oAo7lbvOC4BoQMEm055xNYABOg2s3IPKCy+21FT7+t7eYafsJDdAp4hkfmtNGg79WX+2uoarBZCyAH2zXDIywCwIvpRbVEw4jbtVG/uRKjcCYocV6o3OOskXkoI3HapyOaQoSNVhNQRuXyOKRhVrJVWlzelYseL2jokhcAAMMtttiira20yTIhzGnIuj5rN31dxNyp/SXNnXGC2HPPPdsXSpiGIyAj5IbXE5emCP/wm3DGD3PE+sPyDFoP0yctZNddd21f9CCEpQdcnGc4lowKvAhgZQoEISBUvgEOs6C+Mcgg3GPGdV8fGxgBaJoipyF1AQjmRqZJ6W09aA2sAQ3h6xnRt860FeBhHtBcKm3T+UlPelJ79pg0gQgPavXLh1Z0oj2CGz3uAaZcazOrBpOogZv70uOJtjGfmjv1zHie/JenzyNlOTwn8ntutMEzaNkS+vGIlmlAZoDi4+LONGl5rC31zKlXmw0EBfxhXtVv3hPPc9ZEAnVznNqc9uZZTZtbIWP+8Yzhq7lt87Paqt48J2OubhDFFUAOohumhwgvsoOg9KISWjQEB0G43XbbtdG4l4kwkc7oGMARDISU/14s186EtUDYCMoXb66KMPRpLZ6uRtXW2QE0m6QTLskrH+HAlHWVq1yl0UIoEXBG5YQz4KbhopUQY65yLc4cKvppOaFDmdoxDSFCyhnvLLEg2K1dtDxAGwHWFa94xebAY8E3jQxfaIP4bAkILVrQbwIhKOiT8CL80Y/4SCu3FSGtSlyCPEDI3OTVrna1pvUQ6tLke6HKp5HROJk5BX1K8DuAjvq0i6md9qpfDZb0F+9cmiog8XyE3tCqvNAujhMTcLJzE2BUrvv44HmkTSrTtmr2E2aNAGQBUDShD03O7hsk0nQNwnj1brvttg3QLnvZy3aXucxl2nH5y1++afG0enE777xzy6cP0nfqx3dAqTzgbytHGwgwlZtPBtTS2MEIb9Guv5WRNvu/HkH5DoMKA0uDWHxAw6yGAshZ7dl1aJcXzwGIvJAAkEMBYUe4GglbI0e4uPYie4EIRIKAgKZxyC/Oi6WcjHpTfl56eQk8ddAimHWYwggJwsvcjGUDAIA2Ie7a1752E1SAjgAE4Ebgys6LrFyHQPCJpzXYQ5bAlzbCIEJnHdg59iK1Cb3AUJuBv3kymiRQAQ6cpfQPjYQHKjMzcGDuZg4HPPnah77BG/cBAdM04eg/vrmPV8yqNET9AKTMgQbkABxNihYPOAh2AxsOMUyGzOd4zixrgwFzlcrUloCSZwAdjrRRGnXoYwM17bPxhPI4BTHLoitA65pGBhyzfjHPXpaueJ7MnWqnOLyMNUGbDR5ovNroWQbKzI0AmmUCmNGsPJOeRSDHssLcDZBp9QYu1pACTM5taFFH+Oih8LwbNKjDoFJZ1hbrR3O8+GF+1zyzvsanPKd5rsf+cP11sKgPDHLsy+w9VN961rke7VhJmQWQK+FWpW0Cx8sIHCN8gBHTEW0NUBIQhAch6OX1AgFEQpiA5LVHKBBwEYY5h8XqEOeQzktpPkhe2iR3eADAvMaExURn/aR1WtaR8dw0d2OtHnOV8gAxWgLwKd89ApFmSqv0P6F/nbghntMWbaMNM6sKTJpMmDQWc4YEHEChfdFImJoBFQChuQDRmMjlD0jpAwKe0KZ9GlC45xlwVj8NjwZGiNPaAZBDXwMXAxxCnpbFCUV6JnnzjfgPYJkR0a+89DmvUmY9AzHzlZ4B3tGAVXukdTYgQ5eyCe9oOM4W3dO4tNOBJoM2W++xSsTsGUczZaIdALNu+AAAACAASURBVMnH1O+5og0bYHi+tIdTDeBVB7BWdv/dwB906RdlOtPY7VELTPOeuIcmQIwPzNa+wQksWVCYmj3fNg6gsXqfPN8A1zPtOVXGej6vqUN7vO9M5eHTEN+JcdBUADkOLs5JGV4GL7wzweFMMHlBgRdBY0TMRd38DSceZqOAJIHDREYIGsnL2xewXkD/xTuUT2iIJzhSHyEWQZb6lS0dAQUIjPSN3AkzI3n3BWkcuSaw1EngEoABdXGhRfuGHtJ+wstggQYlTvsIcPOtQIDwxhcARujTfpj8Yl6WXxp8dY3/wBEv8A0A0fYISAMV/FaPQz879LH1gLRXgxjloMOzAJCY4WleaMhyBgMnwEaLlBd44Tsg4ODiuTIokgbA0BgdFuQDUvSqA43OaEYTEKaVGpwpTzukBzw8rHmkAhw0er7kQzOAYjY26GNyBWaeI9qwQUSeS3nyTKlPHeLQkOfGfddodHh2ae8ccJhlTT/gqzK9RwY3nNMshQHOgFIe85nWt9J0pTfQMWAJr/r1rcfzmnbqYwPhfDpNu2c1FEDOas+uQ7v6Akjx/ufspaHJMQ150QkkAgZIEm7SepEICC82ACW4CSRxBJQXUPCiu86Ll/icpSGE+gIh9yLIlefaNmu0B/fR6Jx2uFaG/8yLttEiLAlhZ0JUmwhkzkHxeuWAoX0Ek3r6dIQucf3r0Jc4/11ro+vcbwwYAfJ+nDxC8uQcOoCJucf+AEa7CVzatIGJuT4CmnAFWBx37NHKoYlw1q70lfoc+kibxOMrhxWap7lLgwtAqZ7kY5Jl5iXk8TL30Enom3P0IW7mUM+HeUyak7IAAtOkOvvPWJ9HrtEBdKUTQmd4Iq97QFZaZ31L8+HkYlkKbRnNDuBnbpupndMW87xnB2hlIIAHoSvXaZsyxC3WP2hJ36EDb7wb+MjU6l1hOmXCjoOTZ4+2rj+V7V0x6Nh6661bOnHyMbcqP/3TCFinH23AX33KAQxop83rVOVEiy2AnCj7Z6NyL6rgBebZyqxHCyEIjPDNPxFGESyEkheLOZQgpR0KXrS8gITOSoMXN7QoizDmlk+bEghJgTCRNgILoBPO5p8iTGkZTGa0CWZXQkhbmAQJWJqHZQiA3rwXweo+IUvgyx9a1KmuCLFGRO/HPQeaQ1vvdisHvUJo7t9PHD7ScpgglZOy3KeB0MwsOrcTizQEr3ksAMC5CUhy4tEu6fVX+kb96R9161/tI8SZcAGatHiMn67lMWdM+1KffveMuG+wgRZrJs2xAQfCHnAAaWDOCiBtgnY4lOtwjSYhfetaHv89Q7lPU7WXLPDzLOKN9jmAMhpp07QiZkuAKEinHuU51CuIU4824ZVzv76W6K8DGc+hIG/KYalgimYm5oTD1G2w4HnzDOIFLZFGbc4THdpi/pa53DaOaAdU5ucNFJTf76PQMM6zPtd29Os/zxvaZjUUQM5qz25guwgKLw6hSdOiNUQ79DIRhsx72RnHCyUtQLG+zEufFw/ZuSYAVhMi1AgY8zTmvwgPB3ocgvLFATOOEwSouORP3RE6zmgjCAkxQtQcKNd85kIOMHYXIuDNe5ovI0A4EDFr0kSZ7mgNaAMKgCTtDX3Oo0Fc7rvnGp3yoss1oUVjpj3mnnQp39wecyGT3gknnNAGJ8yktgOM8xOhDSiZQJlSmSiVrxzCHe/wyFm56iHkzQ/qd56XAU/pPRu0NgMK2g8w0WY8NKfJhGleksDHS88JEzHzJzAzSOm3Ub1o6R/u+69M5z6NzKHmI/HF4MaATDrPBE3aIEGbaWrZv1Z52hi+5j9eGEwAbv2o3/GUNUGb8ELdo0FZ4Zk0DoDmeaOB09hp0EAS/9DsGQF+AJtVAC/RoxyObpyCDETlxTOapzTatp4BfwG+PtZHeOf9mdVQADmrPbuB7YpQIhyABkcNwo03oHkjAg9gmmeiLXjJCQnC0+hYfEytEUruZ+S93KaoX36CglCjzRFA4vwX0JojApXQJHAAnDjppUlI+xaLU656U7e2aRcBSNABLRobDZRABpjW8plHAiiEm/kcXo6EItDUdnU5p1z1pB0RtqHPPXQTroBPurTNdcoQB5SyxCDmSdoVszEhD+yAic0FOPEANrTjKaEYQa2N/bINGJhvDXhYEZSjDdIr14BAucAYOHlO0MOcaE7aGk1zotIBK9oUBxaapzLwInxJu3NGB54IoQtPgBkzssFKQMbgAcAAZs8o7Q2taEx78Etd4YeBHHoMfpjdOeTQGDMQyPMhX/8Z6dOnbAGdytUmnt4GLGjTFwYZHMU8N+jnUcxa4T1AjzLko2Uyy3Jc0l4asAGGtql/MRpCyzjO2qnv8IOZ1XM7q6EAclZ7dgPbRVD0hYSXmdbI/MgDj8ce7cE8H6EXrYSgIFjds6erF19eL6BjpSH5CBf0MJUx/SnXC90PhE2EFnOvObGsgUzdo8LGf3kirJIu9Tq7p/5+Gvn8j6BXhnYT4LRK3pBA07wg70gmW1qoe+ZraV1G6dqQOvu0KNcBWDgoqT+AIZ3/8snvP83WyJ8gNjAR0OfwX1lAwdykNaW+2oJGwOZeAFo7lOu/vM7M0fqdEw/NUZ0BLfVpJ82D12ry4TvPVvvHGizF5Asw9tlnn9b21NXvQ9fagwb3BWCCVxx4zCGaE/ffM2cAod34bECCLjSEX55jGhmBLx9QBPYGNpk20M7Qom6H/+JdLxZSvrrwTx2sJoDac0fDDe9YPLSZdsrsizfypy40q4uDj36hdfM+tsTFQEza9QzqFrTZAJTzl0HDrIYCyFnt2Q1sl5fXi0NQEQARokbFNBPmRaNdmoJ5CxoLgRCBT3gRRLRLLztBlfJW2gwvrvKM8C0PYPJlRgTGQoQYWl0TKDReQE4wEl7KGA3J148X10/rfw7x2uBwrZ7UmXz+C84EOw0AcDCXAXfaJrA0d8ipxH+mXMI62nXqAUbMdHiH/8pUt7pc47f/eI7/lgwAIOAhPn3mLA16gS1HEtoksyvnGVuc4W3qlTf55XXgNecWe4ZKT1sUT7jrX/1Cg2ZdEC8/QKAVXec612nPgf+0P4CmXQFZbUmbwle8cC1eHxpc2B7OXDCesgyYX2ZOxT9aKn6EJ2hi4eCwZO6PxcPcKhDDn6RDZ/g62p/q3lQI/2metD3mbABtYObaANGAifWANsmjmMMY3qfdykaHstTNrGstokGRPmf2ZbHBz/UM2un5cMYbfWbANauhAHJWe3YA7SK0hAg1JiVOBzQjwgaAuhdhy6GGOSxxXnxChZmSUJZHIIAJDukc/ToAHHAhfJidjP5pQ9IRLOpy7QV3iDMnx0mHgDHn1S+3FT7BH20mOGkH5jIBCx7SNGnkeKPNAADgaI92EaajQby2EXDMygDPPFfa676QdK7dk+Z2t7td0yZplAYTLATRPvEUSKE1feRM2HPgwV9t0GfpO6Bgyz+CXX2eBc+Hrelshs20SkPxTNAuDbTQIqQOZdmUwDMiDp1AhRlZ+4EPLRjIGkCIC3+kZ1pVDzMyfnouA7Z9/mlfeKN+ZYQW/91TnqMf34j9K7DhOR7gmTThsWv9CMw97+qXDo/xTXp5Hf3y0UAjZio2IARWgMrzq+y0U/mpL/Ss9YwfDjzSjzRydYgTxKd9a61r0vkLICfdAzNcf14Yo9oIUIKV5yTNzn0vshffNSFoDoszBa2DpsPMBTRpJAQYDYGw8AIKeRFTBoFJg4iwpJnKkxc4wiJndHnBmawIJNpE7k2yayLkCJvQg0cOfMFHNNOKgBAHD8AQjUx+QrMfwis8V46BBJMnoRrNAx8dgjTS4jezJy0WgNkuzRINmi2NKIMKtIZeeeXTHywDTIdAHggANoBIywNONGbpAShQNB+sPdYvGuCYp9On8oYv+s16S9YBgwQmVWnUgTfmM813ym9whS5aGlC0zITXMacxWqNytB+96kj78UD78R996hb6Z/dyiHf0/0vvvzLRoB5l+S+twY05Xv3gOdUuDkDm5r0n6AuoyicoQ5n4zkMcwLqnXTR2fJQG7ULobX/G8JM+Vi7+GsDQytGUtoXWMVQ30SIKICfK/tmu3AsageHF92IRQoQa85v5E2kcXmrzbeLMvTAd0fy89MxthKC5OEIuQibcSx2EDkD10prLIgRpXeK9vIKz9F5gZyN3o3UgzAysbPEJrvv/E78R5wic8MhZnPYI/jO10ZqYQLM8I21Lm/u0akv4ZxDCpMh5Rv+kHyLk9FfSq5NmY5DCkQRIWhICKO2EA8wIcnnlA4LyqAsI0NQIc4Dqvv5Wvx1iDFD0vbTiaH43vOEN28YNtGJOTOauAUL6n/nXQMqgihZjHg/AcGphPvbfnCf61eW5kp7TlqUkylUXOtGDbgca8AHteGJOlYaqLPcF9xzK7h/uJ2+f967FC+rSZ/jAtG8Ax1PVXrW0WF6xtHu0mpqwkYBzv+zQqTwDR0CKPgMigxHvSmhslf71uc/1Ws/qV7524asPp/MAzrOi/LR3rXVNOn8B5KR7YIbr98J4UfrCIi+OJQS2pDPyJKSM3I2cvWiE121uc5u2TtJaSU4+5i4BGVMixxtr2QgC+WkjgFd+i9cJa44ghDLBiw4vtRDBhibXhA/BxHTJZEVA9ul1Lf9GB3X26fA/cTnjmcAJybyVnYB4xhKyhGXa3Ke9X477hL9F8ZxSCG9rRmlZ+AkgnKULH/wnFHnf2tUFUPJA1T/AlpkUUOrngE0GR7R6FgLgoM+kAXjmVvEfwAkATb8ASUshlAf40KZMjitAldbovjlGZTA36n9tQjPTI1M7TRsw0so4Grmn70OX+tDhoJ1rA49cmyuwdHjO8DpAOspP5WlL+OTswCtlosMzCZh9O9UG8vYMtm2cA/+swcRPy2uAO2uAgY9rAwsDRW3HN30Y2tG7zz77NI9SbaKNG1iiVZBWQM84Q9pq0GQHLU5C6EODkPM465xEWQWQk+D6HNQZIZ6m+u+l8WJ5uZm9LHDmhGL06+WiIRpV01IsV2C6IbiZzQhMzhMEpVG1eTgjb0CYORwaBo2Q5qgMZkEvMOEVsEFHhAYQ8XLTNoE15xdOHdInJF/+b/Q5fERHQCrt8R9PCUOCn0mR6z2eMRULaWufbnEEvrO+YNbkRQxYgB+wyXpBdTki8NXlP75yNNEPtB8eqLb1Y/Kl0QGZaGeAAsjpYxofGvW1uICI/qXB47+65NXfvhphv1N0ARjgT0P0HDBLOnsG1MlUqj3KBobAkxmXCdMzhnY0COoAXuZJgQ+NTfm0VRYOdOKp8hzypQ/C9/5/vJSGVpqNJdCPRhp3BhN45ZrZmNmZ5QKgGTQY4Bn8GRyyoOAhDdPcuCUpHIyAuXqcBedo5/rM80CrNMhBExrT3naxxp+Up2xB/YDc0iGDVQFv3Xee9lAAOe09OGD6vSSEi5c2QoVwFZwJKCN72qQ00hOY5o/MI8X7MC+7fO7LS8BLR9DYQNo2acxLBA6hIhAkhGJe1LzU6hJHEyGsLGHgKWn+hsu6fAkRCPk/6XPaEjq0yYEfAN4Siz7Ip81J76xN4pWFP4QcwUwDFAhiWjXNSf9Ji2eC9AYW4gKU5v54uvokkx1weKnSFDlJMSeGZjTqvwT/0+/KNN9mXhM9ygagNFValcGONYv6Wx0O/c4Bxz3lymfphE0fDLyAn6D+9KNyDaQMoMypMvXz5mXGz6BCWu1EmzJDv3OenaQBCjxgaXrKQY/lFz5w7IsdnJrQz0SMv8CXdyzAjlapzaYFUqf3wcBAmdpGO7NelPaJzvQd/qBHe0xL6Df9BWxpzmh0PzxoF2P6wW90CDT5K13pSm0QI877k+djTNVNrJgCyImxfj4r9tLmxfXyWtZAsDCterEIISNh2iWTGmFL2DFT5aWTTl7aBIcO5imCjpnRfAxTXYBUecmH4/KpHzgDRWvlgCpAztKDfh55/Z+GQDgyY9KeojkvRbe2RYACMlokxx3ABUAsVAcyBLcDuISXeJK+BG74x+xpmYbt45jC9au+ozES9AHE8FfdqT/ABShYBPQPcOLkA2yVA1jMeTo4Jpm/NBhQP60Z4AETgCW/ZwDdtFHaMYAFUkCXxycgoSWqBx1ocLhGo+fMoXzPJHDCH/PaBlWWodACaXfoseyCVYOGSwOk+QI2eT3nPHaZbllJDMbc512rXNquAZ+0aDaXbo2k5SY0SzxUt2fUe4GXaJMWrfrcYFO8OV//sxzH/fB5qedhuffwSFCm58F8MJOxAa26PBf9Z2u55Q4xXQHkEHtlhmnKi+ocgUSIEDRMfYS8lz6mNIKPdymhFg9TaeQHAoSnuSdaIw0yawSV7WX1ouZI3eIBLqcWgp2gVQ8BRbBKL3/yeeGHHtCoXcCAIKZ1L0W3trlPyOaaGdN8VzQygxYgQAACG7wRnNN/8uovZ6ZN5kCDFnOTBi7ym8ujJTF9SyN9hGz6SHnqAEbml9WpHve1hRmcCdSyDeBBa1KOOThzjPpQ3wMI5WibMpUBWHis0i6Z6w0GpFO2NM7Sowk/5AdUtDB1WmoC/J1pxYCIWddgzPNngAX4ADh6otkZqDFDG+ThC7Azvw6UzSWqC33qo1ECb8DKTOvZNp/qO5BAlLWDKRaoZpmN9jvQb2rB88wsqx360PypOtK+cT3DeCYoW9BnaNLXMauLV++0hwLIae/BKaQ/LzWhSjh44TjT0BoJDy+eUT2hQLByPDBHaD4pgoVAI4jMLxm9Eya0CXHmgJQhjfRe1P5LrX7mK44lTJIEk3oiPAkYaQhR5UWYD5nVaHRoq7a7xttNhbQJj7TVf2cmZpojQaf9/tMEaWD6K/zAz+QVr7/kdy2twQYTKBOjxeS0C3zm8Wp+mWlSGeqQD93oTZlATDsIX4FWaPG8vAZI6nNWjrRprzyCspTrkAbgKDt0O0ujDPeAmeeMZmfekKnUc2XgRvADRhoqoMYfYBUTtDqULXgGDbpofECRtseJynOYNNLhExqE/rMKUA3etAdv1MdkrI0GDbRCpmgmVemUoa+0hfZsfj7euTRPg0p1OcYVQjca0yY04RftNXXlPK56J1FOAeQkuD7HdWZU6ewFE7xwro14aQdeMnGEFwENvGgBhIX5GYKDUCGYCAYmKiYzWgSQI+SAqRE9QSpNXmRnwsZomwAj6JitOEZw1GCGI2BSdp/OIXebdqWNBBO6lxJQEcppk/TiCHImRHOS+IoXBiE0MFq9fsFPIfWkXnG5T2ibY7OEZJtttmmfaOIQxQmGE5CNGfA+86XqFvQXWkJ/nhEAyYTu2YhgTv3O6nUIiZcu4IVG18oF8p4NVgNmdqZlQEgrZC4FjtZn8gimHTL70uLkQS9alaONocV/1wZ4zKlA2fMrHl3q71/7H76JTxuUkUMczZCWapABkNUJGA0YWUz0hfYoyyDTfKf3yH9atv7U7vC3MWiNP8pGW3jtmvWBiZlzk//aNAuhAHIWenGK2uDF6b88XvgICiN5AAXcmJ4EAoBjA1d25qXMywBJgUBVhrzmhbJkgUejEbT7EQ7KctBkmP94TaqLedYImCNFlg9Ec2mVTMkPQegQAhabIj08ly4CWV7/mfs4idg9h3lTHJNd1jHqP3wVn35Qj3LwGu/cAxD4bcmCtXLmJq3XtE8rkyTnHgAKePoalnIihF0TuBxQmDtdo1P96pauT4P65UFj2uhZ8nwAbN6unF04+xDonhd9zmMagNMULfeh9YWPnq88Q+LUn7LRo53uu9Zu19I4+s96K7D3gzfSo9e1tMBOoCniifvMvaYRaIcGCMy45po5ptF80eLAd/QD/ExHyO8Ivb3qV3WpjaNBHLoNLDjspM2LpR3NO/T/BZBD76EZpM+L039hXYvzIhN8tEXzUK4JHwLK/JEXnwmKJml+yL0IAC8lQWikz6FDWiN/o3kCSzpn83O2ODOvyczKfMbUyvQHJJVLa5WX5kQgyRca+y994tSd60l1F2EsoC805jxKk3j8ENCdg6AGNoCEJyYPX05MBK/ymfjMp3Hg0SfhvXPqVZYQnrh2T98Y4AAjGqW1rSwD5g9pleYPlaNc85T+swY4aCfmQ81VKz8AKD26xAWw1aUMmhwnnKyBZJIEgkDRelHaonltc37MtjQfGhe6wx/n0J/2qEu8I3FJIy73E+cc/rgWkle8oJz+Gf2pQ/uAp7YztdK89Y/nEhiyuOQ9kcfA0EDPe6BcdXh+Xbu/1pAyclaea33CFG+wid7ErbW+SecvgJx0D1T9jQMESw4vP6HFrObl9rLRAAg7XoK0TJ6CTH4ErxcyeaUl0N1jjgWmXloClhCkPdBGaUnKBrJG4cyKTFk0CnM5zFUEJuEjHeBQtoPQ6gu9xDuHjqF3a2juC05tYlJlvuOFasDgc0YGJ/igbbQZJmzaXxyBlBVBTFBKJ4gX1CEOr2lm5uXM82299dZtsELoA18es6wA1g1ut912DaABqYOJkfanD/WFfk/fKJ+2xQFGP9JQ7TPLccS8GO0LaFgzaY2gQRCtlakSGOnPTYW0Iff910ZnR/p7NF3SL+fcz5v+EIcu/7VTm/ENH5h9aYg8fDkO6Yekc7Yu0TOPTkEbPcNo7dfl3uj/5dA7mka53kGDSgMRfYGOWQgFkLPQizPQhry8ET7mXswR9h0cAKd5RsLN4m7aDOHh5fRCZrRNGOQ/04+5NA5ANAc78xhdEwwBvoAdcACshD9zIu2StkQARVjJ1z/Qqy5lTItQCK+1w7WAdgftmXkViAAhoOIrLPiC1/ggnhmSyZOGHo0BD1K2syO8lRdAJs5cnjlAAp4plwmWdrfFFls05x4DGSDNFHrVq161OfvwjJWWNyygdjC90lyAoLWYrAO0VOZzAx0gz8Qbx5fQ1+9DcZsK7uXQ9n4bkwfflLeWEHqUobzU6Yxv7qtbe/GENu751XabLLgWpOFsZOF+5gPFoz1BWcpNnyd+tWdlqdczYgBrsBNwXm2ZQ8lXADmUnig6FgSDl80Lz5kGQAEu/x0Az9momDOCJQS0Pf+9lA4C29mLK7gmoL24wE7aCKTkkTZCI3Wb5+HEQdvhJUsLVX8EQuh0dihTSL3tzwB/0BdaQy8+4HO+bAEEpeEYYlBh3jZzi/hDaBPA+GPeyT1l4IN70sgfXqnHff/dw0fCnvnU/CYvV3VvtdVWTWs1OKG58hxlAqdR2sA8GwUAcce2227bNE2aFdO6NYYsD8CTJqNOAS2hBw05gASaNxXcAy4OZbFkmB/0XzvS78pT/kpCP73rAJbnF+36w7Wy1S0NPlsuwtJhCoBWaTDBIpKBijSsALRxz3reDffTFnQrdxwhbccbS19Mg2hLv33jqGcSZRRAToLrVeeiHMgL7oVzLTB/Mrd6oQkkgXmJ16o5Mo4KFqdH42kJ/voDFPuAJnqpl1adhLuABmYthzLMVzLBMiHZ2ouQFEITwUMoTEtAqzY6BGd89rUOZ//TJhqJJRbmhfWDQ8AXPMYbXq5MfvIkhNcpK/9jggvAOOMzqwGQ5LhjMwA70dAYeRwzs+pr5lfOPj6J5T9wALKEM7oAiXPa1adX/ehLXOgJvYudlRP6ADnrRcr3vDj8X05Zo+X386gndElnswTPPnrTljxr+EeD5GhmY3c8oymnbfqW1YQ2h15BGSmnT8c4nlnlagveM/8aTLperL5+3dNwXQA5Db00BzR6Ub1kERJeMIfRL8HEuQZ4uU94MKcxq5mLtIuH+UkvpHKkcZ0XV1xeWPeEaJG5J9518qX+lOlsZE47Ydo1z8MUCzwI59CeOofeZQGynGlcTNA0MV6SGSy4TyDb6cV8HjOaxeicRghs7QVu+oeQpj3Q0vFPXnxxhC/9s/v6FMiKZzGwtyttlVnUHDIA5LnMdBqwNDjyTNBggbPBir5TnkNAmzhB2fq3T4f4/Hd/U0Hb1WVtY9rFAYhmncGXepS10tDPgwY8w3eWCtofDVKc8rUn97XR82u+1fIUy2YsgaFFilcWvvIqpVWbmsAj0xUGIdapOotX31pDaEcnpyoOb7FArLXsSecvgJx0D1T9jQMRFl42RwJhQDgYEfNs9FLTIuzFSYPwxQfaBAEWgSiv8nKkLP/7ZSdd/37yOCfkWl7X6CFgaK2cIWwSbh7IvJr7odn1aHv879PZr2OUttwbx7lfp2tHaFWvrcl8VSJzW+KAikN7ONBwfMmXG2ztx2NSIJSVBzAAG8FNq1NGDuUI4Qlh757/+Om+M3DQr9kgQn8DI9qUDSDwOEJdelqrAVM0+tCi3NEgrh/vGg1oR4+grTkDGSZbzieAUtnabO4UTWgOL1umzfz065Y09KhbW9QNjAGbevAzdSS9/8nn2jIl6Q0kMrfuPr5Y38u6QpPUbwY4Dn1HK8djc7UGl5ZS6TODFMCsDPSgTRuXCnioT6THI5YW74eBz7SHAshp78EZp99LRhAwq5pv5Kpv+y0ejbRHnw7ykhuxelFHgxd9PYK6CFACwY4/FtabLyNsCDkCm2ZFuEhLAEorhCYCRdsWC0mz2L2VxPWFGzqUS+ip13/X6KI9Mh/TJEOTvO4TftIaEDDrMXfiu3V52q6d0hHo0lokT5vRPvWN0oB+8Q51OStfemXQIB346H/Spd3JKw/azV8CLUFd7qNnseDeaEh5niH5WAS0i3eteVJxnHzM93kGLUNJ+cmbdoyW3f+ftIlDuzjtVh7NlGWCFo4W7Qc02hmwkd5/PPf8ec5sGKA/7AplIGnQZhBpqY5BDYczJnKbIJjTB4L4SiM2L0/7NzDy9RFzyjx9mWY9s+jq919o75/Rgy48A7IsK5aizEIogJyFXpzhNhA8hIWXlPnGSJjJzaeVzEFme7pNvche3HGECCbCAC3ocnaomzAh4DgOAUmCxlwlUyRhJsgj9GlVrjIiZFqCMf4oP8LbWT0C4Rq6bYvGAcb6U2mioYU2Z3HSW7PIOYZJj4mbtkewDifCDQAAIABJREFU0u5pd4S+OqIRpT51Ksd/dSjLIU7anAluPDOvZqcdZm15AtLK8V9eZwfTIY9VgJI+Ud5iYbF4cWhy4AunIzxhTvYf4DOtAxLtQ2/a4CwsVu6m6pc2h/zKNDCJ1y3ABFg2U6C5aqOQNrvWzgA6wGZKNW/LFG2gw+wKpPAGD3kbK5PXKwDGZ+WiI3x09qzS2uVRX57NxdqSOPnwhLnbHKRBBQ/0WQgFkLPQizPcBgIkL7GXkPC0ttFCf158hMlSQkre9QgRLoSIEIHn2j1Ci2ZjuzL0EkoBSkIH3c4EcMpyFjfOkLJDF2GcAYe6ABuhyuwG4KUPQCYv/roWaIa0ZaZtn7fyWSfzk7QOW/WZ3xLCd/n0m4BX4p1Th7Ldj4YkvThmWg5DtBE8ckgXPveFt7JodzQkwp0GuBw+pq70Bc2Ks5FBAD4JzqwXypRe2vS5+2lnS7yJn34a12jTFodnAojZuEC9NEJzrA5tUV+C+oUMFpQVDVs+mzrw/lW+eDwTQq94bTEQ8mEAfHaMtkk90jqro09/K3DkJ3QxRVtiQ5Nk1ZmFUAA5C704w23wcnoBveTOXmYHIeElTjwWLPYiLxa3GnZFWIzmTXzOoSmCx3wOzdf6TY4XtC2ehzQGAixCKnTKn+vRulbzX1kO/Iq5mrCnnZgvZNIzh8tDFS/79aNNXvEpQzsBrDk4QEmjB7DM3ZZlADZmvmg++ko5yg2PaGZM5HaxYfKj+WXvUmWjFY3mdgGkeckAZHiAHkGZgAYgcOphmlV3ADfpFzvLq23qY2rM5uL+C87odpbOIaQt8i8nhFZpXeOHstCMF7Q660o9E3gIHAGe8rVFfYJ8gv/izRsaJEprjtZ8qQ3iOY7J68AbQX36Ql4HYHbu902upe/T3ApY4kc90qPH8hPPBnNvvse5RNbB3yqAHHwXzTeBXrwcebm97F58L7SXU3BvsZd6sbjVcLRPQ7/MCCJl5tp916P0EmScL+wEZIRt7ghAiI9ATz2roXGxPOhQJloIetuvHXzwwc1EyqTHtGrhfcBTmuTJWV489x9QEbQ5o92mDdbd2XWHeY+JkvCXL2WEZ+JYAXgCA2m73RDqPtBsPav7DvTQbqWLKVG8EP66Vj6apWcWNG9IQ0p9i/EkceGL54i2RjvOc6W9ua9e7XUW51CvfK6FnFN2/yxtgnTyaRPHLvTyxkU7k6j+Sftpr64dQq7x34BC//lqikGKTRbMQ/IgXWz+UJ058EsZjn4b0Jm6Qu9yzvLpb2Zoc54chCzVsePStIcCyGnvwaJ/ajgQwUqgEJA2U6dRPulJT2rmSWZCWgRhE0FNYEWwyedQDuEmjfsEXtIQ7BlAELC2yzOSt7icuZcgNbqnmfnyA09GZjcAsNKQ9oQGwp2Zzxwxk61deYAOetCHZpoPMDBAAJCWjNj6Tz4mUqY/YEXD0S6DCXNn2qI+dQW8gCIeJB5vgC8zH43QPWnwU1kOcYJy5EsbVtr2TaVXnrYqPwFv0Rw6eOOyKND4WBiE8MhZ3vSv/3hm6Q0AomHa3Sie3AYlPFKznaK0kwjabZ7T9zoBNHO7ftD28Fwaoc+bSdC6kjoLIFfCrUpbHFgjBwgJAiICkTA1X0l7ModDm7OFm2UXnEI4vkTgOgOBjPx5VgIZwtYaRCZPgMtRgmZiByAaHS3NDicWcJsXzbcauePzOiS40RMBttwmJr28aNIuwE9LJiABngNtvDEBlLrMuQFQDj4cO5icmRlpnuhFPxBRpvb7/mLmzLQ/fHAGgOFl6KCZGQRwkgIcNvXWboMFZfYDmpU5jhB+OKOlTxeg0H6DCPO15umAvoAGbXFIA+S0n2bOLG+5Bqc0H6LmjcpBylwph7A4R8mjHCGA1P5s0E/6yjpW/WlQw/RO00UXnoQ/4+L3RjStAHIjuFx1FAdGvuoQ4U7AExgBKYwiVAg/WpalFOYJ/edEkvTSEYoA0ryfrzoAEpqYL5kwcclHi2PC44ADOICST065R3MMHYRqBNhyOkvaCHXptUEZEdLitMm8lHV69nO1Zs9gQBsIeB9Tpm3yVjUwMCeqjcyEtrczvwYwgCugoHlG+AOf0CtN4gERYW1QYDmK+Tzl2/NVHXiG1ghpbcj1ctq9VBrloCnnflr12kyddhVnLenQKg/6zVUb4NC8spOQXYPsU0vTN2/LkcfgyaE/7XqEL/iB3+FJv+6NuNYOdNg/18CENcTcdtbDei7C50nRuBo+FECuhmuVpziwBg4QEA4Cg4DOCNt/gi7CxD3mRsIGAAI15jUevJa30MwAkPvMb8yLTItMXQQTLYX3rLmqzPVxpmFuDVCoz6Gu1QT5tMU5B/rTBvdolbRbn7kC4NYSciQxF+orG7QOS2M47aBdmwlZmhMgpV1bdsEkSfvkBGQQwZEnziYEdNri2ppUGnniOY7gG81MCM/TF6tp+2ge/Td6hD/i0QLAabK0bMshgLY+MYCwU5A1vq5p/LRgHtDmqg2COPJwQhLvWfBMAFUDjtSjPdq20UHbaMTmkm3cYOMOG09oZ55rtE1bKICcth4reqeWAwGNNKAvzAiRCOvEOxM8NCSHEToHCOZGGgSBbxG4LzdYm2h3IQ4v5qXMLzpoaEb1BCxN0pwXTSMaq3pDl/qWG+QjlBP8T1ni0gZptIEDio3GOSXRoniMAkVgYA6WhkQDBgaWihC2wBAwckJhegUg1vvZLIKpUbuYTpktla9cc7g0TrwxaFB3FrAT3DRxdPbb6v84gjKBNG0w5TvrNzSZT6XZR7vVZ5xagCDtkMXA+k99CgBpiDx8mZkNaDwD5iLN6xp0qEd94X1AclztWQlP0MEiYUcf4MhR6hrXuEYbsKFHP+BF/5lZSfmTSlsAOSnOV71zywGCIhpMmJC40dG/+NwjhPr5xAMSc5E0Rk4/TK52lQEEth5jWqVlSSs/AUVgKSfCyjnXoWe5Z2UpN3RGOPfP7qHN/rnmQWlxNClgZq4ScAJGHzA2/yoNTZJmBBRoiwCeMwrQByLmT81j2gEIUAJYJlxAKb/lBtpP6wJA+ELbArgEOfrS5tC6WJvTrtzLf+fkSxyeRkMEyuYaza1yQuItbBci277RnLUTYNOmzRfTCg0QaPz4g6cJ6Xf0Bmic1YeGftrQlLzrddZmQX25pumbH9Wv2qe9rtGHXiHn9mcKfgogp6CTisTiwLRxIIIcwBHkPh1mcwFAyJTKG5M2TJPljGTekdYE3Bw0TJoh7UtZwJImxbxKa2ReBnbm7CwnyJ6pzKrMfLZZ4yFrGYp88jPdMlFzAspcKOFuAEGIA6AIe2f/AYD63U9bXLsvHv28hM2Xosdcpw3f99577wbc1nLaVYlGBfzQyazK7A1EOCmxCBjIZB51yH2dQYVzTLs5c4jSPhquAQzzOd7mWUi7wuP8H/K5AHLIvVO0FQemjAOEnyOaBXAkIDnLcDyxYwwNiUZHc2J6BDLMqkyPtCrzjoADiNKEsz6RdpZyA1bYI56QZj52AFggxeEnQRp0mfuksQJkmndfeLtP8KM5IfedAaNAA6WpAmcaE9Ov+bYtt9yyfc+SRmvOE03oVSYNX5sMFIAhegKI0uQ69Q75jA/ahk/ahn6bNBgM6E/aM01fX+KbdHg7jaEAchp7rWguDgyUAxGEhGaABhDRqLbeeuumPdqajkbFoYhWBxyAJPDipEK74oDCAYkji7k7zh5AkcCN0FW+vAEhZ8BjTpMWqUxpHAS5tPKaq+RZe+CBBzbgSpnyC87imK+BLE00nrbMo7QjeZlP/XdtXtTaREtKmFZTnzpTv3IdeBSAd9914sO/gXZvoz2DDXSbJ6YJ++yWPqKxc8Ri+jZPqj05htqmpegqgFyKO3WvOFAcWBEHIuCBAkHqnA8x88y0Ng5AMqeajzNfSqgCJAKXuRGYclqhcfG4ZQ41VwcwgS3wAV4RvM7qEZhkgZ89SaXrB+nEoYuGxxzKDIgGGhFHGNqtOi0rcZ+HqV2CaEQ0JNoR0ESz9DRCzjWWZnAkor1az6m80JUzGl0LAUvX4mO27dM7xOvwmemUZm9NLY9qnrk0a//NtxrUzEIogJyFXqw2FAcGxgFAAPQIURoWwAE+QMYm5ICHKZWmAWDsSUrjsHTDchUOOTxWzTcyZ9I0bYgAKGmeyg/IRPsivAEXIDbvB3QCPAEsaQExkGSOZRrkJYseIOea8w8tFNiZU2M25EyEHvmV5Sy/PWx5bvJO5WTEbGyRfMAw5wAjgHad/6Fd96VNA+vKS5Gjn7SDt6rNDPwHjvp4u+22a/2KN2njpQqYoogCyCnqrCK1ODANHAAKOZgnmR6ZNQETDc8SFSZJy1Jsf0ebNDfJi9NSFKZRyxuAKROmzcoBJ6HsG4a8WoWADSAWCGSajeUjtFbxTJjiXaMJIAkBroA4UOZow7wL0GmDDtojD1zfwhQPcNUhPxDQLtv3cT4yzwrYAQfaUt9iwBc63HOsV+jXvam6RmkZzRPa+vm1Tz6DBX1sQ4vb3OY2rQ9p9/jkvjzTHAogp7n3ivbiwAA5AAgTmN+s66OxCcCFUGWqtDRjq622agDDLOmwftFyDZonrZHWZn9PoENLSQgo5j8wUq4zgCWcXasXPZsT1AQ+wW63G0tM1E/IB2BpsUy3ANryEWmV7/9ee+3VTMI2N2A2ZnYFnpMK2q49/dAHK7zAE+0T/Me7ftC28FhefJTeGU8E2rrvTvJO9m1WpuoMDOR3THsogJz2Hiz6iwMD4gBhG+2CpmfLONujiScwc4+gJWA5tNC6LJq3+w3vVgv8aSUAEiha0sEEajce3q4EtYPgJsRdK19QBwEOwICU7evMj6XepBtlWQQ7AJdGueJSl92KmG5pkpaV0GjVT+NlItZGc6Z3uMMd2m43tvhzf5JBO9Dg0A58SZvcc6R94V34EHB0X1zS6hNLbezoY39Yc8r2/OWlGy0/6SfZ9nHVXQA5Lk5WOcWB4sCC1kEY81RlRiVQCWlCFoC5JkQJYYd1itYvWpphcbkNzq0ZpAkCUukBJnMrsydNTZx7ynGtPmUR6OoRx8OS6VP94pcKoUs+YfS/uTYapKULAFJ50tA0bRhuLaRNuu1kRGPm2Ym2SQTtdwjag1aHa/Hhk/vigR6TtgEFms0palt4II9Bhj4yP8sJx56+TOM0a+mVmfKVK4+ypz0UQE57Dxb9xYEBcYCAJRx5eDKh2koNAIoTCE3XDqBGCOc/jdPaR0KYZmJdJA3T8gGaJEFOSHOk4RjDpJcF/xHoykKDsglsIOuaSVG8uMVC6HCPsGdylD5gQou1dMQyDpqicuRJkM6aTcBhpx/zoEI/TdJu1BmNoR9fXNPyeOEyceOlAYR5Vg5J5lPTZv1nIwcDA8s2rPXcaaed2q5AwD+fE1OuNqrLgW/qyf+Naut61VMAuV6crXKLA3PIAQITIBGgnDZ8d5LA7IcIVXGuCVOCGXjSCmll1kTKa9G9zcwt7CeYgSKhbe6L2dV9O9NYHhIgTn3ODuUS4psDq9CSdAFU8eZS0UCLZGaVJu1I2ZahMBVzWLGJgPuOSYTwFD+zdIUTkW33DFys4eTBaz4VEBp88NbFW2BpMMA87mD6trMRHkuHnznCI+fwQ93uT6rt4+R3AeQ4uVllFQfmnAMBJw43PjdF+wvgLJc1BCuQNY9I06ElKo+J9Z73vGfT0uy1yoGH0DfvZ59XmpuNBeLlGoFNWBPa/jsi1NGTutQnBPjEC/KJ421Le7T5O0BJWvcF7eY56xNPNC0al6Um6FcfM6RAw5JH3ChfQktL+Ne6XYvXhgT/Q58y0rbQKi0aLYnBE/yx3tOgAiDyJBbMAdvOTzyNnLONz2txisLbbPWXevt8S9ysnwsgZ72Hq33FgQ3mAHMmMCGUCeNRINgcOQS9w0bXTJW0IADmYGrlZcr5xnpDWhDtDoAR8rRN6xktWDdfaIkGkyI65A+YEPYBztDTpzM0OJt/Mz9q8wFeqlnmIZ9yzHVyyqH1WuMJRC1bsTaSxukLHDQvNKT+AJwy+nUlHi198Etd4qRBu7P/aUvy2MrO/K+9YfEI0PECthuQ9Zw0wn322ad5D/uain6yRy1zNi0xmzEA/T5t4dM8nQsg56m3q63FgXXmAIEKxGh4NBNCu6/9LKd66WladmOxmw1NEuhGWPeBATi4D3wctEfmXYDgc1HMssDS7j2+CGKekFNNvFWVFa0XgOZ/gAgdPDRphDbjthFAf4mEdL4SQrsFLuZOabnSM2de+9rXbpqlDdrN62lbjvBCnTncCx3uixcMEpIm8dJqP/q1B1CjwRdMmKcBoSUoHKW233775kBk/Sme8rrFC+ZXpmn5laVuh3b125k69cE8hQLIeertamtxYJ05QIgzK5qL4z1K6BK2Kw1Aj5nvcY97XJuTVC6BDbAAQ8ASOLinHmZM9/1PcM1Rh5cp0LRUxA4+yqblmiu0tASw2H4OwAIydQEK5dOs7nrXu7Y5SKASgFOnYC0kU6b80t3+9rdv37mkldmg3TIQnq20OkCEdnnRqnzXDvWJc2gLwKd50giZmWnO1mmaA+UoREME2PZBpTmrd9ttt21fMvFNUNqhz2gZqDA9c8JhVlVX+sQZjxz96wChs/ikD1/n5VwAOS89Xe0sDmwABwha2ovdZYBNBO9KqiaUAYK1dvZktdZQXMoKqPgfAR6QESdE2OecOHmBr/LNj9oqzvwmUy5nH3XSOp2Zb2mdzKt20eEQBKz6dSifZ+gBBxzQNE2OPBxbbLlm6zUfdqZRAlCgZV5SXQ5l2xQBSB955JGtrTZKsM2dcpiKrb1k1rWJu7J8HNuhDqZRjkq2uPMJLyZlmxT4LiOwBq4AGdjjkzM+ucaH8NN/h3uCeIOAPiiKS7tbojn5KYCck46uZhYHNoIDtC+AYOlAtLm+oF0ODYS1DQFsSWfOjIkzAntUSI+WvZggFxcAlR44BCzcC2C45xqwm6Ozy49NDAAbsDPPKdBIpe3XRZOjXfL2BF7Xuta12iewrnzlK3dXvOIVu8td7nLtfIUrXKG77GUv213pSlfqLn/5y7dDnHRXucpVum222aY5y6jbp7Roucy1V7va1Zomy4wKpLVHO9ArOON3+EQbdY3G3HedNopThjjlCO45hJTrfq7bjTn7KYCcsw6v5hYHxsUBwtMRzYNQNr9HmNtYPMI495dbrzI54QBG6yKZPwlp8esV0BiAYNpkEmWetFl6Fv4DP+n6Gpk86LLEwzwjrdQ8H2Cj1ZnrwwubnptTNT944okntk0FmHztM0vrs++s9Z1MqACQeVbdQE7eLbbYoq1bVD9ehNb14keV+xcOFEDWk1AcKA6smQNAgiZiqQPHFDvfCOIJ85UEIJD5MovZbfO2nuAYOgPC5v9885H2aKN1pksAaA5QWwwErNU866yz2o4/7nPgMecH3KwxpOkx5eJJwGy0Df4rSxrzmJZX+NSWeLsF2TWIRm594k1ucpPmXIM2AD1a1kr4W2mXz4ECyOXzqlIWB4oDIxwgqB3AhbbDAcZcmW3LCH9gt1JhDlB4ViqPAw2NK/WMVD+2v8qPdgbYtIPJk8envWGZLwGTM1Oq3WXMS5pbNN/KKYnXKm2Xx6wlIUyxaX/ozxm/HNKEd0CR1irO10WUqS51ooOpl4Ye0FVWhfXlQAHk+vK3Si8OzDQHAABAI+SBYr6lKD5zYO6vNMgrn09Q8f5U/noCAnqFzE3SCi3ZsLbSHqvWEHKsMdcIHO2WEw3TukebItg5yOHLFsDM+suUm/Zrg7akPe47gKB1n5bHWLtJU7SbDRB2zcx6zWtes5lr5cUfR4X15UAB5Pryt0ovDswsBwh7IEbAE9rnnXde06aYCQMAGj8KEstliDLMyWVz8vUEyNCpThokk+fee+/dXf3qV28ONxxpzK3S6gAg0ysAA5Y2KqBx0iDNJfIqtSVe1i6Otlc7HAE44CjwOjV3yXOVadXSDIDLlGttp43QrWt0b7U8HaWl/i/NgQLIpflTd4sDxYFFOEDAA5M+QHI4ARzARbz7BPlKhXnKduaow5vVtWO9Alr7gRnTUhDao91oaHVooeXRlGl1gE2+OO0APDT6LyjDf2mWoh+v3HdWj7WMznbw4RFryzhlcBYyv+sLGszXFdafAwWQ68/jqqE4MLMciGAn3K3nY2I1h9YHBPdWGpKHYwwNclIBMAF47RH8HwU89/pxaXvOm6NdOu1Vj12IbE9nw3AAax0ordQ9ayZptD4zFa0zZS+3rqSv8/I4UAC5PD5VquJAcWCEA4SyQHgT2BxWeHAKAbikaZEr+El+m25bHgGAJhXSBjQ5/A8gosn/pY7l0K08fHT2LUybEnBUsiuReUn7o1pCYss4c5402dG6l1NPpVkZBwogV8avSl0cKA78lQMBCaDBHHinO92pOZOIj9nR9WpCQMmyCSZO4DGpEFq0M8sy0vZx0aQOZTqYcO3Mw8xqTaZNF6yfNEdpdx3b1/kslYCmPo8D1OOia97LKYCc9yeg2l8cWCUHCGeBgCbMOZHYfzXC3lka59UE+WhRNKo4tKymnLXkQYMjIAS8rIEcBabV1DHKl/5/n/Gy5R1HH3OQTNdMrjZgtwvPc5/73FYlvoQ2EaF3NfRUnktzoADy0jypmOJAcWAZHCCwBWBhX9GY/gjtAMhaND9lmJOzDjJ1LYOssSYJaAWgfbrqa1/72kL71lJZyu6XEbAz4LCUxObi5mGttWRu5gBl6zn7w9pnFV/wKaEAMpwYz7kAcjx8rFKKA3PHgQhmyyLsU7rffvu1JRJ9Ib0YCCyXUcACQPIeVcekgjYE8GmPFu8D/sSjay3t7Lcr9TBZ81q1mbq6fLqKmdW1pSA2Q7cpeV+DDLj2y6vrtXGgAHJt/KvcxYG55UAAgjC3Qfkzn/nMsc8V0pAsqViLJrrWDtJOBwDy5Q6fmjIX6f960cXp6RWveEVzejI48Ikre7syudo8wabmvpoCUENfzmttb+X/Pw4UQP4fL+qqOFAcWCYHIowBBZPjDjvs0OYKxa9HWK9yN0crEExbXQMu5mTmTfHixh0CvDZe4JTDrAsYzTu6psVaH7nbbrs1E6z6YwIeNy3zXl4B5Lw/AdX+4sAqOBBwIJiZHC1u91HicQMZDYmW5hh32ctp9ihAoofzDE2yH8ZJWzYaULfvQ376059uc43HHnts2+uVo9ARRxzRbbnllu2/ujNHO046+u2b1+sCyHnt+Wp3cWANHCCIgYXDBgG0GfOF4xDQ/TKUvx5a2nKbHloClM6+UWld4ui9/F9u2ZtKp80GBM42a7cHrP++avKOd7yjaYu287OZ+tFHH72QFm3yVBgfBwogx8fLKqk4MDccAAaENg3Stwt9hYIZcByhDzS5DkCNo/yVlpG2ygeAfOPRJ6hi1sSHcYW0V9na/K1vfWthHtIntGyWzsxro4Db3va23T/+4z82c6/0aJOnwvg4UAA5Pl5WScWBueEAQZ7NAOz0wuw4i8I5oKO92geIfMiYBymzZgBtXB2f8tTjMOh43vOe15Z6mPcEzr61CZSBpY8zA2v5AtQpY1w0zXM5BZDz3PvV9uLAKjlACBPgPFh9/9HXK2YVILXVoX3OPn1lY3bX4zZphofAzrUz3vrGpPo++clPtg84G5x85jOf6W5xi1u0OUp0ZB4yZayyaytbjwMFkD1m1GVxoDiwPA4QwoSyDwQT0jxZAeasBe0ETI4Aj7nA448/vjU1Wtu42t2vy7Xgu5I2DTDH61NXdtnJF0V23nnn7phjjlkA0/rKx7h64i/lFECOl59VWnFgLjgALIDDcccd1935znfuzI+ZG5u1EJDSrlzbQJyjjv8ByNwbR/sDytFOaYsvetGLmrewOBosGtTtG5Tmf62VlG+SGyqMo+1DK6MAcmg9UvQUB6aAAwCB4PYppn333bcte/B/VkMAEAhZi2hekLYWgAyYjaP9qStl+m/OkzcrALQ+ktlVeMMb3tC2nrPEJoOWcdBQZfyFAwWQ9SQUB4oDq+KAL03suuuu7WsTBDcTa4T7qgocaCZtSru00RrIZz3rWe1LG+MGyNSDFQAvZ2DJEcoXPSwxobmLMw95k5vcpO20I738AdaBsnOqyCqAnKruKmKLA8PgAEFs8+ytttqqfdSX9jjrwln7HNpqHtAm4huptZnnte2e+n0CzMbltFkm7pe+9KXNSSeAPYynZPqpKICc/j6sFhQHJsKBM844o9tiiy3a55gCFNF6JkLQOlcagKShvetd72p7ogKkeI+uZ/UBPvxVP3D0AWXLQA4++ODu/ve/f/s0WNKtJy3zVHYB5Dz1drW1ODAmDgCL//iP/2jfJrTkQdgIoBgT+asqJgDpbC2iXW0AkkPcegblqwdAumbSjln7rW99a5uHtB4y99eTlnkquwBynnq72locGBMHCOsXv/jF3fWud73um9/8Zit11pcYAKYcP/rRj5qDTByTEj8m9i5aTLRzdRmMOFx/5Stf6W5961u3NZKLZqzIVXOgAHLVrKuMxYH55QDT3mMf+9juVre6VXMcIaiB5iyHgKCzJS00N+sRE7+ebTf46GuH6vSfudW85F577dXWQ4qvMD4OFECOj5dVUnFgJjkQzSXekc48WC3vuPe9793mwTYCJIbEXIOBk08+ubvwwgs3xMSq7aMAKU5f8Kz1dQ9f/vC/QHJ8T0oB5Ph4WSUVB2aSA6MACRxsMWcf0EMOOaQJZQ2fJ8GMB9YmZt5vUh2vbxy02Qc/+MGXANFJ0TRL9RZAzlJvVluKA+vEgYBkNEUL020xZ/G6QHNJmnUiYVDFmv/zRY1zzjlnYYAwSQLPPPPM7h73uEczt+qLCuPhQAHkePhYpRQHZpoDEbpAEEiefvrp3Xbbbde+V6jhuT/TTOg1jlnTvqjnnnvuhplYe9UvXOoPh63+fJPT0o8MYuZJo19gyJgvCiDY2pZsAAAgAElEQVTHzNAqrjgwaxwggOOAEyBk0ttxxx2bQA5oavc8CWUerHa20f5JBXUHrA844ID2OSx91O+TSdE2C/UWQM5CL1YbigPryAECGEACP8LX+SUveUlbWvDTn/70EqA4DwCZNv7ud79rQIQ/iVvHbli0aP3B3MvL1SexHvKQhyx8p3NSNC1K6JRGFkBOaccV2cWBjeQAYUtjAgaE8qMf/ei2DyvBHI1lI+mpuv7CgQxc9Ivt53bYYYfu4osvXtBq9Y1QGuXqnpgCyNXxrXIVB+aGA8DRQdgSyIByn3326fbbb78WHxNjaSwb/0jgvYMW6ducN7vZzdqnsEa12uqb1fVNAeTq+Fa5igNzwwECOJoIgPzZz37WzKtPfvKTGw/ECTnPDWMG0ND+wOWiiy7q7nSnO3Uf+MAHWl9k4ILMAsjVdVYB5Or4VrmKA3PDAcKVsHUGgraW22abbbqjjjqq8YD2IgRE54YxA2mofnHY3eehD31o97KXvaz1ReKR2QfLgZA9FWQUQE5FNxWRxYHJcYCgjRbpfNppp7U9WDdys+7JtX7YNeubBH1zzDHHdE95ylMWdjfKoKUAMlxa2bkAcmX8qtTFgbnjAOGag8B929ve1l3rWtfqTjnllDb3hSERxH2BPXeMmkCDM3hJ1WeffXb3iEc8on36Sp/F7J3+Sbo6L48DBZDL41OlKg7MLQfiuUoYE7i+4nGjG92offIpX/AggN0vgNzYxyT8DhjaRJ6Z1S4/7omPCXxjKZuN2gogZ6MfqxXFgXXjAPCLBgIQDz300LaLjm3WInwJ4gqT4wD+Z4By0EEHdd/4xjcWBivpu8lRN701F0BOb98V5cWBDeFANBGV+bTSgx70oO62t71t9/3vf7+tixQfTWZDCKpKFjgQvvcHKM985jM7H7GOeTVpFjLVxbI5UAC5bFZVwuLAfHKAgI2QtQj97ne/e7fHHnt0v/jFL5oG2b8/nxyaXKvDewAZkDz66KPbx5yj3U+OuumvuQBy+vuwWlAcWFcORAir5Lvf/W77SPKBBx7Y/eEPf2hbnOV+BPS6ElOFX4IDeB8Taq5PPfXU7rnPfW4bvKRP3Kuwcg4UQK6cZ5WjODBXHCBcI2jNbd30pjdt85DmI2kpEb5JM1fMmXBj+32DFGD5pS99qXv84x+/AJDSpI8mTO7UVV8AOXVdVgQXBzaeAwG/z33uc90Nb3jD7hWveEWb4yKQS/hufH9sqkZ9wYP14Q9/ePfLX/6y+mZTjFpmfAHkMhlVyYoD88qBACCQPOmkk7rrXOc63fve976mVebevPJmaO3WH7/+9a87nqy+DRnzawY4Q6N36PQUQA69h4q+4sCEORAQ5BV5/PHHt110zjrrrAlTVdUvxgF9xez9nOc8p33MGjCKs5a1wso5UAC5cp5VjuLAXHEgAEnIvu51r2tzkBdccMFc8WBaGquvDGR80PrVr3510yCz0cO0tGFIdBZADqk3ipbiwAA5QOjSRGgmvCPvcIc7tC96DJDUuScpffXZz362O+ywwxa+4SneUWFlHCiAXBm/KnVxYC45EAH7xCc+sbvnPe/Z/eY3v5lLPgy90fqJxviDH/ygO/jgg7uf//znbSlOTK1Dp39o9BVADq1Hip7iwEA5QPha//iABzygCd2BkjnXZOkjjjkGMAYzgNIHrgsgV/dYFECujm+VqzgwNxwgdAWayb777tvW2M1N46esofoKGJqHPPzwwzv75bqON+uUNWfi5BZATrwLioDiwLA5QOAKNgawzdzzn//8YRM8x9QBSIDo/KpXvaqzblUogFzdQ1EAuTq+Va7iwNxwAEA6bC3HQefYY48th4+B9n4fIN/97nd3H/7wh1tfia+wcg4UQK6cZ5WjODBXHACOPFh/9atfdbe85S2797znPXPV/mlqLCCMxu+LHtatMo0XQK6uFwsgV8e3ylUcmBsORLied9553Y477th96lOfWhDCc8OEKWzoV7/61e6YY45plAc0p7AZEyW5AHKi7K/KiwPTwQEgaT7r1re+dXf22WeXRjLgbgOG+uvb3/52m4cscFx9ZxVArp53lbM4MBccIGwd73//+7s73vGOHU2ywnA5kP768Y9/3L3kJS9pyzyGS+2wKSuAHHb/FHXFgYlzIBqID/HuvPPO7WsREyeqCFiSA0DSB61f+MIXdr/97W/bAEdchZVxoAByZfyq1MWBueMAgHRY3rHnnnu2beZK2A77MeBUxev4BS94QXfRRRcNm9gBU1cAOeDOKdKKA0PgADC0BvKpT31qt//++7fPKdW6uiH0zKZpsHuO48UvfnEzideAZtO8WupOAeRS3Kl7xYHiQDPP/fGPf+wOOOCA7mEPe1j3+9//vrxYB/5cZFDjix6nnXZamVhX2V8FkKtkXGUrDswLB5hXzWPtvffe3ROe8ISFL0TMS/unrZ36i4bv/KY3vamthQSYpUWuvCcLIFfOs8pRHJgrDlhobpOAu9zlLt0RRxzRNg0QV2GYHAgYOr/3ve/tXvSiF9VWc6vsqgLIVTKushUH5oUDHD5+8pOfdDvttFN35JFHNoCsOchh935Aknn1oIMOan02bIqHSV0B5DD7pagqDgyGA8Dwe9/7XneDG9ygO+6449rWZYMhrghZlAMZwHzhC1/oHvjAB3bmkCusnAMFkCvnWeUoDswVB8xlfeMb3+iuetWrdu973/sKIAfe+7RHfeZsU4d99tmneR77X2FlHCiAXBm/KnVxYO44QBv58pe/3ADyYx/7WDPXEcAVhsmBAKE+ovnvtttu3YUXXlhOOqvorgLIVTCtshQH5okDvi/4mc98prvuda/bnXHGGTUHOQWdHycqc8e77LJLd+65504B1cMjsQByeH1SFBUHBsUBmsjJJ5/c5iC//vWvtw/yDorAIuZSHOBYJfzud7/r9thjjzawuVSiitgsBwogN8uiSlAcmG8OMNm9853v7G584xs3k10cQOabK8Ntvf4yqHHYTccGD6eeeupwCR4wZQWQA+6cIq04MAQOAMQ3v/nNbZnHT3/601pTN4ROWYKGzEHSIgHkIYcc0p1wwgk1B7kEzzZ1qwByU5yp+OJAcaBxwBzkUUcd1e26664LX4YoLXLYDweQdOg7X/R45StfuaBV5t6wWzAM6gogh9EPRUVxYLAc4PBByO6+++4FkIPtpUsS1h/AvPzlL+9e+tKXtuU5zK4FkJfk1VL/CiCX4k7dKw4UB9qXPA4//PDu/ve/f9uonIAlaCsMlwMBSH31xje+sXvOc57TzK0FkCvrswLIlfGrUhcH5o4DdmExj/WYxzymCdkCyOE/AgFCJlabOxx22GHt+5CJ14cVNs+BAsjN86hSFAfmmgOWCgDHpz/96U1zJFyjocw1YwbceP2jnwDkxz/+8fYVFl9kKYBcWacVQK6MX5W6ODB3HPj1r3/dHXjgge3r9IRuAeSwH4EAIypdn3nmmd2jH/3o9kWWAsiV9V0B5Mr4VamLA3PHAQBpw+vjjz++dtGZkt7PTjo0SbvoPPjBD+5+8YtfNOozyJmSpkyUzALIibK/Ki8ODJ8DBCsHnQ9+8IML2iNNpMJwORATuPMFF1zQ/f3f/31nDWuB48r6rAByZfyq1MWBueMAwXqf+9yn+8QnPtHaDhwjgOeOGVPSYEAo6Ksf/vCHzQLwox/96FLex0k3Jc3acDILIDec5VVhcWC6OHDRRRd1e+21V/fFL36xNJAp6rpo+T//+c+7/ffff2GbwD4o9q+nqGkbRmoB5IaxuioqDkwnB3wyac899+y+9a1vtQZE8E5na+aHah6sAi/k/fbbr5laxfVBsfpy6eehAHJp/tTd4sDcc+D8889vX4TINwVLqE7HI8FRR1/Zj9Ucsi+xMI0HIJ1zPR0t2ngqCyA3nudVY3FgqjhwzjnndPe6170WnDwQX4J1+F1os3Iao4MGablHv+/6YDn81kyGwgLIyfC9ai0OTA0HzD0ysVruIQDHctIZfvfRIAOQvFhPP/30hf5zQbssa8DS/VgAuTR/6m5xYO458LnPfa7be++921xWNMec5545A2YAcDSQcX7oQx/afexjH2uDm/RdAeTmO68AcvM8qhTFgbnmgOUdlnn84Q9/uMQc1lwzZcCNDwACRyAIIO2EdOKJJy70nzSO0iCX7sgCyKX5U3eLA3PPgVNOOaXbd999m6AlUAnWMrEO97EIQEZDBJCPetSj2qblrgOO1Y+b78MCyM3zqFIUB+aaA+9+97ubkwcmRCuJEJ5rxgy48QFH/aWvDjrooO7Nb37zpeYdqx+X7sQCyKX5U3eLA3PPgbe//e3dgx70oMaHAOTcM2XgDBjV9J/whCd0xx57bJlVV9hvBZArZFglLw7MGwcI1kc84hGt2RG888aDaWvvqAb51Kc+tXv1q199CfPqtLVpEvQWQE6C61VncWCKOPCyl72smeiQXAA5HR3HdBqQdH344Yd3Rx555IKTjnsVNs+BAsjN86hSFAfmmgPPf/7zuyc/+cmNBzVnNT2PAoeczEE+97nP7fRj/zNY1Zeb78sCyM3zqFIUB+aaA8961rO6Qw89tPGghOr0PArZKIC2+MIXvrB79rOf3b7nqQXxZp2e1kyG0gLIyfC9ai0ODJYDo+a3Qw45pHvGM57R6C2AHGy3XYqw9CMt8qijjmpWAP2XPsz9S2WsiAUOFEAusKIuigPFARyIAM31wQcf3NEi879d1M/gORAABJAvf/nLOwMdcenf3B98QyZIYAHkBJlfVRcHhsaBvoaBNsLVLixMdIL7JViH1muL05N+cn7Na17TPe5xj7uEaXW0rxcvZb5jCyDnu/+r9cWBS3CgLzQJVvNYD3jAA5qJTkL3zV9VGD4H9JXgfPTRR3ePecxjFpx0Ep80w2/NZCgsgJwM36vW4sDgOEBY9gUmgPTJJPuwWkMnuB9PyME1oAjaJAeOO+647pGPfOSCk076MlrmJjPO+Y0CyDl/AKr5xYFwIAAZkGRe/eMf/9jttdde3etf//qWrAAy3Jqus23mHv7wh3d//vOfLzEISl9PV2s2jtoCyI3jddVUHBg8BwjMaBXOv/vd79rHkt/whjc02vv3Bt+YOScwfYUNxx9/fOebkADSwCehADKcWPxcALk4Xyq2ODCXHOgDpGsfSb7HPe7RveUtb2n8IHTFl2Ad/uPRB8h3vetd3QMf+MDuT3/608IASAuqH5fuxwLIpflTd4sDc8WBUfD72c9+1u2yyy7dO9/5zsYH9/sayFwxZ8oa2we/9773ve2LLEzm/fj+9ZQ1b0PILYDcEDZXJcWB6eAAgZkDxRdffHF3l7vcpXv/+9+/sIaunHSmqy9R+6EPfai7733v2/3+97+fDuIHQmUB5EA6osgoDgyBAwHHaBYXXnhhd/vb3759jT7mVZ6tFYbPgfQlSk866aT20WtzyhWWz4ECyOXzqlIWB2aaAwFF55hRv/vd73a3utWtulNOOaVplkDSvf781kwzZUobZ61q+opjzqmnntrtvffe3W9+85vWovT1lDZvw8gugNwwVldFxYFhc6APejGjnn/++d3Nb37z7iMf+UgjPsDZTzvsVs0ndUBRcOaY87GPfawB5G9/+9sFE3qB5OafjQLIzfOoUhQH5oIDfYGZrz2cd9553c1udrPutNNOazwIMPbTzgVzpqyRzOD66utf/3rzRP7Upz61YGLVdzmmrFkbTm4B5IazvCosDgyTA33Qoyn6f84553Q77bRT98lPfrKZVvtphtmKogoH9B/N0fIO88gFkKt7LgogV8e3ylUcmFkOAMHMM371q1/tdtxxx+4zn/nMwhZz0SJnlgFT3jD95wCQ9mC1VOcTn/hEM7Fa19of5PSvp7zZ60J+AeS6sLUKLQ5MJwciXIGg4ytf+Uq3ww47dJ/73OeawNWqzENOZwtnn2r9ph+B4ZFHHtkccz772c92e+yxR/eLX/ziEgyowc4l2HGpPwWQl2JJRRQH5pMDhGpfYLo+66yzuu233777/Oc/35gymmY+OTX8VuunX/3qV+07kBxz9OOee+7Z/fKXv1wgXpoKS3OgAHJp/tTd4sDccIDAzKHRAPKMM85oGuTZZ5/d+OB+H0TnhjlT2FBg6DuQ//u//1sAucr+K4BcJeMqW3Fg1jgQjaJ/Pv3009sc5Je//OVLzF3NWttnsT0///nPu2OPPbbNHZ955pmlQa6ikwsgV8G0ylIcmEUOBBj7GiLnDusgOeu4nzQ5zyIfZqVNP/7xj7s3velNTeMvgFxdrxZAro5vlas4MHMcCOj1AdICczvpfO1rX2uCdrE0M8eIGWnQ97///YWvsBRArq5TCyBXx7fKVRyYOQ4E/PpeqnbQAZAWnAPOgGfOM8eEGWrQd77znQLINfZnAeQaGVjZiwOzxIGAZNp04oknNhPrBRdcsGBezb06T54DBir6zJFBiwGO/+eee27nM1eCjQLsxWpeMiHp87/Ol+ZAAeSleVIxxYG55cBiAEmD/Pa3v10AOeCnIiCJRNdAkln1Ax/4QPtvJyQA2V8H2c8z4KZNlLQCyImyvyovDgyLA4sBpM9d+arH6L1hUT6/1AQQfQw55nF76Zo/Pvnkk9uG5TTIe9/73m1tZDhVABlObPpcALlp3tSd4sDccWAUBJlYfTD5f/7nfwogB/g06C9g6DCI4ZgDJJlP3/e+93Uf//jHG0DyRv67v/u7zqYB/TDa3/17dd11BZD1FBQHigMLHBgVmABy55137n7wgx8UQC5waVgXAUTbATp8yUM/WgNpD12Bs9V973vfbvSDyTUPuXRfFkAuzZ+6WxyYKw6MAuSHPvShbpdddul+9KMfNc1k9P5cMWeAjdUfQM7BpOqzZABT/Etf+tLuC1/4QrunH+93v/t1v//97y/RiurPS7DjUn8KIC/FkoooDswvBwjavtD84Ac/2N3tbnfrLrroombGcy/H/HJpOC3XF/rMB65p+x/96EcXAPLZz352W57D/Mrcuv/++3d/+MMfFvq338/DadGwKCmAHFZ/FDXFgYlygLDtB5rHbrvt1l188cWXAMjRdP08db1xHAhA0hp5rDKpivvzn//cPe1pT+u++c1vNgA94YQTugc/+MHtiywBxpw3jtrpq6kAcvr6rCguDqwbB/pC0/VJJ53U7b777t1PfvKTBpDRMAsg160LVlywvgCQQNCeucJvfvOb7qCDDuq+973vNcB8+9vf3h144IFN00zf9ft6xZXOSYYCyDnp6GpmcWA5HIjQdHaccsop3T3vec9LAWTSLafMSrN+HNAPAI+J9a1vfWvbHECcAc0jH/nIzn6swPO4445rgJn0KKo+3Hy/FEBunkeVojgwdxwgPB28H/saZOLnjiEDbbD+AIA8V4Hg+eef3wDzwgsv7P7hH/6hff/RvX/7t3/rHv/4x7dWlAa5/M4sgFw+ryplcWDmOUB4EroWnQuf/vSnG0By0jGv5R6njwobz4H+4CTASHN07ZuPxxxzTPff//3f7b+9c5lYea3qr3/913/t/umf/qndA6hC+nrjWzI9NRZATk9fFaXFgXXnAGEr0DoE6+pokFnmIa4AsrFmw39GAVI/6CfHn/70p/ZxZJsFAD7bzD3xiU9sXqsA8fnPf373z//8z+1eHyCjTW54Y6akwgLIKemoIrM4sJEciHbxX//1X93d7373thcrgZz4Eqwb2Rt/qWsxgDTXyFOVxv+Sl7ykbeign0499dTusMMOa5qlfDxaX/7ylzcNst93GRBtfGumo8YCyOnop6KyOLDuHIgAJkCjZdi6bI899mjOH8x5pT2uezdssoL0jwSu9YUBzPvf//6mKT7vec/rfvjDH7ZBDK9VWiOzuPCoRz2qfTxZvgxyNllR3VjgQAHkAivqojgw3xyIACZ4c/z0pz9tW5SdffbZC9pH0s03tza+9X2+u9ZHNiG3VtUWci94wQs6/QUAX/3qV3evetWrFgY0D3rQgzqbPqSMDIA2vhXTVWMB5HT1V1FbHFg3DkSzyJnjBxMeDZI3q/jcI2grbCwHAm5qDUDaOcfg5Ze//GXTGH/1q181UGRu/fd///cFQNxvv/3aNnQpA7hW2DwHCiA3z6NKURyYCw7QKghQZ04fPq77uMc9rrvuda/bve1tb2v3+iDpOoJWHv+jmTgzyYqrsHYO6JfwMuDoTHv8zne+0wCSEw6TKqcdHqt21nFteznfgvziF7+40F+hSBkVNs2BAshN86buFAfmigOEZYQvcPNx3cc85jHd1a9+9e4JT3hCA0xCmsAVXOfo/yeUAaSypFVWhbVzoA9mAct3v/vdzTHnZz/7WfesZz2rASSHHQMbn7jSF9ZE7rnnnt155523ALLJv3aqZruEAsjZ7t9qXXFg2RwggAlOZ+ZV2sivf/3rbt999+2ud73rtbV0AI92SfBGYEdbVFHipBn9csSyCamEy+bAW97ylmYGB4KHH3546zPzkfZd/dKXvtQGKl/72tcaQOaTZennAsnNs7kAcvM8qhTFgbnhQDQ/Zwdt5Fvf+lb3kIc8pNtmm206npI+nsy0SjPM5gEYRPA6Ao7uSxdPyrlh4jo2NAMQZ4OUo48+ujPvqE+OOOKIxm/zkfe///2b5zEQ9BksgxxaZvoo53UkdSaKLoCciW6sRhQH1s6BaBQRvkoEkr5CbwH6M57xjO7GN75xd8ABB7QddmiX8kSblA8oOt75znd2r3jFK5rwzq48a6ewSsDj9IsNyXmr0tQNYnzeSrDr0QMe8IDWZ/rnzW9+cxvgSJ8BkHQpq2Wqn0U5UAC5KFsqsjgwnxwAdgHKaJExtxKor3/967uddtqpHUcddVTTSgCiPO7THmmNPrt0n/vcp3vgAx/YnXHGGQtaZIRy6giXE5//db4kB8Kf8A2PbUT+mte8pmn55hdp99L5ggcTq92PpPfhZHPJTK/ypYxL1lD/FuNAAeRiXKm44kBxYIEDEarA0wH87PN5k5vcpPt//+//tYXqtEzCOeZV6c4999ymudz1rndt2o2v28fLUpnmM4GwEM1GGQGDBQLqonEAX/rmavx805ve1ECPh6qlHfgYvudLHhysnv70pzcg7fO52Lp5DhRAbp5HlaI4MPccoHXQJAGfANzs4HLzm9+8u+pVr9q8Jm2UDSAFZlVpaC3mxi5/+cs3rfNf/uVfmtel8oAkod/XaMSVEG8svNQPPuGNgG+W3lj8L96GATR69znnmDNmUsXP/fffv20zp++Kt5di65IRBZBLsqduFgeKA4SxQyBwgR9Nxtk+oADwpje9aXf729++A4Bf+cpXFhx4pKNd2mjAYvUb3vCG3Z3vfOfuxS9+ceeLE8pI+RH+fZNt6q1e+IuWDQzxBK+sezzrrLPaf2seX/e61zWw9AUWW8vho/lJ/D7++ONbnuQvvi7viSqAXB6fKlVxYG45QJjSPiJcA2T5DwBPO+20znZmW221VXfb2962e9nLXtY0xWid8jD5mcPcZZddumtc4xrdDjvs0Bx/zjnnnFZ+tFNpc6i7hPn/rTkNPwDfU5/61M5eufrhjW98Y2fJh3DyySe3zcmltfWcOWP9k/5KGTnP7YO9jIYXQC6DSZWkODDPHCBIE1wTtLQT4Ce4plkSxjxX73KXuzSgNPfoG4U8YC1FkE5+ziM20qbZXPOa1+y23nrr9jHfT37ykw1ECf+YWiPUU/+8nvFBwBc85KlqXpEZ2z3erCeccEJL8973vrfxVzprH295y1t2X/7ylwsgV/HwFECugmmVpTgwTxwgaBMiqP2n5bnnbO7RPQLbXKRdXQjmq13tat3d7na3Nj9GSANJ85LA9fzzz29furfXK83zBje4QbfXXns1r0vfoZROmeoIDfmv/tCi/k2F0BdaF0uXcha7N5Q47QCOaNUWXqs2I8+g45nPfGZ34oknNnJpkrxbpePResc73rHxOjwcSpumgY4CyGnopaKxODBQDhC6DoLb4TqerObHdt111+7KV75yd5nLXKbbbrvtOoLczi7MqYS74Npi9oc//OFt39fLXe5yTbO8173u1UyHWa7QB0J5zW+mDOCh3gAGOsSNBjSKV6ezdNMS0C6g3QeRmVLDb1vLmXvEI+AILN3Du912260B5LS0c0h0FkAOqTeKluLAFHOAQA4AOQMr3yVkQrW5wN/8zd80TZFDz6Mf/egm4C1wp3UCNxqj5Qo0IwvdAep1rnOdbtttt23zm8y35tJszm2fWAApXx84sQ8dwA8Nocd/6dxLcB2aEzfUs3akXQCS0xM+iLdhw8Me9rDmHIV+3qwA1D3fhzRIueCCC4batEHTVQA56O4p4ooD08WBABDhTJBbq3eLW9yi++xnP9uEtK3RzFFuscUWbX9X1zxaaZXATj5nAMh5x1KGhz70oQ0sLSexJ+ytb33rthDeuj9LTZgRsw4TCAYcQ4s4YC0+QBmuqs8x9KANDrxx+IqHgQUeA0GbMhhsaJ+NAVwbQOCNtaoXX3zxVLRzaP1QADm0Hil6igNTzAFCXIi2Y64MoL3jHe9oAp5A58xjgfvtbne7plFe4QpX6Lbffvu22wvTIIFP+AM16Z3tNWrNn884EfjSX//61+9udKMbNS/NffbZpzvssMO64447rq0JVC8HFdqVMtCFJmDo7Ej50wCQaAxAatNJJ53U2gUQDUIApG93+kTZK1/5yjbAsISGw47lNXGomuJHayKkF0BOhO1VaXFg+jkQoOm3JADpTHgDO96qdnOh+YjjpQoAgZ7PNT32sY9tWuaWW27ZQO9v//Zvuyc96Unde97znqYJ9bU/+SwX4Qhkzo2GSWN62tOe1rRK3z28xz3u0d397nfvgOYjHvGItk7Tx4P/8z//szm3ABK0oDFl99sw1OuAuqUdp556aqNfG5idadk8hQ0GPv/5zzcTq6U2Ni13X7z8FVbGgQLIlfGrUhcHitIfxL8AACAASURBVANLcKAvhF3TFnmpAklzjABOPKCMNkd4A0sgZo0kz1c77zh23HHHplmecsopDRij7ckD3LLRgGtBPABlWmTW5dFJs7zf/e7XaKDNquPAAw9sazWBZpahAE205ViimSu6lXZGC5RZHRlM9AtL+/px0qUM7QN42oaH/nPK0Uba47ve9a62/61veNrlyAAkO+r0y6zr5XGgAHJ5fKpUxYHiwDI5EMFPgJsbtO2Zr4DQJgNoEfiAIgFASWPbNPOS973vfRtAmnvkrGNdJeceZlQboANVpkNlOYBkgNJ/dARElO1zT5aWMEl++MMf7o499thWj52ALEvx3/2UF7rWel6svIBwgLI/YFCfPOIc5hK1RRu0l7PSV7/61RZvrtEGDTRmh6UyNPAXvvCFbU9WecKLPq/X2qZ5yV8AOS89Xe0sDmwQB2g1gjMB/ZSnPKW70pWu1J199tlN4BPUhHbOrgGb9DnLRyPivGO+0tZpdt4BljRMnrG8M5ln3/CGN7SyaUopFxADloBD4nMGOOqTBugAT6bXAHiAFo2jx6bYOJpu9H8/X+4lDl1oCVCiL2lco9E94G6QYMN4mwOYj73KVa7S5mF5CvMa5t2Kf+GlciqsjgMFkKvjW+UqDhQHNsEBgplQJthd0watg7RfqOAeQMiRYgIIAbFoT+4DLtolU6vvHnJKAZg0S4AZzclnnezeY6MBZlYgS4t1ACCg6OjXEfBJfegWkiZ09c+huX/u3+9fpyzlJz5li0t97on3H41M0tpskMCsak6RuVp7mZ4tf+GAAyizsYLy5I2TU7/MPq11vTwOFEAuj0+VqjhQHFgGBwIAhLxrmsxb3/rW7rKXvWwzDQYkAhA5J1/+q0ragG2AwxkAcEj5xje+0X30ox9tAHHIIYe0XXjs3sO7FWCab9x99927Rz7ykc3k6CPOzLfymRsFjAFNdQmj9fi/2BF6++fF0olLublWl3rxyJlXKjCnHVq+wdTL7EsjtMj/Vre6VfPaZULljGPAwYGJpy7NV7l4olyHcsWhzXX/fyOmfpbNgQLIZbOqEhYHigPL5QBgJJiBEBCzO44lGgCB4A5YjJYnnpCXJkGcshKXcp2lTQASgI/58bWvfW3b35VDDi3TUhKHXX2ue93rNvCkjfGupYFZeM8r1hykNYMAWL2bOtAyemwqLe1XeRdeeGH7+snpp5/enGd84NjuQWi0KYJ9aZmQmaOZTW0Rh2ccb3w1BZBqs6BubVendvdDBhW5L014109X15vnQAHk5nlUKYoDxYFlciCCOIBGSHMo8fUOziRMne4R2hH2yyx6IVmAaVOAlHggDVRsKMDhh0cn4Dz00EObV6s5TGsxffjZnKb9YJktb3azmzUAdX/PPfdsSyU4GgEzc57/v73zDpeiyPqwOe+KGFABVxQwoSCuiIiKmBAEEcUABhQxoSKuYlaMgBhWRV0woq45J1bFiAkVXAyoiIqICfPquvtffc97vv2NzTAzt3tuT7pz6nmanu6uOlX9G55576lw6rjjjjMbzBwFYBwjR46045hjjrHxUrw/9mEktizjhGwFxq4adI2yhpNJS8wyxUNkTJHoNwQ9uPfee61+7uPpCm56p+xzRhT/UBIFHJAlkdWNugL1qYAACRjxZIAg42iAgfWJ7EJBHn7oiwUkygqSqi+X2tRBOvvss23yCtd4W0D6+++/N2+TJR4EUcerY1E9S03wKjt27GjrKnfcccew5ZZbWuB1AIenR3AC9rUEqET2UcACQMt7brbZZlYGyPXu3TsATWbJjh8/3padsIaR7lRm4dJFynihukjxMqmHsVS878bqlEsXvxdfAQdkfK08pyvgCjSggKAE/AAk1wAJODImSBemAFkIbg1Uk3mczwb3gTSTdFgsDwS5BkQ846BttJEDT5Pn3CeOKcskeAfyA1PWVgJ3ovMAVWaK8i4cLLVgDJGDPNRJGbpWqUOTgNQm7mGb7ma8XA5pRTsJmDBq1CibpEObPFVOAQdk5bT3ml2BJqcAP/5KAhGQYaIMHhbByLnfGO9R9gudVTd7TNLFCdgELJ7RTgFTbeY5oGIMk6UpfKadsqWzAMdZ9ziTdC37QJDPyssZm3p/rqlHBwEACJBAdCAFVSCPp8oo4ICsjO5eqyvQJBXIBgXX/MCff/751h3JMg2SQFIqEbCP58Z4IeOAeIjcA0RRr0zt4KzEchRC1JEEMj7zHhzRvCqj59iOltHz7HJc84dDNFGOGKssiSE6TkMTmqJl/XNpFHBAlkZXt+oK1LUCAg8i8Jlg5YQ/I/SbngGJNFIUWFGbdHnSrTts2LC83li0LZQFcDfeeKN1y3Kt52pn9Dr6Wc85c5+yKp/9LHqtfNzjMzNWmW3LeChdryTseaqMAg7IyujutboCdaUAXYfMZKXrEE8pzR/9KKjkHXJm6QbjeVdddZV5jtF8ucQX0NiSi0DnspUrbxr31B5pQf38IcGSGDZDxtvlGfc9VUYBB2RldPdaXYG6UoDJLCxtoMsTz0hQSEMEbAlmwBeg0L1Kty77ThJlRvXpnKtePbv66qttUhFdnKVM1KeDegTIZZddNjB2qj8kHJCl/BYK23ZAFtbHn7oCrkAKCjALlDWHAwYMSL3rEMgAExLjegCFWaTs4MFmzQQPIEVhZDey/tFzbepMqLdSJtXHmSRAMkmHmbRc88wBWcpvobBtB2RhffypK+AKpKAAk2RY6sHaQE1OEdRSMJ/xELGNXSLPsOCf8UfuCUKF6gJEHNdff72FdyOiTilTLkASDg9AvvHGG+5BllL8mLYdkDGF8myugCtQvAJ0VxLNhgX4dH8CMcbY0kiCnwBHF+5DDz1k0XGITENd8sKUN1e9dNOSl02YWazPesdSplyAZAYt46YEKNf7qPu4lG1x27kVcEDm1sXvugKuQIoK8GNPuDaizNDlyXUUVoApep2kasEPG3iLgPfkk0+2qDYs6Oee6lPeXPYpz3HnnXfamk3GTcudiFvLbh2EmRMYi9Wl3G1vivU5IJvit+rv5ApUoQJHHnmkjQlq0f6HH35oyy+03g84sVg/6eQYAAL4AAoHY4dsh8XuF/JWydMQaARPYqISSu6VV14pu4pPP/20LYd5++23U/Owy/4STahCB2QT+jL9VVyBalUA+BEknFimH330kYWfY+kHC+KJSYrXp/FDrf9L8i7ATWONrH9s06ZNZrG/lkvwvFASIFliQXxV7V9ZqEzaz9CEXT3oYgX2DUE97frd3qIKOCAX1cOvXAFXoEQKsMch4AKIAJOYpaz7I2rNSy+9ZN4js0+TJkFEQJk5c2ZYbbXVwmmnnWamBNyGxjxpEwebE+NBEri83IlQfLSdmKwAW+9W7nZ4ff+vgAPS/ye4Aq5AWRRgR4uWLVtacG/BikDmhJ9jk2CNuwG6JAmICCQADi8MyFx++eUGGe7FSeQDSpSnnWyTVe40a9Ys279SMWsdkuX+BhatzwG5qB5+5Qq4AiVSgB0yAA8TZwAaQNLBuCGeHkCICzQ1U7a4pvxTTz1lUXsmTpxo19wTdAVSlY2eyUcCTgQ1YL/HcieWp7CFFtth0VbaVKjN5W5fvdXngKy3b9zf1xWokAKEmWO/xHnz5mV++PEks4+kgIy+DkDRTNAbbrghA0jBL5o3+7O6aFmDyFjp/vvvb9CWtyvIYos2cmZck103VJYz95Un6bu899579kcEk3UEfmx5qowCDsjK6O61ugJ1pwBdlize//zzzw0gACDfUaw4wARAEhj95ptvNjOqo5BN8giAdPVusMEGoVevXpktsigr2JEXaDLblu7YkSNHhksvvTRMnTo1vPvuu+G7777LLC2RzUJ1R58BSMY/GQelHurk7KkyCjggK6O71+oK1J0Co0ePtmUeRKgplVeEXeDSrFmzMHny5IzGDUFGHiEFWP8IyLfZZhubbSsj0TbjOQI/unO7dOkSiJ+65JJLhtVXXz2MGTMm/PLLL0XBDUBig3FZ2kydDbVd7fNz+go4INPX1C26Aq5AlgL8yJ955pkWwg0PS95YVraiLwURgAK0mKRDRBwlPdd1rjN5aNecOXOsnZtssklQuDmeRW2wvpI1m0BywYIF5j2yfvKBBx6wMHe0oxjvD0Cy6wl2qM8BmeubKt89B2T5tPaaXIG6VYAfe5ZdEEnnp59+KhkgqYfxu+bNmxe19yRdp6yj7NChg40FKtxctKuUOsjHPT5zCIgCmuDIsyQJQBJq7u677zabspfEhudNTwEHZHpauiVXwBXIowA/9IR/Ixaruh/zZC3qtkDE+dlnnzVAEnQ8Cq5ChlUesM2fPz9sscUW1k3LmCLPosCTTezxLBr5h8/k1bNCdeZ6BiDZoouNk6mHQ23Lld/vlVYBB2Rp9XXrroAr8D8Fjj/+eNvRA0Dyw592ElBYpkE0mgkTJlgVglvc+phEBCAB1auvvpqZvNMY8DVUNxDkIIIOXay33XabXet+Q+X9eWkUcECWRle36gq4AlkKHH300aFnz542dlcKr0je1owZM8yDHD9+vLVA97Oak/fyiy++CJ07dw4rrLBCeO655zIwFyDzFmzEA4GQJSYEK3dANkLMFIs6IFMU0025Aq5AfgUOO+yw0Lt370zM1Pw5i3uiMUECfbdo0SITCUeAjAtlJuZ07do1LLfccoG4rCqHnVIlAZKNkgHz7bffbvWWss5SvUtTsuuAbErfpr+LK1DFChx44IGhf//+JRtXU7Bylmmw0P/ss8+2ugTIhrpaBUK242Jz52WWWcbGArkvG8qTtswCJB4rS0bYOFn1pl2X24uvgAMyvlae0xVwBRqhwL777mt7QgoGjTCVs6gi3hCpZ6ONNrJJQdxTfYJczsL/m3DDs4ULF4add945LL300uHGG2+08oJrqTw6tZElKksttdQiYM7XXr9fegUckKXX2GtwBVyBEMJee+0VDjnkkAxw0hIFuJA4AzB2BOnUqVM44ogjbEZpQ2BUOzTGyDpNuoJZ+M92XJSXDYFMZdI6q+2PPPKIde3Kg1Sb0qrH7SRTwAGZTC/P7Qq4AkUoAGD69OkThg0bZqWj6wqLMLdIEWwrARRio3br1i3QpSvwxAGbYMQ6zb333jssscQS4YILLsjMYlU92CpFwv4999wTll9+edsGTG0vRV1uM54CDsh4OnkuV8AVaIQCdHXuvvvuYfjw4WZFMGqEyUxRgYsbQIUIN8RR7dev32LeX6ZQjg8CHzuLAFcAyRZd6qZVPcqXw0SjbqEJ0X/oYmWfTOorVV2NamgdFXZA1tGX7a/qClRKASbQMK5HYG9Smj/8UZBgl7oAHEtK8FT1vFCdPOMgL+s0hwwZYoAkuAH2om0uZMcyJvxH9gDxNddcY/USKEBt0vOEZj17Cgo4IFMQ0U24Aq5AYQXwjgDWqFGjCmcs4im2oxDk+thjj7Ug4kCHa8Emn3mVB6jEWT3qqKMMVAQ3YJ9KUqlARd0k2squIHiu999/v93TM7vwf8qugAOy7JJ7ha5AfSoAIOmyFIzSUkGAFAixf8opp1g0HLw/3S8EOD0DkHTRAkYm6TDRB4+SpDxptVt2BEHaetFFF1kXq9ZfAk1PlVPAAVk57b1mV6BuFABSPXr0sB09AA1QEBgaK4LsCWB4fOw92b59e1uyoXpoQ77EM/JxBlR0rQLIwYMHGyB5lubEomg7VDf1AnY8SPaZJPFM7xUt45/Lo4ADsjw6ey2uQF0rwA89Y5Ds6MEPvo40RMEWABMI8boIM8emx4SNE2D0PFedghR5ABXtBJCMZSp2bCkBKc+VSUwA8qWXXrJ2OyBzfVvlu+eALJ/WXpMrULcKACnWFuKZkUoBSAEM29dee21o3bp1mDt3bkZzgTJzI/KBZ8CRM4A955xzDJD77bdfYFYrz4BVKRK2OQDxwQcfbBF8pk+fXtI6S/EeTdGmA7Ipfqv+Tq5AlSkAeAgzN2LEiIxHVwhYSZovuEW9LZZLrLPOOoG4rKQ4dUUBefHFFxsg99lnn8z+lQJkHFtx2p9tj/WXaMRuHm+99Za1mTZ5qpwCDsjKae81uwJ1pQDeGLNL0/7RFyARk88cLJMAkGx9RRKMCgmuPNHZpADrxx9/tPJ6XgpAYpMIQLvttltYe+21w+zZs62padVV6L39WX4FHJD5tfEnroArkKICjOexfKKUgJQXePfdd4d11103sDsGkGFcsaEkAALIK664wsYCCTYAuHim52lBS13CajO7iBAknUDrc+bMseZSV1r1NfT+/nxxBRyQi2vid1wBVyBlBfiRP/zww+0AVmn/6AteNBvgPP7446Fly5aZ/RwF5UL16hm2Jk2alAGkPEg917mxEmGHujhzfPbZZ7Y0ZcMNNwxffvll5r7a3tj6vHxyBRyQyTXzEq6AK5BQAQBwzDHHhAMOOMAmwSQs3mD2KET4PGXKFPMgn3nmGQNm9Hk+Y7SRVC5A0ibVyZluVXYh2Wqrraxbl7ZwP07b872T32+cAg7IxunnpV0BVyCmAsxg1YbJFBEcYhYvmE0QwSbHk08+mQEkwNPzQkbUnnIBUm1Vm2bMmGHdq8SsJZqPUpy2K6+f01XAAZmunm7NFXAFcigADIgSs/3226ceui0KGkFu6tSpBpvnn3++aj1IZBL8aPe0adNCixYtwqBBgzIB0smjd8ohq98qsQIOyBIL7OZdAVfg/0Fw9dVXh6233trW++GlpZWigBRwAGPbtm0zC+51v1CdAlG5PEjaonYxMYi9IFniceKJJxoUaQ/P1a5CbfdnpVHAAVkaXd2qK+AKRBQAOjfffHPo2LFjYENigJBmEkR0fuGFF0K7du3Ca6+9ZtVwX8/y1avntPWGG26wmKhs8qxJOoKZ8uWzE/e+2sQZPdBnpZVWCqzBjNaVVn1x2+X5flfAAfm7Fv7JFXAFSqgAmwEzCYXZmmkDUkBR8/EgCTXHuJ5SXK+V5RfAatlllw0DBgwIP/zwg03cUR1pAUt21K5LLrkkrLjiipnNktVu5dO1n8ungAOyfFp7Ta5AXSvADhV0e7733nuZNYVpCRKFF0B57rnnDJCKSEM9cUEDsG666aaw9NJLh4EDB5bMg9S7q+1MYsKDZAYuSfd1Vn4/l08BB2T5tPaaXIG6VoBuTwDJThXAKi6w4ogmiMjus88+G1hP+O6772bqaqg+PQeQrIMkWDnLUojFyr1oHXHaFCePvEe8VuKwNmvWzMLMUVZettoVx57nSVcBB2S6ero1V8AVyKEAP/KzZs0KG2+8cXjooYcMNgJOjuyJbmFbtjhzDSCpi2DluteQUdkAVgQ7Z1eNgw46KLObh543ZCfuc9qpCD8s69h1111t5i07kABORdqJa8/zpa+AAzJ9Td2iK+AKZCkACD766KPQoUOHcNttt6UOSHliQIyDLlbqmj9/fmxAygbnCRMmGCDx6rTdVZqABI4c//3vf61933zzTdhyyy1tEhP3BEfypFlv1tfilw0o4IBsQCB/7Aq4Ao1XgB/8BQsWWJSYSy+91OAgCDTe+u/jdcANqDCOB3AWLlyYAUwh0AhY5OFQLNbDDjss/Prrr9bEQuWLeQfs0Y1Km/F0W7VqZV4k92gPSe9TjH0v03gFHJCN19AtuAKuQAMK8EPPbNCddtopnHrqqda1yL20kuAloLCmsEuXLhZoXM8EnVx1CpCcyQ/E6WI94ogjSgZI1UWb33jjjbDGGmvYmGe0nbQlep2r7X6vdAo4IEunrVt2BVyB/ynAj/xvv/0W2NEj2m2ZlkCCiIBy//33h+7du4eff/4540E2VBc2OADW2LFjDZDEj1XYN9XRkJ0kz2kv9T322GNhlVVWCSNHjlykuNq0yE2/KJsCDsiySe0VuQL1rQBja6ecckog1iibAwOGNFIUIgCH48477wy77LKLhbWjKzcO3JSHLs4LL7zQAMkGz//5z3+smXqeRptlg7poL4EJlltuuTBmzBh7pPegTj57qowCDsjK6O61ugJ1pQA/9MDgmmuusXBz7H3IdRoJgAhefAaIkydPDn369LHPXAvGyperXj1jQtHo0aMNkKxN1EzTXGUac0+aoMMFF1wQVl55ZQtQgE3egzaTR21vTF1etjgFHJDF6ealXAFXIIEC/Mjzo//ggw+GTTbZxCalpAWebEACHBb6EyaOxLVgQ958CRhx4Omec845BkiNl+YrU+x96lG7mQQ0fPjwsNpqq1lXq2wCdvJw9lQZBRyQldHda3UF6koBgMAP/SuvvGLLL15//fXU3l+giQLlyiuvtLFOKhGIBcBcFfOMxBlA0rVKJJ1zzz3XAKvnypPLRtJ7tBe7xHrt169fWGeddcL06dPtXlJbnr80CjggS6OrW3UFXIGIAkAKkH344Ye21IN1iml5RtglyUvF7rhx48KRRx5p9/Wciyjo7OH//oneB5DHHXecBSun61MgU/5oXt0r5ky78G7pbmYbMIKrf/DBB3nbWEwdXqZxCjggG6efl3YFXIEYCgAdwPL999/bUo/77rsvNUAKWACHzwDtzDPPtG2j1DTl0XX2Ofqc2bbMXl1qqaUMtOqeVZloXt0r5owd/nBgDWT79u1Dt27dwtdff+2ALEbMEpVxQJZIWDfrCrgCvysgeAFKlnqwN2RaoKEWbOnAKzv++OPDWWedZQ1Q3b+3pvAnlnWw/hFA0lWbDcjCpeM/pb3Yprt53XXXtbB2xH1NU5f4rfGcuRRwQOZSxe+5Aq5A6goIYKNGjQpnn322dbmmUQl2gSCJM17Z0KFDbbG/IBQHOspDaDki6ADI6667zmzyTM/TaDM2sAcg2eWECToXXXSRtT3tetJqbz3acUDW47fu7+wKlFkBAYYzYdzw8IBDGgmbUUDipQ4ePNh25MB+Ug8SQA4ZMsR287j++uszttMGF/boDmbvyVVXXTXcfvvtJfNW09C5Hm04IOvxW/d3dgXKrIAABhAefvjhsP/++6fmkUXBRT10kfbt2zfcdddd9pYCcTRfvtcnD4A89NBDbZnHLbfckmmn3iGOnXz2o/dl7/zzzw8tWrQIr776avSxf64CBRyQVfAleBNcgXpQACBwsJRhzz33zIRwS/PdsU+Unt69e2c2HgaQglGcuhgHJBwesVjvuOOOkgFS4Ga8c4sttgjz5s2L0zzPU0YFHJBlFNurcgXqWQEghffFrE32PmR5Q1pJXh11MBO0Z8+egQ2aSTzT8zj1AUgmEgFIYroqCbJJbKls9hkb2AOShMQjqIFivmbn9evKKeCArJz2XrMrUHcKAIYvv/wy7LHHHmHGjBmpvb+gBXQ+/fTTsO2229rs0CjUBKV8lcoGAc733XdfAyRBxHU/aiufjbj3scnBdlybbrqp7XCieuLa8HylV8ABWXqNvQZXoO4VEFzwmNj2Cg/tnnvuSU0XwQX7BCPYeuutw/vvv5/xHqmfPGpHroplgy7avffe2wD55JNPZsroea6yxdyjLXQ3t27dOmisM+06immXl/ldAQfk71r4J1fAFSiRAoITUKArkVms7FwhcFFtsXAQ9DhzsLcii+7xJEnROgq9nuoH4IR+W2aZZQIRf7ivo1D5fM9kN/s57br11lvDeuutF6ZNm2aP8+XNLuvX5VHAAVkenb0WV6DuFQAIJLaPYh0k4dwUxq0xANJkF87YmTp1aujRo4d15VJfXEDqCwKQ7ASy/PLLh5deesluR9uXFGK58tMm2nvaaaeFzTbbzLxe1e/n6lHAAVk934W3xBVosgpEIcFCfiLUMNOUsG5R+CBANG8cQZRfgLz77rtDr169LKwd5YGR4BzH3nfffWdjpGw/RRcoKbuNcewoj9oXvaY9jHUCcvbHpM7sfMrv58op4ICsnPZesytQNwpEAUUoOMYfWdrw7bffGrzkBSJING9cgYALNig7YcKEcMABBwS2kSLpmT7nsylA0SagxeL9t956K9MePc9XPt/9aDm1hXZ+9NFHYfXVVzdPmj8Uohrks+X3y6uAA7K8enttrkDdKiBQAEjG9tq0aRPmzJljYAAOAkSxgKQcNs477zyDDvXIFvepX23I9SXo2TfffGNLL4DXu+++2+ig6rJLnbSHbmWOKVOmhOWWW842kaZ93PNUXQo4IKvr+/DWuAJNVgGNN9LFykSa9ddfP8ycOTOzoTH3SVGgxBVDZaiDTY4JVM5nQQcwkUf5ctnVM9ZR7rzzzmGttday7acAbRoJ+wIk4fDoZqYb94knnrB26Q+ENOpyG+ko4IBMR0e34gq4AgUUkCdHFkDxxRdf2P6HTz31lF0DMkGsgJmcj7CngwlAgwYNCtdee23OvA3dBFKsTWR/Rjzczz77LGNb71AMyCgr0PKHAO089thjLUg5s23pYiVPMbYbeid/XrwCDsjitfOSroArkEABIEYCBOwLuc022wQm1ABHwCDIJTBpWVWOM3FU99tvvzB58uSkZqx+AbJ79+6hbdu24fPPP8+0q1hA0i7Kqp14j0zKYZyT5Sg//vij7eKRuMFeoOQKOCBLLrFX4Aq4AlEFgBAgYykFE2rwqKIAieaN81ngArSAh7BtjzzySJyii+QRyBiDBFybbLJJJhyenlFA9S1SuMBFdlnKM/a68cYbW3cwenCoO7iAKX9UZgUckGUW3KtzBepRASChBAzUFXrxxRdb16MAqTxJzgIWoF2wYIEt8XjttdeSmLC8tJGDMciuXbuGTp06ZZZfRCEXfZc4lZCfdyaprU8//bQFCHjggQfsGffVBRvHpucpjwIOyPLo7LW4AnWtAJAQWNSlesIJJ5gHJQ9S8EgqFPDBNtD9+OOPLVA5HlrSRP3YAZB0/xKujrBzantj2ifvEFu099JLLw0dOnSwpR5cF2s76Tt6/mQKOCCT6eW5XQFXoEgFgANJnhLLMZiowpgcSc/tIsE/AgwTXYjDygQbPMmkSYAkmHqXLl0MkuzsofvFdrmAxQAAIABJREFUQow/AGgjiXdkfeawYcMsSAA2eUYePbcP/k9VKOCArIqvwRvhCjRtBQQ/wQYoTpo0KQwdOtSAwXM9S6oEZeWhvf766xYFh4kvSZLaxxlAbrXVVjaJRpF+sKU8SeyqHO/GHwacCWXH+CZ/HEST/nCI3vPPlVXAAVlZ/b12V6BuFIiCjM/33XefbUysbsxiAYmA8tCef/75MGDAgEwUnaTi0i68z86dO1vAcrptBUadk9rUe6n8s88+G5o3b24TlGg398mjd0hq3/OXTgEHZOm0dcuugCsQUQAQCAh8ZoE8+y6y5CMbIpFisT4KPuzfOGTIkEy3bazC/8skG6x9ZIIOW3Kp6zNqR/mi9wp9Jj/vxy4mvP/48eMtxBzRhARgvX8hO/6s/Ao4IMuvudfoCtS1AgIGey2yrRQL8wUIzkmTgMWZdZUjRozIdLkmsaW6P/nkE4sTyzihvDrVgb3o5zj2yU8XMN3KjGkOHDjQgiSwXyVduMXYjFOv52m8Ag7IxmvoFlwBVyCGAgILIAI8dIeyFpJZo4KTgBTD3GJZGMO78cYbLczcYg9j3FDdc+fOtRmmgDbaZpnQPV03dMYu70c5ZtdutNFG9t6Mk6pOvX9Dtvx5eRVwQJZXb6/NFahbBQQWYMBBPFYA+dVXXxk8eF4sKCgHIK+44oowduzYojQWrFgqwiQaYroqqe1cRz/reaEzdjnwIF944YXQokUL2wcy2n2b1Gah+vxZego4INPT0i25Aq5AHgWiAAAWXM+aNcsAyaxRrouFI2U1A3T06NHhuuuuy9OKwrdVP12s7du3t11BCpeI95S26f0mTpxo8VfZ7ov6uO+pehVwQFbvd+MtcwWajAJREGhJxttvv22bJhO4XAAp5oUpK5t4fcXEYaVeAZJ9Gtu1axfGjRtXTHMWK4Ndte/oo48OLVu2DIw/OiAXk6rqbjggq+4r8Qa5Ak1PASAmSMrbY69FAnZHd8wo5s2jgDzuuOPCgw8+WIyZDLDee++9sOGGG4arr766KDvZhWgf3al0sfbs2TPssMMOFqHHAZmtVPVdOyCr7zvxFrkCTVIBQVKABES77rqrhYdrzAsDGo0fssRj6tSpRZnDDgddv2x1xYSfNJLeF8+0devW4aSTTsp4zPqjIY163Eb6Cjgg09fULboCrkAOBbIBOXv2bNuYGHAoKY+u45wFSMqydvHll1+OU2yxPLIzY8YM28z59ttvXyxPMTeAN7ax98c//jHce++91uXKPQdkMYqWr4wDsnxae02uQF0rIPhp0gpgpMuRSTEao0MgwJEkASDKU65///6BsU15bXHtqG3YIFzdBhtsYJF+4pYnn2xkl8EmXax4t3imM2fOLCqQQbZdvy69Ag7I0mvsNbgCrkBkeQQwAyasCdxpp53Cp59+aoDjHikpIMmPTaLSEHiACTCNASRbZQHIpHtK5gKk3omJSB07drQg6PPnz/f/DzWigAOyRr4ob6YrUMsKROGhZR6MQe64446NBiS2sclmyXvuuadtIZUUkEAWO5zpogWQ7NmYJAmGKiN72HzllVfCiiuuGA466CDbLFp5/FzdCjggq/v78da5Ak1CgSg8BMi33nordO/ePcybN88AB0hI0bxxX56ydNX27t3b7EW7bOPYoLyA9uKLL1pXKFBLkqLtli11/95yyy1hiSWWCNENopPY9ryVUcABWRndvVZXoK4UEPx4aQFy+vTpoVu3bgY0nitPFDRxRaIMs0/32GOP8Pnnn2dmtcYtHwUku22sv/76AYAXm2iP4EiQcpafrLDCCuGBBx7IvGextr1c+RRwQJZPa6/JFahbBYCFkmCIh7btttumAkhsM7mmV69etp+jYKs6GzoL2pR75plnDJB0AReTot4jXb3EmmU5C9DFpuBZjG0vU14FHJDl1dtrcwXqWgHgIIDgqeFB4vExy1PPkgoke2wfxRjkt99+m9iDpE5Bki2zCDWXFJD6I4D2kPSHwIcffmiBB5ixy2bJxb5nUl08f+MVcEA2XkO34Aq4AjEVEByAxz/+8Y+w/fbb2wbFmlQjuMQ0Z9kog72HH3447L333pn9JZPYIK8AyexVAAnYkibaoXfAHsejjz4a1lhjDQt+rj8Ektr1/JVRwAFZGd29VlegLhUQQDgTEo5lHuzmoUk1gksScQTIG264IQwaNMjCuBVjR22jXWxJxfKTpElLWCgnj/K8884LzZo1C+x/SbtYjuKpNhRwQNbG9+StdAWahALy0oARkWV22223RbpEiwEbwmCPGaJscvzLL78k1op6ddx///0GSHYZSZoEeuKu0ibOffv2NXt0JXPPAZlU1crld0BWTnuv2RWoGwUEPgGE8/XXX2/LMr7//nsDhwCVVBTKAZ5Ro0aFE088MTBrVPXFtaX82GErqo033tjAHbe88qmrmK5UbH3wwQe2ppJ9L4El7y0NVMbP1auAA7J6vxtvmSvQZBQQ/ORBAokrr7zSIt8wcQWYKE/Sl8Ym5Y899lgb58NDU/dmXFvZgGTDZMCdNAmQtId3ZDxztdVWM3Bji+ccPPdU/Qo4IKv/O/IWugJNQgFBAUAAMPZuJLJMFJC8qPLFfWkBcv/99w8XXnhhUV4adeq47777QqdOncLChQsTtUWQ1Zn3POOMMyxA+c0332yvIy8y7rt5vsoq4ICsrP5euytQNwoIfJzxrvD4jjnmmPDbb7+ZBgKLznGFAZAa67vssssMvkk9SNpEvZzvvPPOsNVWWxU1GxYbaj8eKJF91ltvvfDGG29Yu/THQdx383yVVcABWVn9vXZXoG4UEDg4A8UBAwZklj4gggCaVBDK/fzzzxbXlXFNrpPaIj/t4kxYuK5du9pkn6R2ALPek3WUbdu2DVtvvbXN1AXiqifpO3r+yijggKyM7l6rK1B3CgAOQejHH380CI0bNy4zJiewJBUG6NAdSrfoXXfdlRiO1Kd2YWvSpEkWI5axzGIAqTKElWvevLnNrGXiEN6jp9pSwAFZW9+Xt9YVqFkFgBAeFgdrH9kxg7E5gEKXa2MAuWDBgtCuXbvw0EMPJYYagqpttOWaa64xb5Q2CXZxRMcGB+VI559/vo0/0mWre8W+Y5z6PU/6Cjgg09fULboCrkAOBQAjwGEJBMsfWrRoEQjrpnuCkc45TOS8BXTYyaN169a2RVXS8jIquF1++eVhl112MZAnARp5eUdgyHngwIGhVatWFpGHa5LalsSu2ufn8ivggCy/5l6jK1CXCggKjD8SqHzNNde0AOPc17pBhBFEkohEWLh11lknTJs2rWhPlHZQ99ixYy3oeTHtoBuVsUa6fLfYYovQo0eP8K9//SvTJtmUFkne0fOWXwEHZPk19xpdgbpTACAICkCErtA2bdqE+fPnG5TwsORlFSPOO++8Yx7pa6+9lqknqR11g15wwQUW/UbtTWIH0GOHOLOEl8OW7ABHB2QSNSuf1wFZ+e/AW+AKNHkFAAMABBacJ0yYELbbbrvw66+/ZibpRAGSRBBssoyCgODs4ci1oJTEjibRnH766WG//fZLUtTy8l56h5NPPtkm6Dz99NOZ9giOZI5+TlyRFyibAg7IskntFbkC9a2AwEUX68iRI8NRRx1lsAQsHKRiwIFdulZXX331MHv27AyQkqotwLG58dChQxNDVu9H92rnzp1tLeWcOXPsDwC9n9pUDMBV1s/lU8ABWT6tvSZXoG4ViALhm2++sV032H1DSc+LASRl2AuSkG4AiSR7sh/nTBm6SA877LAAJLOhFscGbaGbd6WVVgoHHnhgYDkL99Qezvocx57nqawCDsjK6u+1uwJ1owBjcxws8SDCzJtvvpnau9OVyaxYZscCuWISbQNm/fr1C2eeeaYBkut8KRt2dNFiY+LEiWGJJZawbmQm7HiqXQUckLX73XnLXYGaUQB4yHOaPn26AfLbb79Nrf3stcgYJIDUWGIS47QNjxG49urVy7bOonwhQPJc76S6iOgzZMiQsMoqq1i3b0PlVc7P1amAA7I6vxdvlSvQpBQAJIALYNx2223h4IMPNm8rrZdk1ihdrACymK5RgY4lGTvssEO49tprrWlxAEdZ8uEtsofkn//859CtW7fw3XffLQbQtN7X7ZRHAQdkeXT2WlyBulZAgARezPA899xzU4XHU089ZcsqmKQTB2r5vowvvvjCJtgQso625rMloGKHPHStEpruhRdeCGuttZa9H+WLgXW+tvn98ivggCy/5l6jK1B3CmgsjvHHXXfdNdx7772paQCsnn32WVtW8e677xYNJUD3/vvvh0033dQi8tDdmguQ1JcNSLxjjlNOOSWsu+664eWXX7b3A5yealcBB2TtfnfeclegZhTAkwIgzPDccsstAyDjOo0ExJ5//nkD5KxZs4rqusUGQJwxY0Zo3769jR/SvriApCzwZ5us7t27W/QcTfpJ4x3dRmUUcEBWRnev1RWoKwVY+whE6Frt27dvYKlHLvgUIwreHBN/5LlxXYxtgHjHHXeEjTbaKLOeMpcdeY/ReuheZSYtu3ewxyXPCnXRFvOeXqb8Cjggy6+51+gK1J0CeFOff/65Rc9htwyN2aUhBDD66KOPbJnHM888k5kMlMQ2IKQbmNBw7N/IWGRDHiD1CpIAkqUhf/zjHwN7UpIaKp+kfZ63Mgo4ICuju9fqCtSVAnhnzDTdZpttbHcL4MGRRgJSzB4lWDljm3iq3EuSaB9h7wYPHmweLrNZAWYuDxK7eIeqg/f4/vvvQ58+fWz3DgKxY4uyypOkLZ63ehRwQFbPd+EtcQWatAJ4WCeccIKBB4illQARSyq6dOkSrrrqqqK6NgEkXiPLM5hli0fIvXyABIrAj4PP7CbC2CU7eMydOzf88ssv9noOyLS+5crYcUBWRnev1RWoKwWAT//+/W2cTi+eDz56HvcMhADa8OHDw6mnnmoeJHBLmmbOnGk7jEyePNmgB/jytZH71KtxxhdffNGWdxAhCG9S5XRO2hbPXx0KOCCr43vwVrgCTUIBAQF4CFJA5Morr7T4qz/88EMGLAAoaYp2baqsYEWINwKg0z0qD095Gjpj49FHH7WJPi+99JKVl91cZXk/nqs9bN9FsPQRI0YEJiSRkrYhVz1+r7IKOCArq7/X7go0KQUEDuDIASRY0kF0mVtvvdWuuU++pIkygipwEsCAFB4kSzQGDhxomxUzBpikDvJecsklYeONNw4LFizIeIaF2qj6Od9yyy1h5ZVXDpdffnmmjcW+Z6E6/Vl5FXBAlldvr80VaPIKACsS44x4c+eff34m9iow4XkSeEUFUzmNYXINiLhmT0jWIXLmvvJGy+f7TF4m6AwYMCD2+CHvQuKM9/qHP/zBwuhxLc8yX31+vzYUcEDWxvfkrXQFakYBYIWnBwiBFdAhQAD3mRkKjABI0kQ5bHCWDcGRCDjDhg0Lq666qi2zAFLkaSjJFkHGmeQzbty4gpNzovaigPzb3/5mayCnTJli9dJOUpw2RG365+pSwAFZXd+Ht8YVqGkF5D0BSLxHJq1MmDDB3gmYRT0rrpMmdbEyzqfywBEIs8UU3Zx33323AbohOPGc9nIA8rZt29o4pNokT1jX2WfZ50wXK9ttMX5JUjuzy/h1bSnggKyt78tb6wpUtQJACy+Rcbwzzjgj/OUvf7FZnTRaXiPw4HNSiMhjUx0LFy40MG233XZhzTXXtG2mDjjgAPMCsS2A5RNMgKQtF198cejUqZMFHOBaR66yUbv6fN9999k6TNZACrqc9TyXHb9X/Qo4IKv/O/IWugJVpQA/+hxRENBAwEhipuqYMWMMOix5ADbRpPK6p2uduR8FFJ8FG+DINdtaEdKNnTM6d+4cWJoBlJlNynIPzSRVHTpTB0n2+PzTTz/Z+kcm+GiWbfS5ymaflYfzY489FtZff/3w6quvmm29s87ZZf26NhRwQNbG9+StdAWqTgF+/AHOv//9bxtvBBQE7AaOl112mc0m5Zm6QnO9AJ6evD0Bkvy6x2dgR1102RJS7oorrrBF+SzMZ90jXazkoczDDz8c9txzz8xEm+w6VYdAiV1m2a699toWZg47vEdDSXaUjxB3G2ywQcCD5JlsOCClUG2eHZC1+b15q12BiisAkAABEOAMaOhWBWAEIycJdPkaK9BQXgeeKOU4GAfkzCSf0aNH2yzVDTfc0CLysIMHEWuAKJNiyDty5MjQunVri2aTr84otKjrpptuCiuttFJ47rnnrA2aYJOvPO2MAhZ7tKVNmzaBgAF6RnnyeqpdBRyQtfvdectdgYooIKhxBjAAArjsv//+4aKLLrI2MSsUcJEHwOVL6pblOXYERtkmhBvjmHSlLrfccqFXr17h8ccft3qxTxnNbH377bdtogwBw9kfMlfCLokzBx4js18333xzC1cH0ARI7OdKssEz8lAGQK633nqmQ/R5rvJ+r3YUcEDWznflLXUFKqoAP/wACSgANiCIZ3fccceFnXbayRbJM3EGyAl26vrM13DZJJ9gx1jiAw88EIYOHWozS1m60a9fP5uQw44g8+fPD//85z9tvJAuXMoSGOD000+33TQAFTNZcyXBS54d9nbYYQdbq0m7ea5ntKdQIp/sPfLIIwZntrzSPZ0L2fBn1a2AA7K6vx9vnStQNQoIYACJ3TMY/2vVqlXYfffdA4DgPvCMeoG6zvcSeGuAhu5RJt6wDnHHHXc0jxGvcdCgQTYBBpDxnPWGeJEnnniibZ8FILEBVFlmwWL9VVZZxSbt5KpT8KONJJZl4D0yuUZAI09DcKSsbJGXpSx4rk8++WTmvuzlaoffqw0FHJC18T15K12BkivAD3r0R50ffiCgLkxgR9BxxuzYtaJly5Zh1KhRBid5lZTBBuV05l70Ps848EKxxzZY7PLBpJvVVlstdOzY0bpV8U7ZpWP27NnhwgsvtL0kd9ttt3DttdfaBCDaBZSBJGHslllmGVsHufTSS1vYOHmEeg+1R2facN1114WePXsa1LlP4qzP+URXHtk+8sgjw7LLLmuzaHnGfU+1r4ADsva/Q38DV6BRCujHHiN8Bnb8wHMAIUCDB8dGwHvssYdFq2nXrp2FV9MsVfIAHMoKEIImINR9Pn/99dcGxdNOO826N/FCiYF6+OGHh7vuustmpdJVy7gm3bdbbrmleZJ33nln+OSTT6xNgJG2YQ9vdq+99gp/+tOfrG0EC9hnn32sC5h8tIs2cSbpHl4rHuopp5ySGJC8L3Vjl/fZdNNNHZCN+l9YnYUdkNX5vXirXIGyKMAPvA4gRuJaAAIiTz31VNhll11sliaeErM1gduPP/5oY3/AggSwgJC8Kj5zj5mmHMzwPO+886xLEy8PMDJ2iRcHZMjPOkSi2hx44IHmEQJkllBof0VsR2HM2COxXhlHpKuUgAFMFmLRPxN8SJQhCZC8E+3iOUHUgTI2eW+S9LCLHP8oHzawdf/994fll1/eDpaZkFRnjuJ+q4YUcEDW0JflTXUF0lRAIBDUuOaHHVB+++23tqbwoIMOsmUTeGjM1Jw+fbqB7YYbbsh4YpQHFIIqk3dYr8j4HvA79thjwzbbbGNg3WSTTQxgdJMCQiBL2Xnz5gWi0Rx99NGhR48eARAT15R20CZghH1ABhS5ZtYqSz/23Xdf8yBXXHHFsP3221vQ8TXWWCMzk1Xw4/1oK14vn/FIO3ToYHaUB32lSz6tZYc2AHbqZNyTpSKMxZIE43w2/H5tKOCArI3vyVvpCqSugH7oARCAkGfF2B8e3DrrrGNdn0COSTDk++yzz8J+++1n44XMMgWURLG5+eabbc/Hk046yZ4DHry5dddd1yAE8AASi/oVXQd7bFE1duxY6+okkg2TXebMmWPgBNR4joAI4AjErLG8+uqrDYoEJLjjjjssmg7lGcNkcg9rIV9//XUry3sKgNjALrAF3MAVSOs5IjcESPLQJtqPdw0Y8YSbN29uE4p47oBM/b9rRQw6ICsiu1fqCpRHgXw/9rofBQ9gOvfccy0iDKA54ogjzGMEBtGDMT88wP79+xv8NtpoI1sDyLgkHmLXrl0NeKyJZFYn+VUeEOkzgJk1a5ZNbMEbxPPEuwNeHDwX3LhmHPTee+81ADOx5vbbb7cJPMx6PfTQQ62Lla7OFVZYwfaFBKR4m6Ro9zHvjMdKDNdJkyYtUhd5pU2hbwh7/EHBHwTAmCUmzKJljSYpCtxCdvxZdSvggKzu78db5wo0SgF+qAENiR9+PnMP4MibYtwP2HTv3t28PpZRACImyghUlIseAIJyeJRE0AFwLMP4+OOPbWYqYeEECephQgvXfFabaI8munCPz9SBbR1c43WOHz/e1kLi2eI1Eq1n6tSpBktioG677bY2Zskyj7333tvaQlnqyE7UQ3fx1ltvbYAmX5IkHQE2kMUT5Y8BPEgFKEA3T7WvgAOy9r9DfwNXIK8C+vEHCkqCHj/0AI41hcz85AeeCS8KE6eyKhc9AzpBVvexJyAJvoIkeQQWndUmPEoSHhmBwwVRgEsUHULLsdaSrlS6Z5now1gfz5o1a2bbXGnSzyWXXGKeKDaxo/aofs7cJx87f+C1FpNoO94i8VffeeedcPLJJ5sHybgqifqjdRdTh5epvAIOyMp/B94CV6CkCqhLk0rwzAAfHh47XzAhBsjgmTHLVF2c5ANunAslIBAFUfa1ygoW0TPlsM892kib6HJlb0UmB2211VYWBo6oOnPnzrVJPX379rUJP3TlMvbHeGOfPn3Mq3zvvffMBrawG20X7eCaAxAT0PzKK6+0a94zScIGOh188ME2hsk14eqI4IO3q7qS2PS81amAA7I6vxdvlSuQigLARwfg4MeccTnGEOmaZHE+0WlYkK/ZneThADLAVOWzz2qg7uuaM+Upy8Fn8siu8usedeONjRgxwro9GcsjtByzWN966y0DOd2YLC9hpioHbWe7K7o08XjlzVKftqzCvpLq4syOG7w3YeGiHq7y5jvLBu9B5B12AKFrmgTQsUm3a7TefLb8fm0o4ICsje/JW+kKFKWAAAUI6BbEe7r00ksNMKwBZB9D4MJ9ftjJDxgFS665n+uINkhlgUd24hn1U4+8WSLosGSEsTui47AMBAgSvo6DWbFE6WE9I7Nh6QLGW2RJBZsb4y0ywxXb2OWMbc4CcrQdus8fB0zoYUIR46bcj5uwix7MesUGay8//fRTezfGPWkrXcRKSWyrjJ+rSwEHZHV9H94aVyBVBQQL4MiPN7M2iTjDukbGywBj1FOMdk0Cg0LdjwBA4FHe6D1ehPsc3AcsRMdhwg3rHemi3GyzzcxzZCkJs2JZqsEMVbormZFKoHLC2jHGh8fHJCBBlrZyqA3Zwqktagd5WfrBDN0uXbpY0HPpo7KUiSZdUyfvoYAHeLB44dxHQyDPbFp0Vhlsc3iqXQUckLX73XnLXYFYCvCDzQ83axbxxgAQ6w9JABBwkKI/5vpxj/7Yk4/8gh5n2SAf1+ShLiXs4GUxwYZxP8YOmVwzceLE0K1bN9uxA1iy0J5YqksssYR1oRL4myg6xFilCxW72Fe7omfVlX2mTToEVbxPeaKs7cSO3pHyyi9bXAN2kt6XuLFMGmJXEezSNsZyBwwYkClPuWzbsunn2lHAAVk735W31BVIrAA/0vyw0yVJ9yQxT4lww4+6oKMfc+XVD7tgET2rAcrLM+zQJcsZONLlycxOloqcffbZ5i0ecsghFh2H8c5zzjnHZqbiyTELFE8RQDLGCLzpdiW8HGOT1CMoq+64Z9pD4v05ANqQIUOs65bQeQCS9men6PvyWXDFU3ziiScsPB3vRtt4XyYXAXvixpIoIw2zbft1bSnggKyt78tb6wokUoAfa+CA10ZknHvuuSfj9fCDzzPyABOudY9K9EMfrZD8AhZn8gAQgMAEFSbWHH/88RYoADgyxnnBBRcEAKmxP8YT2fwYL3H11Vc37+uss84K06ZNs7WXdAXTHrozOWNb7Yy2paHPlCHRThJ7RDK+SRuJfAMgZZ/3iCbqpBzvhh3GLplJ27lz5zB8+HDrrtY4LXYYfwTsJNnSOWrXP9eWAg7I2vq+vLWuQCIF+IEnLiq7TRAijh9+Jqdo5qcAwI85B8AABqwPjMJDwOCsz3iKxEplXO/yyy+37tKjjjoqXHPNNbZbByHrmN0JCAk5t+SSS9paS+KkMgZIqDqWmuDZAWYBhXoFNe7hpQmQamf0nEsQntNOEvaALpGBCEzOLFYCC1Cv8smebFGf2kFbeE9mzRJCj82aucf7M9mIcVG6jgm5F7VD/Vx7ql0FHJC1+915y12BBhXgR57JJEx2ufHGG80jYjkF3h27WfDDT1cm0GQnijFjxgQgxxghzyjPjzxA4Mw1YMHbY7H9yJEjA2sT2d2DfR2xC0jYUaNt27a2VpHQb3iKTGIhJBtQBNpAURABSFEI8mJ6xucoeBp86Yj3q7a/+eab1g3KexJSjyg63FO90bqwz/sCZv6AQAe8Q2b98scAf0CgA57j3//+d7tH1zUTkKJtzbYZp92ep7oUcEBW1/fhrXEFUlEAMPADTTcgnhNrC1m7RyLANmHl8OTYnJhYqkxcAWTEUWUBPRFr8JAACJAACHQxXnXVVTaWyUxYlmUAQrpumVCDV7jUUktltn5iA2G6JBlzJByd1ifK++JcyoQGtB8d6MJl70f+GMA7ZhYvy0h4Rh6SupelG+XxtJmUw6xaJjmR0AVIAkRmBT/44IM2tgv09YeEZfR/al4BB2TNf4X+Aq7A4goIkHg/LJ9o2bKleX38sAMAJu0AQjYLxqtj8szLL79sXYbAEIh89dVXtlaRHTbwDAnMjefFRBqgQTclId601ROTbagH+GKTxf94WUADyFKv2sW5lAn7HLwL4fRoM94e17SH8UjWXhLTFY+Sd2WyDX8YsIUV+hDRh9mqvDO/rav2AAAIJUlEQVRds4yJcgBIvEu0A46E6mMCFEHZ9Y6lfDe3XT4FHJDl09prcgXKpoBAhNdGFyhdnIyRAQF5hHzGw+SaH32uZ8+ebdtSAUN29gCEeIrEP6XLFI+QEHCAECAyrsikGya9jBs3ziBLF6zsAiS1Rd4cIghepRQEEPJe7ChCUHH+WOBd+SOBgz8KgB/vw0L/ffbZxzxhwEmXqbxklsQARHmYvAdLV1j7SFczXa9MQEI/3ktJ761rP9eeAg7I2vvOvMWuQIMK6McZIODhsMsFSxHw6vCO+IGnS5AxNcCJx3f44YcbKHr37m3diX/9619twg3PWrVqZesUCfMGGAEuYMGLItwb8AGKeFDABAAJiICKQ/DQmbylTNRJHYwfAnzaQ9tIgJPnRPNhhi8e4Oabb26w4/3pkn3hhRfsPaL5aTtlgethhx1m8WvxoAnyrj8G9E76DnTt59pTwAFZe9+Zt9gVaFAB/TgDBXa+AGgECWDJBYvlR48ebUseAAeh5+hOZBNiFuYzrsY6QcYX6S5lFipdqZzxIlnYT3clk3zwqgRAYByFHnULkmowzwUu3SvVmbqon7FHAp6rnWoTsOQewKOLla5YuoTpZgV2JPIq8ZmD5yxlYQNoxmQJcIDGsqs/AFTOz7WrgAOydr87b7krkFcBARIIAAC6SZmEQ9g21kIyzkYewYqF74CSCTWAlHWKRLXBW+Qz3YgXXnihzWCVpwQQgCI2+MyZhF0daqDao+tynGkP70kXs2bNqo20m0S7BUO9F/eBq2BP20mUJQ9/GOBVM+ao8V3WgPKcQ/mtkP9T0wo4IGv66/PGuwKFFQCQ/GAT2QaPkK5W9n1kxinjZkSWoUuR2KKAkS2kOFi3SLcjyzhY7K81gwCCA3hgN/so3JryPgV+zDQFkApXR3ujbW+oRVFQ6jO28DbZdJnZrXioeNLY9tS0FHBANq3v09/GFVhEAX60AQUHszWZbIM3SHcpniFjinQREvaNwOFMVGHRP3tD4hXhfQIGEmfscM4Go64XqbzCF3hzeMVE8WFMtJg2YkPvLi3xPhlvZb0o+rF+lGeemp4CDsim9536G7kCGQUENHl9/LgT/YV4rLfddpttK8USBqLeMP4GSPCGOATEqNcowwKHrqvxTLvx7ggvx+diEuCTDnxGF5Z6sLxjww03tAhFBDNHN09NTwEHZNP7Tv2NXIGMAvJ6OANHfuCBG+DkLNBxpjsWGJBPniOfBdmM0Rr5wDuwvIPlJ/oDAR2iR0OvEs2LFuhE9yozWAHkkUcemdGzIVv+vPYUcEDW3nfmLXYFYisA8PBuBEIK8qOvM/BT4rOAwGcOQQE7JM6a/aly1XpeuHBhaN++vXUZywvmffiMHryLtMj3DspHXvSgLMtfGLdljJbZq6w1jWMrXx1+v3oVcEBW73fjLXMFGq0AP9wkzvrMdTYYsq/zVRw3X77y5bzPxKLWrVuHsWPHGtRZyE/8Vc7yjHmfXHCTVgBS3idngg7ssMMOoU+fPjbR6ZNPPsn8EVFL2pTze6jluhyQtfztedtdAVcgpwIADkASb5ZgBowbsuRj8ODB1uWqmKx4hRo/jIIS2Amiuk8oPiLvsDa0WbNm5pkyWYdua4djzq+h5m86IGv+K/QXcAVcgWwFABazcFmuwlpFAgEwmYYJSQp2QFg9IgCx8J8zQAWKAE/dyHxmqyyCrffr188CKDD2SFQiLR2hbnmc2e3w69pWwAFZ29+ft94VcAXyKMBsXWLHEiaPWbvAD0jSzcrSDzzBXr162dIW4qqefPLJNgEH2OFZAkmCttOtuu+++4add97ZPEjWjLIjCs+xCYzdg8zzJdT4bQdkjX+B3nxXwBXIrQDdqowXtmvXzoIkMPZIdyow4xne5MCBA+0ZsVXnzZtnhuiKJR+AJU4twQA6depkY45EFyLaEBNzgCNdrCQHZO7voNbvOiBr/Rv09rsCrsBiCgAsvEBgxlZXdIviIRKkXUtY6D7FW2TyDXmZkEN3KuOTeIjDhw8Pa6+9tkUY2mCDDWwHE/aQpDsWG9ThHuRi0jepGw7IJvV1+su4Aq4ACgiQjB326NHDulTpRiVSEAESmH0K6IAjniXjkOzscd1114UBAwaY10gcWg42fma5CPtn4jFGoeieY9P+/+aAbNrfr7+dK1C3CjBGyMFWVMShZSeTM844wzZBZg0jsKSLlfFIJuAwxtiiRQvb45Lwe4CREHwAdsqUKQZG4KhZqw7Hpv9fywHZ9L9jf0NXoC4VoMuUY+7cuWHEiBGBfRsZkyQKDhFwjjjiCNsLkv0yhw4damHpGK8kH54j447EpaU8niYHXbI+Y7V+/js5IOvnu/Y3dQXqRgG8O8YJ8fiYUMPYIvtdEnqOjZ7ZHBnvkGOnnXaysUr2wWQ7MJaBTJgwwZaGYEdgRDyNVdaNkHX+og7IOv8P4K/vCjRFBQQ2PEigBuSYmTpz5sxwxx132H6ObPdF1+uwYcPsmp0/HnroIVsPySxXbABYyguMnHN5kOT11PQUcEA2ve/U38gVcAUi4fUYhwSUAhuQw7tkcg7rIvEwFX4O0Al25NM1ZXVfdiSy8ug6zbNs+3nRIPPl0sMBmeb/ZrflCrgCrkBCBcr1Y+/1JIesAzLhf2bP7gq4Aq5AGgrkAxYeqh/VoYEDMo3/6W7DFXAFXIGYCmSDMRcM6d71o/IaOCBj/qf2bK6AK+AKNFaBKBwFxigItTTFz/+/RKfSOjggG/s/3su7Aq6AKxBDgWw4CoyCgNZa6swMWj8qq8H/AUpGkZSYR98VAAAAAElFTkSuQmCC;" parent="1" vertex="1">
          <mxGeometry x="8.869999999999994" y="538" width="71.13" height="95" as="geometry" />
        </mxCell>
        <mxCell id="fCc0VGdKN-cLOxfo7Wwt-14" value="" style="shape=image;verticalLabelPosition=bottom;labelBackgroundColor=default;verticalAlign=top;aspect=fixed;imageAspect=0;image=data:image/jpeg,/9j/4AAQSkZJRgABAQEAYABgAAD//gA7Q1JFQVRPUjogZ2QtanBlZyB2MS4wICh1c2luZyBJSkcgSlBFRyB2NjIpLCBxdWFsaXR5ID0gNzUK/9sAQwAIBgYHBgUIBwcHCQkICgwUDQwLCwwZEhMPFB0aHx4dGhwcICQuJyAiLCMcHCg3KSwwMTQ0NB8nOT04MjwuMzQy/9sAQwEJCQkMCwwYDQ0YMiEcITIyMjIyMjIyMjIyMjIyMjIyMjIyMjIyMjIyMjIyMjIyMjIyMjIyMjIyMjIyMjIyMjIy/8AAEQgBLAD0AwEiAAIRAQMRAf/EAB8AAAEFAQEBAQEBAAAAAAAAAAABAgMEBQYHCAkKC//EALUQAAIBAwMCBAMFBQQEAAABfQECAwAEEQUSITFBBhNRYQcicRQygZGhCCNCscEVUtHwJDNicoIJChYXGBkaJSYnKCkqNDU2Nzg5OkNERUZHSElKU1RVVldYWVpjZGVmZ2hpanN0dXZ3eHl6g4SFhoeIiYqSk5SVlpeYmZqio6Slpqeoqaqys7S1tre4ubrCw8TFxsfIycrS09TV1tfY2drh4uPk5ebn6Onq8fLz9PX29/j5+v/EAB8BAAMBAQEBAQEBAQEAAAAAAAABAgMEBQYHCAkKC//EALURAAIBAgQEAwQHBQQEAAECdwABAgMRBAUhMQYSQVEHYXETIjKBCBRCkaGxwQkjM1LwFWJy0QoWJDThJfEXGBkaJicoKSo1Njc4OTpDREVGR0hJSlNUVVZXWFlaY2RlZmdoaWpzdHV2d3h5eoKDhIWGh4iJipKTlJWWl5iZmqKjpKWmp6ipqrKztLW2t7i5usLDxMXGx8jJytLT1NXW19jZ2uLj5OXm5+jp6vLz9PX29/j5+v/aAAwDAQACEQMRAD8A97oooqhBRRSE0AJSGlpp60ANammnGm0DG0hpTSUgCiiigApKWigAooooAKKKKAFFKKSloAcKUUgpRQA8UvekFLTEOooooAKKKKACiiigAooooAKKKQ0ABNJRRQAh4ppNKTTSaBiE02lNJQAhooNJSAKXFKqljgCud8c6td6FoUctowWeeYRB8Z2jBOfrxQBs3V/aWKb7q4jhH+22M1Tm8RadFt2vLOGGQ0KblP49K8ts0N5Mbi9meeZjks7ZrsdJgg3KBgCgDbl8TWyY22d6+T/DGD/WrlprGnX0zQ215E8y/ejDfN/9f8KmTTreaHBAORXGeKvCcMMTXlv+7decqcUAd3RXD+Adb1XULu50+9k8+OCIOsrD5hzgAnv36+ldyVZeoxQAUCkpaAFBp2abS0APBp1MFKDTAcDinU2gGgQ6ikzS0AFFFFABRRRQAU00ppKACkNFIaAENNNKaaaBhTTS0hpAJRRRQBNAcA1m+JdHj8Q6HPp7v5bt80UmM7HHQ/57E1dQ/eoViWA9TQB4ofDfiXTLgxXFlIQDgTQgyI3v8oJH4irkr6/pti8tnbma4UAojwygde+VHb3rvl8b6Y/jY+Ffs90t3tJWZkxG5C7iB36A8+orozgDpRcDzKHx3ew20fn6ZerNtG8LbvtDY5xx0qtc+IfEHiJfstjod4244DyoY0H1Jr1F244Az2rD07xhoepeI7nw9bTyHUbfduymEYr94A+1AE/hHQB4e0spM6yXs5D3Ei9M9lHsP8T3rduXAjXHdgKpedz1oll3NEvq4pAWKKKKYDqKSigB2acDTKUUwHg0tMBpwoAdSg00GigQ+img0tAC0UUUAIaSiigBDTTSmmmgYhpKDSGgBKKKjnuILWFpriZIo16s7AAUgJKSsL/hMNGaXy4p5JRnBdImKj9Kvx61pkgGL2Jc9pMp/wChYoAsl8SMKQNzmo2/ekSwsHRh1U5FAJHUYpAPMNs16L02sH2sJsE/ljft9N3XFTs+UqDPHFUtVt7y7094bG/NjcEqVnEYk2gEZG08cjIoAtPJg5qgtrp8GpS6nDYQJqEqeW9yF+Yr1x7VYc4HXPvVZzQA8S5apg2bu2H+0f8A0E1TUEtxmrdujvdQsFOEySfwIoA06WmyMsSF5GCKOpY4FNiuIJ8+TNHJjrscH+VMCSiiigApaSigBc0uabRQBJmlBqPNOBpgPzS0zNLmgB2aKTNFAhaQ9KWkNADaaacabQMSkpaSgQlea/EC1uYdXgu7iZ5bOVcRxk/LGw6jHv1//VXpVc142sjqXhm6VF3SQMs0ePY4P6E0hnJ6PeWmVB2iuqn0/StbtFgYKHPCkdjXksq3FmMtkfSt3wRq8174rs4NzlEDuwJyMBD/AFxTYj1SyWOyt/Jjh2QRnZHj+6Bj+lXFaOZMghhTIiJLROOoqKOCS3mMirlWHK1Ix8kBVCVboO9Yg1eYrITAuF5Hz8kflWvdieaJoxhVYYOB2rGk0h9pVV/LigDKuPFXkygSWzBO5Vsn8q6S30+4lUPMRHnnbnJH9K5m58JS3TfM5A9q6a0fUbeNI5SJQqhcsvPHvQBpR28cQ4UfU0k8TuSpwYCMMUkKsPy/xoQPMQXGB6CrS4VcY4oA4SLRZ01O7tL24nvAkmYnkJYlCMjJ6ZqprfhtbeL7TbiW3lXlXQ85/A11F/8A6VeFbO4iF/BGC8DNgshJwfboazrn+2LpPs72XlqeGkeRdqj14Jz+FO4FvwbcXtz4egkvrlriR2fa7YyFVtoBPfoeTXQVm6LFHBZJBBkwRDYr4+8R1P4kmtKgAoopKADNLmko5xnHFADs0A02lBoAdmlzTc0opgSA8UUL0ooAdTTSmkNAhppppTSUDENJS0UCGN09zxTHjAXDKGBGCD0I9KkX5pPpSzDCUhnE+KPCcepwD7C0EUv+223+QrK8O+H7XwvOYzP9p1G8YQySoPkhU87RnqSQOf8AJ6q/DSXEca9SwrVlsYjaxx7R+6ZXB9wetAFq3iCoOOAMCrOAagjeodRvjY2bSJEZpjxHEP4m/wAPWgCe6ubSygM13NHDGP4pGAFYUnjbw4rlVu/Mx3VDj9a8p8S3Op3941xfTNI3O1QflUeijsK5jzJmfZGru3ooyaLCPf4/Gfh5zzdbPdlNbFpe6fqMXmWdxFMvcowOPr6V8xzz3NvxNHLHn++pH86baeIbzTLpLm0uXhmQ8Mp/T3FAz6kwIzxUbygVyPgnxtF4s0lmk2pfQYWdB0Pow9jW1c3fl85pAchbXJtviRf3UuTFNthz/dwAAf513MsKTttPKntXm+r6F4km1yaeGaWGJ33w7Yt6f8CxngjqMZFeiWfmx28STsGlVAHI6Fsc/rQBqQxpHAsaqAoGABUTrtbHY09GyKWQblNMRFSGkByPfvRQMDVea4kzHCrDczcAenrVh/kA3HBPQVS2p9si3KfNVM7gDgZ6/SkBdpSCOoIzTJX8iMyE4I7VjQ6jJcCeaYurE7YxnjaOppgbrYQqGZQT0GaUdayNOinluHurlSABtiDdfc/5961l60ICcdKKUdKKYhDTTTjTTQMaabTjTTQIKSlpGOFJ9qAEtvmOfU5pblutJa8IPpUN2+FY0hmQGDarEOvzCt/Fc9p487VQ3ZctXRChAQR/KSD2NcDqvie21nUtS0tLgxwGJrVJl9T94j8ePcCrnxP1u+0PQ4jY5jN25ikmA+4MdB6E+vsa8etTLJdRTJLhdoDKSRjnOR656U0Jnp8Hhy3uIrbSY5FkeV97zKuNiADdgc+w+rV097NpXgzTY47TT9zsPkiiX5mx1LHr3HJrH+Hwa5mu7pyWEUaQoT7klv5LW14ks9RaWHUNLjimniRonhk6MpIPHIo6gUtI8Sad4oeTTb7TDbzMrFYp13JIB1wSByPSvIvib4Pi8N6nHcWKkWN1nanXYw6j6V6foem61e69Dq2sW8VoLXzDGqH5pHcbSSMkAY+nNZ/xchE3hRZMfNFcKwPpwR/WkxnlngXWDoPiCKfdtjl/duM8bT/hwfwr3qykF/fQpjcn3m+gr5fWVknLggAdK+h/hHNcah4U+33at5gkMEbkffRcc/mcf8BpAd/UEyAOG9etWDTHXchHemAkLc4NT+1U1P5irIfIBpARH5ZSPUZp6EA5PXtSsgLh2OAO3rVYyZfNAF0QguZG5PaobqVLdd5AXHfFNWZ1GATTZDHKMSxhvTNAGVdyyXbBlfCZ+ZQc5+tSXCaPp6o97OpcdOp/QVm6xb3Uku6GQKg6Lkj+VYVzBezFYg0e8nACKWYn8aAO6tb2C8VmgYlR6jFW0HNY+g6W+mWRWVy00h3Pk5x6CtpBTQEw6UUDpRTEMppp1NNAxDTadSUAJTZP9W30p9N4Z9h6Ec0CGxfKMVn6lLhCB1NaT2qspw7r9DWTe6ZMctHcAn0cf1H+FSMTQ4eJpvfYD+prZFVdPg+z2EUfBOMsR6nrVqmBR1vR7bX9HuNNu1zHMuA3dG7MPcGvArnwl4i0fVDZPptzNtbCSwxl0cdiCP69K+jKq3eVdGH0oAxvCGjyaJoEcM4AuZWMsoHYnt+AAraZqYsmRSM1IBrtXL+M9POr+G72yTHmOmU/3hyP5V0cj8Vi6ncLGhyaAPCfDHgjVPEOvx6f9mmhhVs3EzIQIl7/AI+gr6dsLC20vT4LCzjEdvAgSNR2A/rVbQYRDpEB27TIPMP49P0xWjTQCGkpaKYEEi7W3DoetOEgAGBzTyMgg1n2tvJar5bzPJgYy3UnJO78c/pSYFmTLsh3sNpzgHrwRg/n+lR4w1OJqtPciPAAJY8ADqTSAZqer2OjWpuL+4SFOgB5Zj6AdSfpXIHxrrGoTkaZpSxwH7jXGS7e+B0/WuubSLe9dLi/gSSZR8uR90emavxW8MC7YokQf7IxTA4D7H8QNRcAT6dbRHq0kRBH4cmui0Lww+m3H23Ub99Qv9pVXKBI4geu1R3PqefpXQ0UAKBUyCohUyUwJKKKKBEdNNOptAxKSlpKBBTCFSQOcliMBRUqjJ56Dk0yIB2aSTp1xSYEiOCPu1FNHuU7c5NNnvrY5Tf84O0gcEHGen0/nVKbVFHmxD5XXBVn4RvQZ/n/APqpDLtvG8duu8YP/wBepRVSKU3sW0MVIxk9Pyq5TQBVLUHVYkORnzAP0Jq2zqmNzAZ6ZOKw9RliGqeT5hLSKGI7ZHv0zihgXoiGxUkiADpVe3BGOcircnIGDSAzp+Aa5rVvmIQdWOK6uaJmBAFYd7HbwtvkIkkHIUdB9aAOujRY41jXgIAuPSnVQ0di2mRzSS+Y0pLs/qSav1QBSUtFADSKZIm4e9SUlAFUwyMccAetOjto4juAy/8AePWp6SlYBuKKcRSUwEpRRSigBwqVajFSrQA6iiigRFSU6m0DEopaSgRHNP5ERYJuycUlvKkrBVPUUs0YljKHvWFJJNZ3IdPvKfmX196TGXbq1ae5YuSNnIPXNYWqeWJD5X+tQ4b5cHPuK6K3lW4mHz/6wZAzVK50/OosGTkgYPXI+tIC3opaS081xgtgfl/+utOo4YlggWNeAorl9Z1W7guR5M7oNm7aOnemBuanHu8l+wJB/H/9VUXiRhgj/wCtWJ4f1vUdWNxEwzBHcMHmbndtwu0en3c1geN9T1qx8Qaba6bO0cNwCXB5BI4x7YHNDEd/bXC+b5DOvmgbsZ5I9cVeL/LzXlfhPS9STxbbXd5eTzs+Q7O2c8Yx+v6V6g+VVgeopDM++uyqlQaoabai+maeQBoVOB6Mf8KyvFl1dw6ZObKNnuGBVdvUep6HpXC6Wvirw9aqIL3y4JpAGWTJWLP8Y9/0OaAPbHO1DgAAdgKu26MtvGrfeCgH64rBhgvL3wxkyk3U8BO9uPmI6gdvX2zXN+H9cvZLJrW8nmF1ayGGRGOCCuMH8QRQB6NSVBZTi4iyPQMPoR/+urFUAlJS0UANpKdikxQA2jFLiigBKUUUooAcKkWoxTxQA+imk0UCG0hpTSUDEpKdSUAFVrqyjuV5+V+zCrVFAHOSaff21zHLbjJVhnB4I/pW3FG7SmaXg44X096sUuKVgIpyRA+OuMCuN12ZVvWXcuVCgiuzm+4Ae5ArzvVPKl8WaqsjfKqwoOOh25/9mFDEWvCV9Z2uk+TcTxRSvNJKd7AZ3OW/lWRr97bav4q057QrLb2YkMkynKlmUgKD39adHq+k3YIPkkqSuCVJ4OKx9emtgLK10mARSCYFvKj2jG0+nWkM7rRY0F9CwH8YFdTJaBt21tu71rkPDsc0ZjMwOfMjwxPU85H+fWu5piMmbT4YmhyNxySSe+cVw/iaJZNH1C3xlhG4X6gZH6gV6Ldrkx/WvM9Uea4vtQQnAjnkUrjtz/SkM63TPEGm3GkQSG5igMcQEkcrhWjIHOQa89udYiuPFl/ewMFtZSgjftIQCCf0H6VZnTSHkMkyQySR5Qlxu2nuOaz7+VNZeC109FZIHDNIrDauQRjjp0oA9K8M3plaNM5WSDIPup/+ua6U1yHhmNbLTNPV2JkilMTMe+ScfoRXYU0A2kp1JTASkNLRQA3FJTqKAEpaKWgBRThSCloEIetFKaKAA0lOpDQAlJiloxQMTFLiiloEJiloooAr3RwEHvmsy/0K11QmUr5c5xl1HJx6+tac/Mqj0GaApC0mM4Gb4XWDSlxDACTkkLg1c0/4fWemzecs2xsY4JPGc9/pXYsW9TUEgyOaQGUiR291bwxElRKpJP1rp65mQYvoT/00X+ddPTQFe6HyKfQ1gX3hmG+u5ruGYxTTAbxjIJAxn8gK6K5GYG9qrpwM0MDzn/hU0BmZ57hrkk5zNIzfzNdDpfg6w0uMqFjVT1CjrXQSMc9TVeQFupNIDE1u6EJihtxhY2DDHtXYRussKSL911DD6GuU1C08xc4rd0KbzdJiU/eizGfw6fpimgNCkIpxpKYhtJTiKSgYlFFFABSgUUooAUUopKcBQIQ9aKdRQA2inU3FACUYoooAKKKKAClxRikc7UYgZwKAIPvzMfQ4FWAo2VWh4UZqwTgdR+dICKQCq0nQ1Yc5qvLwKQzMdd19CP8Apov866SufgHmatCPQ5/IV0NMBkgzGw9qqL90VdIyCPWqUfp6GhgMKZNNZKumNduarOQO9ICnNEGBFQ6VL9m1F7c8LMMj/eH/ANarMsiKpJPArnnv0vNXt4LGaJrgSAjDjjHJz+AoA7Y0lONJVCEpDS0UANoxS0UDClAopaACnUgpaBBRRRQAUUUUAIRTcU+kxQAlFLijFABRRS0AZ0lsrOysZBj+47Lx+BqBrBP4bq8T6TE/zzU13fwxapBZEHzJELBu3sP0J/A1IaljM1rK6Vsw6rdD/ZkSNx/6CD+tV521SNDvubV16Z8hlP8A6HWuFyT9arXY2oTQBX0Is1+/nhfNC/KVzj3ro8Vh6Ii/a3bvs/rW7imISqErFZnEYDHPc4H8q0KpSD98/wBaAKckmoyKVRraEep3Sfp8v86oTWTOCbnULqU/3I2ES/8AjvzfrWrLwtZ7nc/40hmfJpVgRlrVZD/emJlP5uTVjw/psX9qS3YQYgXYmBgAnrj8P51aaPEZJ7VJ4Xu4LqwuBCcvFcMkv+9wR+hFAG3SGlpDVCG0UuKMUAJRRRQAtFFKKAFooooAKKKKACiiigAooooAKKKKAEplxcRWltJcTuEiiUu7HsBUlcx8Qoryfwbdw2SO8rsgKpySMjp+lAGZZ2mo6z4ni8QTFIbLgwQHl9gVgpJHAzvJxXWN97muG+GOr6lqNjc22oOXFqQkZZcMox0PHP8APit/VGdtVYLK4VYUG1XIAYls/jjbSYzaXktx3qlqPEdY011LZ2s04uZUEaM5JbIGBnoeK1JrmO8sYbiJt0cyK6N6qRkGkBL4fXMkzn0ArerJ0JNsMp/2q1qAEqlNxO1XqqXK/vQfUUAV5RmI1mxjAJPXNarLlCK41p4r67vcSNIsFw0JBPAK4yAKAOhaeL/VmVN5Bwu4Zrhbiebwtqlxq9td+Uok3zwStiOZSACPZsKMH1HvWtM8dpGtyAq+QfMJ9Bgg/oTXO+PdEvfENrbRaeyHLgsrfxenNAHrlhewalp1tfWzboLiNZUPsRkVYNZHhbSZdC8L6dpk0nmSW8IVm9+v9a16aEFFFFMBveigikFACgU6kpaACiiigAooooAKSlooAKKKKACiilHSgBMGhkDqVYAg9jThQxwpNICs0SxuSqgbuTgda5BIrmHW9WDhZY5LgSLIX5GUXC4x2GK6iedI2+eUKW4G7pmuZNw0l5dPIqITNgKJA3AUAZx9M4oAoa+zyaXc2SxsHuYmiWQEFVJGBnv3rfit0t7C2t4xiOKJUUegAwKwdUlT7HJIxGI5Fbr0ww5rorCUXEaGRSAF3c96QzX02HybUZHLHNXKbGd0SnpkA4p1ABUcyblzjkVLTJG2rmgCtiuM1LTzpeqXctrEGjvZVmZd2NjbcMffop+rGup1DU7ewR5JiQo54Ga5O78RadqhZ7a4V1iGGbpgkjHX6GgCneJNLbvF5iguMEbeo7jr3HFbXhezWSSAEZSBeAfbgVgy31v5kaGZMN83X6f4102ifuniMBcxqPmdhjfn2oA6nFJg+lEcok6ZB9DUlFwI6KVqSqEIaAKWigAooooAKKKKACiiigAooooAKKKKAClHSkpR0pAKKZKeAPWnisvxBqL6bpFxdQqrTRqAgbpuJwM+1AEs9ukpAdQVx0IqlD4f0yMs6WMCl2LN8vU+v1rH8O+M1v8A/R9WWO3uP4ZF4Rvz6V14HGQcj1FAzEn8NaXMHDWaAOMMFJAP1ANTi1jtmQIgJ7Z61Z1HUrPS7V7i8nSKNRkljivN1+I0+o6+iWVov2ENgySZBYe3pSA9VhQxwojHJAwTUlRwOXiDHvUtACVFcRNLFhG2uDlT71NTJM44oAphVlUMyDd0II6Gs86Hp0EjPHYWqhzubEKj5vU8U7V76TTNMvbmIBpUj3oG6Z6Z/DrXD6D461XzZRqrQzw8kbU2n6cf4U7CPQkt1CAIAB6AU+KIBuQB9BWZp3iTR9RX/R76NX7xSHa4/A07UfE2laXEWmuo2cDiNDuY/hSGaFzOIJ4yDzxmtCvGL3WNR1/Xobrz3t4I5AY4kPPB7n+deyxsGjVh0IBoAVqbTmptNCCiiimAUUUUAFFFFABRRRQAUUUUAFFFFABSg0lFADgazdX05NQtXhYkBxg4P41oUdaQHnM/gu6jctBPx23L/Uf4VC2j+JLZNlreOidlSRgPyxXpW0elGwelMDx268Ha5qExkupDMxOcyOzf0rT0TwFew3scty6rEhBIHevT9g9KXaKQxYVCRhR2qSo6KLCJKY/SkzQTRYZSvbSO8gaKRchgRXEzeAUWRjbysintnI/X/GvQsA0m0UCPL5fh5PI2fPY/8AH+NOh+HEgP7yc4+oH9DXp20elG0UDOS0vwXaWMiyNukZeQD0rsEG1APQUg4oosIU0lFFMAooooAKKKKACiiigAooooAKKKKACiimk0AOopuaMmgB1FNyaUc0ALRRRQAUUUlAC0UUUAFFFFABRRRQAUUlAoAWiiigAooooAKKKKACikpaACiiigAooooA//2Q==;" parent="1" vertex="1">
          <mxGeometry x="188.29999999999998" y="538" width="77.27" height="95" as="geometry" />
        </mxCell>
        <mxCell id="fCc0VGdKN-cLOxfo7Wwt-15" value="&lt;font style=&quot;font-size: 16px;&quot;&gt;Random Allocation&lt;/font&gt;" style="text;html=1;align=center;verticalAlign=middle;whiteSpace=wrap;rounded=0;" parent="1" vertex="1">
          <mxGeometry x="230" y="380" width="145" height="30" as="geometry" />
        </mxCell>
        <mxCell id="fCc0VGdKN-cLOxfo7Wwt-16" value="&lt;font style=&quot;font-size: 16px;&quot;&gt;Human Tutor&lt;/font&gt;" style="text;html=1;align=center;verticalAlign=middle;whiteSpace=wrap;rounded=0;" parent="1" vertex="1">
          <mxGeometry x="22.22000000000001" y="651" width="60" height="30" as="geometry" />
        </mxCell>
        <mxCell id="fCc0VGdKN-cLOxfo7Wwt-17" value="&lt;font style=&quot;font-size: 16px;&quot;&gt;Mobile Application&lt;/font&gt;" style="text;html=1;align=center;verticalAlign=middle;whiteSpace=wrap;rounded=0;" parent="1" vertex="1">
          <mxGeometry x="105.00000000000001" y="651" width="60" height="30" as="geometry" />
        </mxCell>
        <mxCell id="fCc0VGdKN-cLOxfo7Wwt-18" value="&lt;font style=&quot;font-size: 16px;&quot;&gt;NAO Robot&lt;/font&gt;" style="text;html=1;align=center;verticalAlign=middle;whiteSpace=wrap;rounded=0;" parent="1" vertex="1">
          <mxGeometry x="196.93" y="651" width="60" height="30" as="geometry" />
        </mxCell>
        <mxCell id="fCc0VGdKN-cLOxfo7Wwt-19" value="&lt;font style=&quot;font-size: 16px;&quot;&gt;Pool of 21 participants&lt;/font&gt;" style="rounded=0;whiteSpace=wrap;html=1;" parent="1" vertex="1">
          <mxGeometry x="36" y="129" width="198" height="105" as="geometry" />
        </mxCell>
        <mxCell id="fCc0VGdKN-cLOxfo7Wwt-20" value="" style="shape=flexArrow;endArrow=classic;html=1;rounded=0;exitX=0.5;exitY=1;exitDx=0;exitDy=0;entryX=0.5;entryY=0;entryDx=0;entryDy=0;" parent="1" source="fCc0VGdKN-cLOxfo7Wwt-19" target="fCc0VGdKN-cLOxfo7Wwt-24" edge="1">
          <mxGeometry width="50" height="50" relative="1" as="geometry">
            <mxPoint x="217" y="347" as="sourcePoint" />
            <mxPoint x="135.00000000000023" y="276" as="targetPoint" />
          </mxGeometry>
        </mxCell>
        <mxCell id="fCc0VGdKN-cLOxfo7Wwt-22" value="" style="shape=flexArrow;endArrow=classic;html=1;rounded=0;exitX=0.998;exitY=0.367;exitDx=0;exitDy=0;entryX=0;entryY=0.5;entryDx=0;entryDy=0;exitPerimeter=0;" parent="1" edge="1" source="fCc0VGdKN-cLOxfo7Wwt-21">
          <mxGeometry width="50" height="50" relative="1" as="geometry">
            <mxPoint x="270" y="561.7500000000002" as="sourcePoint" />
            <mxPoint x="390" y="561.7500000000002" as="targetPoint" />
          </mxGeometry>
        </mxCell>
        <mxCell id="fCc0VGdKN-cLOxfo7Wwt-24" value="" style="shape=image;html=1;verticalAlign=top;verticalLabelPosition=bottom;labelBackgroundColor=#ffffff;imageAspect=0;aspect=fixed;image=https://cdn0.iconfinder.com/data/icons/job-seeker/256/test_job_seeker_employee_unemployee_work-128.png" parent="1" vertex="1">
          <mxGeometry x="96.25" y="290" width="75.5" height="75.5" as="geometry" />
        </mxCell>
        <mxCell id="fCc0VGdKN-cLOxfo7Wwt-25" value="&lt;span style=&quot;color: rgb(0, 0, 0); font-family: Helvetica; font-style: normal; font-variant-ligatures: normal; font-variant-caps: normal; font-weight: 400; letter-spacing: normal; orphans: 2; text-align: center; text-indent: 0px; text-transform: none; widows: 2; word-spacing: 0px; -webkit-text-stroke-width: 0px; white-space: normal; background-color: rgb(255, 255, 255); text-decoration-thickness: initial; text-decoration-style: initial; text-decoration-color: initial; float: none; display: inline !important;&quot;&gt;&lt;font style=&quot;font-size: 16px;&quot;&gt;Pre-session Test to evaluate existing knowledge of Japanese words&lt;/font&gt;&lt;/span&gt;" style="text;whiteSpace=wrap;html=1;" parent="1" vertex="1">
          <mxGeometry x="171.75" y="294" width="248" height="40" as="geometry" />
        </mxCell>
        <mxCell id="fCc0VGdKN-cLOxfo7Wwt-34" value="&lt;font style=&quot;font-size: 16px;&quot;&gt;7 &lt;br&gt;&amp;nbsp; participants&lt;/font&gt;" style="rounded=0;whiteSpace=wrap;html=1;" parent="1" vertex="1">
          <mxGeometry x="-2" y="430" width="272" height="60" as="geometry" />
        </mxCell>
        <mxCell id="fCc0VGdKN-cLOxfo7Wwt-35" value="" style="endArrow=none;html=1;rounded=0;exitX=0.347;exitY=1.003;exitDx=0;exitDy=0;exitPerimeter=0;entryX=0.347;entryY=0.007;entryDx=0;entryDy=0;entryPerimeter=0;" parent="1" source="fCc0VGdKN-cLOxfo7Wwt-34" target="fCc0VGdKN-cLOxfo7Wwt-34" edge="1">
          <mxGeometry width="50" height="50" relative="1" as="geometry">
            <mxPoint x="60" y="430" as="sourcePoint" />
            <mxPoint x="110" y="380" as="targetPoint" />
          </mxGeometry>
        </mxCell>
        <mxCell id="fCc0VGdKN-cLOxfo7Wwt-36" value="" style="endArrow=none;html=1;rounded=0;" parent="1" source="fCc0VGdKN-cLOxfo7Wwt-34" edge="1">
          <mxGeometry width="50" height="50" relative="1" as="geometry">
            <mxPoint x="254.25" y="478.75" as="sourcePoint" />
            <mxPoint x="182.25" y="490" as="targetPoint" />
          </mxGeometry>
        </mxCell>
        <mxCell id="fCc0VGdKN-cLOxfo7Wwt-37" value="" style="endArrow=none;html=1;rounded=0;entryX=0.677;entryY=0.996;entryDx=0;entryDy=0;entryPerimeter=0;exitX=0.676;exitY=0.006;exitDx=0;exitDy=0;exitPerimeter=0;" parent="1" source="fCc0VGdKN-cLOxfo7Wwt-34" target="fCc0VGdKN-cLOxfo7Wwt-34" edge="1">
          <mxGeometry width="50" height="50" relative="1" as="geometry">
            <mxPoint x="110" y="540" as="sourcePoint" />
            <mxPoint x="160" y="490" as="targetPoint" />
          </mxGeometry>
        </mxCell>
        <mxCell id="fCc0VGdKN-cLOxfo7Wwt-38" value="&lt;font style=&quot;font-size: 16px;&quot;&gt;7 participants&lt;/font&gt;" style="text;html=1;align=center;verticalAlign=middle;whiteSpace=wrap;rounded=0;" parent="1" vertex="1">
          <mxGeometry x="6.6499999999999995" y="445" width="75.57" height="30" as="geometry" />
        </mxCell>
        <mxCell id="fCc0VGdKN-cLOxfo7Wwt-39" value="&lt;font style=&quot;font-size: 16px;&quot;&gt;7 participants&lt;/font&gt;" style="text;html=1;align=center;verticalAlign=middle;whiteSpace=wrap;rounded=0;" parent="1" vertex="1">
          <mxGeometry x="190" y="445" width="75.57" height="30" as="geometry" />
        </mxCell>
        <mxCell id="fCc0VGdKN-cLOxfo7Wwt-43" value="" style="group" parent="1" vertex="1" connectable="0">
          <mxGeometry x="393" y="463" width="255.75" height="207.5" as="geometry" />
        </mxCell>
        <mxCell id="fCc0VGdKN-cLOxfo7Wwt-26" value="&lt;span style=&quot;color: rgb(0, 0, 0); font-family: Helvetica; font-style: normal; font-variant-ligatures: normal; font-variant-caps: normal; font-weight: 400; letter-spacing: normal; orphans: 2; text-align: center; text-indent: 0px; text-transform: none; widows: 2; word-spacing: 0px; -webkit-text-stroke-width: 0px; white-space: normal; background-color: rgb(255, 255, 255); text-decoration-thickness: initial; text-decoration-style: initial; text-decoration-color: initial; float: none; display: inline !important;&quot;&gt;&lt;font style=&quot;font-size: 16px;&quot;&gt;Post-session Test to evaluate learning from the sessions&lt;/font&gt;&lt;/span&gt;" style="text;whiteSpace=wrap;html=1;" parent="fCc0VGdKN-cLOxfo7Wwt-43" vertex="1">
          <mxGeometry x="85.75" y="133" width="170" height="40" as="geometry" />
        </mxCell>
        <mxCell id="fCc0VGdKN-cLOxfo7Wwt-27" value="" style="shape=image;html=1;verticalAlign=top;verticalLabelPosition=bottom;labelBackgroundColor=#ffffff;imageAspect=0;aspect=fixed;image=https://cdn0.iconfinder.com/data/icons/job-seeker/256/test_job_seeker_employee_unemployee_work-128.png" parent="fCc0VGdKN-cLOxfo7Wwt-43" vertex="1">
          <mxGeometry x="10.25" y="128" width="75.5" height="75.5" as="geometry" />
        </mxCell>
        <mxCell id="fCc0VGdKN-cLOxfo7Wwt-41" value="" style="shape=image;html=1;verticalAlign=top;verticalLabelPosition=bottom;labelBackgroundColor=#ffffff;imageAspect=0;aspect=fixed;image=https://cdn3.iconfinder.com/data/icons/survey-color/512/Survey_rating_rate-19-128.png" parent="fCc0VGdKN-cLOxfo7Wwt-43" vertex="1">
          <mxGeometry width="96" height="96" as="geometry" />
        </mxCell>
        <mxCell id="fCc0VGdKN-cLOxfo7Wwt-42" value="&lt;span style=&quot;color: rgb(0, 0, 0); font-family: Helvetica; font-style: normal; font-variant-ligatures: normal; font-variant-caps: normal; font-weight: 400; letter-spacing: normal; orphans: 2; text-align: center; text-indent: 0px; text-transform: none; widows: 2; word-spacing: 0px; -webkit-text-stroke-width: 0px; white-space: normal; background-color: rgb(255, 255, 255); text-decoration-thickness: initial; text-decoration-style: initial; text-decoration-color: initial; float: none; display: inline !important;&quot;&gt;&lt;font style=&quot;font-size: 16px;&quot;&gt;Questionnaire to evaluate the participants&#39; attitude towards the teaching methods&lt;/font&gt;&lt;/span&gt;" style="text;whiteSpace=wrap;html=1;" parent="fCc0VGdKN-cLOxfo7Wwt-43" vertex="1">
          <mxGeometry x="85.75" y="9" width="170" height="40" as="geometry" />
        </mxCell>
        <mxCell id="fCc0VGdKN-cLOxfo7Wwt-44" value="" style="rounded=0;whiteSpace=wrap;html=1;fillColor=none;movable=1;resizable=1;rotatable=1;deletable=1;editable=1;locked=0;connectable=1;" parent="fCc0VGdKN-cLOxfo7Wwt-43" vertex="1">
          <mxGeometry x="-2.25" y="-1.5" width="258" height="209" as="geometry" />
        </mxCell>
        <mxCell id="fCc0VGdKN-cLOxfo7Wwt-45" value="&lt;font style=&quot;font-size: 16px;&quot;&gt;Data Analysis&lt;/font&gt;" style="rounded=0;whiteSpace=wrap;html=1;" parent="1" vertex="1">
          <mxGeometry x="460.87" y="305.5" width="120" height="60" as="geometry" />
        </mxCell>
        <mxCell id="fCc0VGdKN-cLOxfo7Wwt-46" value="" style="shape=flexArrow;endArrow=classic;html=1;rounded=0;exitX=0.505;exitY=0.002;exitDx=0;exitDy=0;entryX=0.5;entryY=1;entryDx=0;entryDy=0;exitPerimeter=0;" parent="1" edge="1" source="fCc0VGdKN-cLOxfo7Wwt-44">
          <mxGeometry width="50" height="50" relative="1" as="geometry">
            <mxPoint x="520.808" y="459.5819999999999" as="sourcePoint" />
            <mxPoint x="520.29" y="365.5" as="targetPoint" />
          </mxGeometry>
        </mxCell>
        <mxCell id="fCc0VGdKN-cLOxfo7Wwt-47" value="&lt;font style=&quot;font-size: 16px;&quot;&gt;Teaching sessions&lt;/font&gt;" style="text;html=1;align=center;verticalAlign=middle;whiteSpace=wrap;rounded=0;" parent="1" vertex="1">
          <mxGeometry x="48.25" y="705" width="171.5" height="30" as="geometry" />
        </mxCell>
        <mxCell id="fCc0VGdKN-cLOxfo7Wwt-49" value="&lt;font style=&quot;font-size: 16px;&quot;&gt;Qualitative and Quantitative evaluation&lt;/font&gt;" style="text;html=1;align=center;verticalAlign=middle;whiteSpace=wrap;rounded=0;" parent="1" vertex="1">
          <mxGeometry x="413.12" y="705" width="215.5" height="30" as="geometry" />
        </mxCell>
        <mxCell id="yEgYAe5i5-nbFLni60HA-1" value="" style="endArrow=none;html=1;rounded=0;entryX=0.344;entryY=0.997;entryDx=0;entryDy=0;entryPerimeter=0;exitX=0.347;exitY=1.003;exitDx=0;exitDy=0;exitPerimeter=0;" edge="1" parent="1">
          <mxGeometry width="50" height="50" relative="1" as="geometry">
            <mxPoint x="92.38400000000001" y="490.37999999999994" as="sourcePoint" />
            <mxPoint x="91.56799999999998" y="685.6120000000001" as="targetPoint" />
          </mxGeometry>
        </mxCell>
        <mxCell id="yEgYAe5i5-nbFLni60HA-2" value="" style="endArrow=none;html=1;rounded=0;entryX=0.677;entryY=0;entryDx=0;entryDy=0;entryPerimeter=0;exitX=0.677;exitY=0.998;exitDx=0;exitDy=0;exitPerimeter=0;" edge="1" parent="1" source="fCc0VGdKN-cLOxfo7Wwt-21" target="fCc0VGdKN-cLOxfo7Wwt-21">
          <mxGeometry width="50" height="50" relative="1" as="geometry">
            <mxPoint x="123" y="595" as="sourcePoint" />
            <mxPoint x="173" y="545" as="targetPoint" />
          </mxGeometry>
        </mxCell>
      </root>
    </mxGraphModel>
  </diagram>
</mxfile>
